<svg xmlns="http://www.w3.org/2000/svg" version="1.1" xmlns:xlink="http://www.w3.org/1999/xlink" x="0" y="0" viewBox="0 0 512.001 512.001" style="enable-background:new 0 0 512 512" xml:space="preserve" class=""><g><path d="M0 102.727v313.152a16.516 16.516 0 0 0 13.277 16.195l138.274 27.655a49.55 49.55 0 0 0 26.65-2.021l159.944-58.16a33.031 33.031 0 0 1 17.767-1.347l136.333 27.267c10.22 2.044 19.755-5.773 19.755-16.195V96.121a16.516 16.516 0 0 0-13.277-16.195L360.449 52.27a49.55 49.55 0 0 0-26.65 2.021l-159.944 58.16a33.031 33.031 0 0 1-17.767 1.347L19.755 86.532C9.535 84.488 0 92.305 0 102.727z" style="" fill="#00c3ff" data-original="#00c3ff" class=""/><path d="M498.723 79.925 360.45 52.27a49.502 49.502 0 0 0-13.611-.799v346.198a33.02 33.02 0 0 1 9.073.533l136.333 27.267c10.22 2.044 19.755-5.773 19.755-16.195V96.12a16.516 16.516 0 0 0-13.277-16.195z" style="" fill="#00aaf0" data-original="#00aaf0" class=""/><path d="M498.723 79.925 360.45 52.27a49.55 49.55 0 0 0-26.65 2.021l-46.807 17.021c-13.151 24.055-.027 51.979 22.685 62.194 34.236 15.398 87.485 32.515 94.968 64.688 6.882 29.591-24.774 70.194 24.774 74.323 47.072 3.922 42.14 60.42 82.581 46.552V96.12a16.518 16.518 0 0 0-13.278-16.195z" style="" fill="#b4e66e" data-original="#b4e66e"/><path d="M498.723 79.925 360.45 52.27a49.502 49.502 0 0 0-13.611-.799v98.055c26.838 12.099 52.755 26.947 57.806 48.668 6.882 29.591-24.774 70.194 24.774 74.323 47.072 3.922 42.14 60.42 82.581 46.552V96.12a16.516 16.516 0 0 0-13.277-16.195z" style="" fill="#a0d755" data-original="#a0d755" class=""/><path d="M13.277 432.076 151.55 459.73a49.55 49.55 0 0 0 26.65-2.021l43.993-15.997.774-4.035c-24.774-66.065-102.291-.547-90.839-57.806 8.258-41.29-24.774-82.581-57.806-74.323s-37.285-25.267-41.29-41.29C24.774 231.226 0 231.226 0 231.226V415.88a16.518 16.518 0 0 0 13.277 16.196z" style="" fill="#b4e66e" data-original="#b4e66e"/><path d="M165.161 114.331a33.02 33.02 0 0 1-9.073-.533L19.755 86.532C9.535 84.488 0 92.305 0 102.727v313.152a16.518 16.518 0 0 0 13.277 16.196L151.55 459.73c4.499.9 9.079 1.157 13.611.799V114.331z" style="" fill="#00aaf0" data-original="#00aaf0" class=""/><path d="M205.419 155.871c-19.683-6.561-57.806-8.258-74.323 16.516s0 49.548 33.032 49.548 41.29-16.516 49.548 0c8.258 16.516 41.29 16.516 41.29-8.258s-24.772-49.548-49.547-57.806zM220.903 276.645c-7.834 2.611-24.774 33.032-8.258 41.29s41.29 0 41.29-16.516c0-8.258-8.258-33.032-33.032-24.774z" style="" fill="#b4e66e" data-original="#b4e66e"/><path d="M232.323 381.63c-.153 0-.306-.004-.46-.012-6.339-.347-12.548-1.266-18.452-2.738-4.419-1.101-7.113-5.585-6.016-10.008a8.214 8.214 0 0 1 10.016-6.016c4.887 1.218 10.048 1.98 15.355 2.27 4.548.25 8.04 4.141 7.79 8.694-.233 4.403-3.879 7.81-8.233 7.81zM266.21 376.559a8.262 8.262 0 0 1-2.427-16.158c4.524-1.387 8.46-3.496 12.024-6.44 3.516-2.915 8.726-2.403 11.621 1.101 2.911 3.516 2.411 8.722-1.105 11.625-5.194 4.298-11.145 7.492-17.685 9.504a8.361 8.361 0 0 1-2.428.368zM184.798 362.747a8.251 8.251 0 0 1-4.96-1.657c-4.685-3.524-9.306-7.649-13.75-12.258-3.161-3.286-3.065-8.516.226-11.677 3.274-3.157 8.508-3.065 11.677.218 3.831 3.98 7.79 7.52 11.782 10.516 3.645 2.742 4.371 7.919 1.629 11.565a8.24 8.24 0 0 1-6.604 3.293zM299.315 340.207a8.195 8.195 0 0 1-2.815-.5c-4.29-1.556-6.5-6.29-4.952-10.581 1.669-4.585 3.194-9.806 4.532-15.52 1.04-4.448 5.5-7.206 9.927-6.153a8.258 8.258 0 0 1 6.153 9.927c-1.508 6.427-3.169 12.113-5.081 17.383a8.269 8.269 0 0 1-7.764 5.444z" style="" fill="#fff082" data-original="#fff082"/><path d="M151.185 324.219a8.246 8.246 0 0 1-6.968-3.815c-3.145-4.927-6.153-9.952-9.056-14.98-2.29-3.948-.935-9 3.008-11.282 3.96-2.294 9.008-.94 11.282 3.016 2.79 4.819 5.669 9.633 8.685 14.359 2.452 3.847 1.331 8.952-2.516 11.403a8.22 8.22 0 0 1-4.435 1.299z" style="" fill="#ffdc64" data-original="#ffdc64"/><path d="M309.935 289.934c-.355 0-.718-.024-1.081-.069-4.524-.593-7.71-4.742-7.113-9.262.726-5.565 1.403-11.226 2.073-16.94a8.248 8.248 0 0 1 9.169-7.234c4.524.532 7.766 4.637 7.234 9.169-.685 5.786-1.363 11.52-2.105 17.149-.539 4.158-4.088 7.187-8.177 7.187z" style="" fill="#fff082" data-original="#fff082"/><path d="M125.419 279.715a8.263 8.263 0 0 1-7.129-4.077c-3.234-5.508-6.113-10.089-8.815-13.996a8.264 8.264 0 0 1 2.105-11.488c3.758-2.601 8.903-1.649 11.492 2.109 2.927 4.242 6.024 9.153 9.46 15.012 2.306 3.935.992 8.996-2.944 11.302a8.21 8.21 0 0 1-4.169 1.138z" style="" fill="#ffdc64" data-original="#ffdc64"/><path d="M316.25 238.812a8.97 8.97 0 0 1-1.177-.081c-4.508-.645-7.653-4.827-7.008-9.343a427.99 427.99 0 0 1 2.806-17.286c.831-4.484 5.153-7.452 9.629-6.613a8.262 8.262 0 0 1 6.613 9.629c-1.016 5.452-1.895 11.004-2.694 16.601a8.26 8.26 0 0 1-8.169 7.093z" style="" fill="#fff082" data-original="#fff082"/><path d="M95.79 237.759a8.246 8.246 0 0 1-6.395-3.024c-3.823-4.665-7.387-8.714-10.903-12.383a8.252 8.252 0 0 1 .258-11.673c3.282-3.149 8.516-3.04 11.677.254 3.806 3.976 7.645 8.339 11.742 13.335 2.887 3.524 2.379 8.73-1.153 11.621a8.213 8.213 0 0 1-5.226 1.87zM57.798 203.586a8.255 8.255 0 0 1-3.976-1.024c-4.581-2.524-9.298-4.46-14.008-5.75a8.254 8.254 0 0 1-5.79-10.141c1.21-4.403 5.798-7 10.145-5.786 5.968 1.629 11.895 4.056 17.621 7.21a8.257 8.257 0 0 1-3.992 15.491z" style="" fill="#ffdc64" data-original="#ffdc64"/><path d="M327.532 188.687a8.278 8.278 0 0 1-2.766-.48c-4.298-1.528-6.54-6.25-5.016-10.548 2.145-6.028 4.581-11.669 7.242-16.766 2.121-4.048 7.121-5.609 11.145-3.496a8.266 8.266 0 0 1 3.5 11.141c-2.315 4.419-4.435 9.351-6.323 14.653a8.264 8.264 0 0 1-7.782 5.496z" style="" fill="#fff082" data-original="#fff082"/><path d="M355.71 146.735a8.258 8.258 0 0 1-6.581-3.254c-2.758-3.625-2.056-8.806 1.565-11.573 5.016-3.823 10.573-7.024 16.508-9.512 4.169-1.758 9.048.206 10.806 4.415 1.766 4.206-.21 9.048-4.419 10.81a58.837 58.837 0 0 0-12.879 7.423 8.244 8.244 0 0 1-5 1.691zM412.911 132.13c-.153 0-.306-.004-.468-.012-2.653-.149-5.113-.194-7.75-.198h-.048c-4.54 0-8.234-3.665-8.258-8.21a8.258 8.258 0 0 1 8.21-8.306c2.766.008 5.75.056 8.766.222 4.548.254 8.04 4.149 7.782 8.702a8.257 8.257 0 0 1-8.234 7.802zM0 198.198a8.315 8.315 0 0 0 2.234-.309 89.408 89.408 0 0 1 7.387-1.758 8.25 8.25 0 0 0 6.54-9.677c-.863-4.472-5.218-7.399-9.669-6.54-2.118.411-4.306.977-6.492 1.542v16.742zM474.129 123.872l10.677-10.677c3.226-3.226 3.226-8.452 0-11.677s-8.452-3.226-11.677 0l-10.677 10.677-10.677-10.677c-3.226-3.226-8.452-3.226-11.677 0s-3.226 8.452 0 11.677l10.677 10.677-10.677 10.677a8.254 8.254 0 0 0 0 11.677c1.613 1.613 3.726 2.419 5.839 2.419s4.226-.806 5.839-2.419l10.677-10.677 10.677 10.677c1.613 1.613 3.726 2.419 5.839 2.419s4.226-.806 5.839-2.419a8.254 8.254 0 0 0 0-11.677l-10.679-10.677z" style="" fill="#ffdc64" data-original="#ffdc64"/><path d="M13.277 432.076 151.55 459.73c4.499.9 9.079 1.157 13.611.799v-55.105c-21.605.928-38.865 3.613-33.032-25.553 8.258-41.29-24.774-82.581-57.806-74.323s-37.285-25.267-41.29-41.29C24.774 231.226 0 231.226 0 231.226V415.88a16.518 16.518 0 0 0 13.277 16.196zM454.194 363.355c-12.277 5.989-20.026 16.806-45.419 8.946-28.903-8.946-37.161 15.828-37.849 26.839v2.065l121.32 24.264c10.22 2.044 19.755-5.773 19.755-16.195v-12.886c-.001-16.517-29.592-46.797-57.807-33.033zM165.161 221.904V152.7c-13.371 2.114-26.182 7.864-34.065 19.687-16.516 24.774 0 49.548 33.032 49.548.362 0 .678-.027 1.033-.031z" style="" fill="#a0d755" data-original="#a0d755" class=""/></g></svg>