<svg xmlns="http://www.w3.org/2000/svg" version="1.1" xmlns:xlink="http://www.w3.org/1999/xlink" x="0" y="0" viewBox="0 0 504.123 504.123" style="enable-background:new 0 0 512 512" xml:space="preserve" class=""><g><path d="M251.731 251.971v84.173L33.843 209.971v-83.984l217.888 125.984" style="" fill="#8fc105" data-original="#8fc105"/><path d="M33.843 209.971v-83.984l217.888 125.984" style="" fill="#a2ce02" data-original="#a2ce02"/><path d="M252.062 251.971v84.173l217.891-126.173v-83.984L252.062 251.971" style="" fill="#4da004" data-original="#4da004"/><path d="M251.731 335.963v84.168L33.843 293.967v-83.996l217.888 125.992" style="" fill="#ad841f" data-original="#ad841f"/><path d="M33.843 293.967v-83.996l217.888 125.992" style="" fill="#c49427" data-original="#c49427"/><path d="M252.062 335.963v84.168l217.891-126.164v-83.996L252.062 335.963" style="" fill="#7c5506" data-original="#7c5506"/><path d="M251.731 419.946v84.177L33.843 377.954v-83.987l217.888 125.979" style="" fill="#6b4707" data-original="#6b4707"/><path d="M33.843 377.954v-83.987l217.888 125.979" style="" fill="#7c5506" data-original="#7c5506"/><path d="M252.062 419.946v84.177l217.891-126.169v-83.987L252.062 419.946" style="" fill="#513304" data-original="#513304"/><path d="m33.843 125.987 217.888 125.984L470.28 125.987 252.062 0z" style="" fill="#a7dd12" data-original="#a7dd12"/><path d="m33.843 125.987 217.888 125.984L470.28 125.987" style="" fill="#98d80b" data-original="#98d80b"/><path d="m307.551 338.633-31.701 18.326v-7.054l31.701-18.306zM339.251 343.174l-31.7 18.322v-7.054l31.7-18.298zM413.885 288.327l-31.697 18.318v-7.058l31.697-18.298zM456.007 280.001l-31.701 18.322v-7.054l31.701-18.302z" style="" fill="#ad841f" data-original="#ad841f"/><path d="m348.967 419.497-31.7 18.322v-7.058l31.7-18.302zM398.021 377.553l-31.705 18.325v-7.057l31.705-18.302zM433.617 372.311l-31.701 18.325v-7.053l31.701-18.303z" style="" fill="#6b4707" data-original="#6b4707"/></g></svg>