<svg xmlns="http://www.w3.org/2000/svg" version="1.1" xmlns:xlink="http://www.w3.org/1999/xlink" x="0" y="0" viewBox="0 0 512 512" style="enable-background:new 0 0 512 512" xml:space="preserve"><g><path fill="#ffcd58" d="M151.273 283.004V160H58.182v148.232z" opacity="1" data-original="#ffcd58"/><path fill="#f2b841" d="M58.182 160v31.03s55.853-3.482 56.242 19.394c.485 28.52 0 82.566 0 82.566l36.848-9.986V160z" opacity="1" data-original="#f2b841"/><path fill="#e2f2f6" d="m27.14 61.963 19.406 77.575h36.367l-7.276-77.575z" opacity="1" data-original="#e2f2f6"/><path fill="#93d0de" d="m133.818 61.963-7.276 77.575h36.367l19.406-77.575z" opacity="1" data-original="#93d0de"/><path fill="#bbcbca" d="M104.728 39.758A7.758 7.758 0 0 1 96.97 32V7.758a7.758 7.758 0 0 1 15.516 0V32a7.76 7.76 0 0 1-7.758 7.758zm38.812 0A7.758 7.758 0 0 1 135.782 32V7.758a7.758 7.758 0 0 1 15.516 0V32a7.759 7.759 0 0 1-7.758 7.758zm-77.625 0A7.758 7.758 0 0 1 58.157 32V7.758a7.759 7.759 0 0 1 15.516 0V32a7.759 7.759 0 0 1-7.758 7.758z" opacity="1" data-original="#bbcbca"/><path fill="#8c9b9a" d="M504.242 512H7.758a7.758 7.758 0 0 1 0-15.516h496.484a7.758 7.758 0 0 1 0 15.516z" opacity="1" data-original="#8c9b9a"/><path fill="#bbcbca" d="M406.21 271.298c-41.92-11.062-95.242-17.155-150.142-17.155-54.885 0-108.365 6.089-150.59 17.146-50.137 13.129-76.591 45.367-72.579 88.445 4.196 45.049 16.964 128.905 19.481 145.257l.066.428A7.757 7.757 0 0 0 60.114 512h391.46a7.758 7.758 0 0 0 7.691-6.742c.085-.65 12.284-92.284 19.396-144.716 3.429-25.286-1.423-70.5-72.451-89.244z" opacity="1" data-original="#bbcbca"/><path fill="#a8deee" d="M126.542 139.538H82.913l-7.276-77.575h58.181zm301.936 365.587c.123-.932 12.39-96.118 19.411-147.872 2.36-17.396-.218-42.032-49.621-55.068-80.746-21.309-203.564-21.309-284.953.006-24.367 6.381-52.743 21.197-49.543 55.547 4.43 47.561 19.173 146.421 19.322 147.387z" opacity="1" data-original="#a8deee"/><path fill="#a8deee" d="M162.909 147.296H46.546a7.757 7.757 0 0 1-7.526-5.875L19.614 63.846a7.754 7.754 0 0 1 1.411-6.656 7.754 7.754 0 0 1 6.115-2.984h155.176a7.755 7.755 0 0 1 7.526 9.64l-19.406 77.576a7.76 7.76 0 0 1-7.527 5.874zM52.602 131.781h104.252l15.525-62.06H37.077z" opacity="1" data-original="#a8deee"/><path fill="#93d0de" d="M126.542 147.296H82.913a7.757 7.757 0 0 1-7.723-7.033l-7.277-77.576a7.756 7.756 0 0 1 7.724-8.482h58.182a7.758 7.758 0 0 1 7.724 8.482l-7.277 77.576a7.759 7.759 0 0 1-7.724 7.033zm-36.564-15.515h29.5l5.822-62.06H84.156z" opacity="1" data-original="#93d0de"/><path fill="#f3fafc" d="M182.303 25.12H27.152C12.18 25.12 0 37.3 0 52.272v9.63a7.758 7.758 0 0 0 7.758 7.758h193.939a7.758 7.758 0 0 0 7.758-7.758v-9.63c0-14.972-12.18-27.152-27.152-27.152z" opacity="1" data-original="#f3fafc"/><path fill="#bbcbca" d="M162.885 131.848H46.57a7.758 7.758 0 0 0-7.758 7.758v9.63c0 14.972 12.18 27.151 27.151 27.151h77.526c14.972 0 27.151-12.18 27.151-27.151v-9.63a7.755 7.755 0 0 0-7.755-7.758z" opacity="1" data-original="#bbcbca"/><path fill="#e2f2f6" d="M471.39 98.003a42.461 42.461 0 0 0 3.472-16.781c0-23.384-19.025-42.409-42.409-42.409-16.574 0-31.475 9.822-38.365 24.357a79.83 79.83 0 0 0-29.742-5.759c-43.856 0-79.536 35.68-79.536 79.536 0 .158 0 .317.002.477a42.316 42.316 0 0 0-21.053 36.65c0 23.384 19.025 42.409 42.409 42.409 8.733 0 17.161-2.67 24.237-7.604a79.664 79.664 0 0 0 33.941 7.604 79.474 79.474 0 0 0 46.561-15.073c11.051 9.651 25.316 15.073 40.121 15.073 33.621 0 60.973-27.352 60.973-60.972-.001-26.399-16.539-49.087-40.611-57.508z" opacity="1" data-original="#e2f2f6"/><path fill="#fff" d="M421.344 86.542a7.756 7.756 0 0 1-7.589-9.403c1.892-8.723 9.754-15.053 18.697-15.053a7.758 7.758 0 0 1 0 15.516c-1.665 0-3.186 1.215-3.534 2.826a7.762 7.762 0 0 1-7.574 6.114zm-105.505 58.162a7.758 7.758 0 0 1-7.758-7.758c0-31.024 25.24-56.263 56.263-56.263a7.758 7.758 0 0 1 0 15.516c-22.468 0-40.748 18.279-40.748 40.748a7.757 7.757 0 0 1-7.757 7.757z" opacity=".5"/><path d="M162.885 131.848h-27.798v5.751c0 14.972-9.91 27.151-22.092 27.151h-63.08c-2.507 0-4.907-.54-7.155-1.49 4.764 7.852 13.369 13.126 23.204 13.126h77.526c14.972 0 27.151-12.18 27.151-27.151v-9.63a7.756 7.756 0 0 0-7.756-7.757z" opacity=".1"/><path fill="#e2f2f6" d="M182.303 25.12h-43.404c3.48 4.724 5.586 10.811 5.586 17.455v9.63c0 4.284-3.039 7.758-6.788 7.758H0v1.939a7.758 7.758 0 0 0 7.758 7.758h193.939a7.758 7.758 0 0 0 7.758-7.758v-9.63c0-14.972-12.18-27.152-27.152-27.152zm217.945 268.683c-39.678-10.473-90.892-16.24-144.208-16.24-53.317 0-104.702 5.767-144.691 16.24-38.552 10.097-58.192 32.747-55.302 63.773 4.459 47.875 19.237 146.922 19.379 147.846A7.758 7.758 0 0 0 83.094 512H428.48a7.757 7.757 0 0 0 7.691-6.742l.271-2.095c3.818-29.553 13.324-102.911 19.136-145.748 4.317-31.843-13.781-52.649-55.33-63.612zM71.554 356.75h60.252v62.11h-52.89c-2.989-22.639-5.793-45.434-7.362-62.11zm231.016 20.784V356.75h62.11v62.11H147.321v-62.11h62.109v20.784h15.515V356.75h62.11v20.784zm-93.14-36.299h-62.109v-39.34c19.257-3.388 40.217-5.848 62.109-7.295zm-38.812 93.14v62.11h-23.296v-62.11zm15.515 0h23.297v62.11h-23.297zm38.812 0h23.297v62.11h-23.297zm38.813 0h23.297v62.11h-23.297zm38.812 0h23.297v62.11H302.57zm38.812 0h23.297v62.11h-23.297zm-38.812-93.14v-46.637c21.932 1.452 42.896 3.924 62.11 7.33v39.306h-62.11zm77.625 15.515h59.815c-2.372 17.514-5.324 39.819-8.248 62.11h-51.567zm59.923-15.515h-59.923v-36.268a361.153 361.153 0 0 1 16.095 3.837c31.944 8.428 41.45 21.563 43.828 32.431zM287.055 293.75v47.485h-62.11v-47.482a715.55 715.55 0 0 1 62.11-.003zM115.28 308.811a370.138 370.138 0 0 1 16.526-3.905v36.329H72.703c4.317-15.255 18.564-26.133 42.577-32.424zM80.995 434.375h50.811v62.11H89.787a5969.901 5969.901 0 0 1-8.792-62.11zm340.664 62.11h-41.464v-62.11h49.536c-3.174 24.28-6.138 47.15-8.072 62.11z"/><path d="M94.835 396.364c-2.89-31.026 16.75-53.676 55.302-63.773 39.989-10.473 91.374-16.241 144.691-16.241 53.316 0 104.53 5.767 144.208 16.241 5.825 1.537 11.171 3.274 16.077 5.201-4.437-20.987-22.559-35.466-54.865-43.989-39.678-10.473-90.892-16.241-144.208-16.241-53.317 0-104.702 5.767-144.691 16.241-38.552 10.097-58.192 32.747-55.302 63.773 4.459 47.875 19.237 146.922 19.379 147.846A7.758 7.758 0 0 0 83.094 512h26.437c-4.766-33.424-11.843-85.004-14.696-115.636z" opacity=".1"/><path d="M359.758 372.318H178.424c-4.284 0-19.394 22.867-19.394 27.151 0 34.254 34.764 63.996 67.879 63.996h96.97c33.115 0 56.242-23.924 56.242-58.178 0-4.283-20.363-32.969-20.363-32.969z" opacity=".1"/><path fill="#bbcbca" d="M352.97 368.44H159.03a7.758 7.758 0 0 0-7.758 7.758c0 34.254 23.128 58.178 56.242 58.178h96.969c33.115 0 56.242-23.924 56.242-58.178a7.754 7.754 0 0 0-7.755-7.758z"/><path d="M352.97 368.44h-12.587c-4.643 27.911-26.073 46.542-55.291 46.542h-96.97c-10.893 0-20.695-2.603-28.959-7.297 9.465 16.538 26.788 26.691 48.353 26.691h96.969c33.115 0 56.242-23.924 56.242-58.178a7.757 7.757 0 0 0-7.757-7.758z" opacity=".1"/></g></svg>