<svg xmlns="http://www.w3.org/2000/svg" version="1.1" xmlns:xlink="http://www.w3.org/1999/xlink" x="0" y="0" viewBox="0 0 512 512" style="enable-background:new 0 0 512 512" xml:space="preserve"><g><path fill="#f5f0eb" d="M368.467 415.6H143.533c-8.284 0-15-6.716-15-15s6.716-15 15-15h224.934c8.284 0 15 6.716 15 15s-6.716 15-15 15z" opacity="1" data-original="#f5f0eb"/><path fill="#dcd7da" d="M383.467 400.6c0-8.284-6.716-15-15-15H256v30h112.467c8.284 0 15-6.716 15-15z" opacity="1" data-original="#dcd7da"/><path fill="#c3bec8" d="M432.733 503.967h-64.267c-8.284 0-15-6.716-15-15V117.3c0-8.284 6.716-15 15-15h64.267c8.284 0 15 6.716 15 15v371.667c0 8.284-6.715 15-15 15z" opacity="1" data-original="#c3bec8"/><path fill="#dcd7da" d="M143.533 503.967H79.267c-8.284 0-15-6.716-15-15V117.3c0-8.284 6.716-15 15-15h64.267c8.284 0 15 6.716 15 15v371.667c-.001 8.284-6.717 15-15.001 15z" opacity="1" data-original="#dcd7da"/><path fill="#ffe600" d="M111.4 102.3c-25.989 0-47.134-21.144-47.134-47.133S85.411 8.033 111.4 8.033s47.133 21.145 47.133 47.134S137.39 102.3 111.4 102.3z" opacity="1" data-original="#ffe600"/><path fill="#ffb900" d="M400.6 102.3c-25.989 0-47.133-21.144-47.133-47.133S374.61 8.033 400.6 8.033s47.134 21.145 47.134 47.134S426.589 102.3 400.6 102.3zM108.4 72.3H15c-8.284 0-15 6.716-15 15v96.4c0 8.284 6.716 15 15 15h30.2c34.904 0 63.2-28.296 63.2-63.2z" opacity="1" data-original="#ffb900"/><path fill="#f5f0eb" d="M108.4 72.3 45.2 198.7h119.467c34.904 0 63.2-28.296 63.2-63.2V72.3z" opacity="1" data-original="#f5f0eb"/><path fill="#ffb900" d="m227.867 72.3-63.2 126.4h119.467c34.904 0 63.2-28.296 63.2-63.2V72.3zM108.4 232.967H15c-8.284 0-15 6.716-15 15v96.4c0 8.284 6.716 15 15 15h30.2c34.904 0 63.2-28.296 63.2-63.2z" opacity="1" data-original="#ffb900"/><path fill="#f5f0eb" d="m108.4 232.967-63.2 126.4h119.467c34.904 0 63.2-28.296 63.2-63.2v-63.2z" opacity="1" data-original="#f5f0eb"/><path fill="#ffb900" d="m227.867 232.967-63.2 126.4h119.467c34.904 0 63.2-28.296 63.2-63.2v-63.2z" opacity="1" data-original="#ffb900"/><path fill="#ff8c00" d="M347.333 135.5V72.3H256v126.4h28.133c34.905 0 63.2-28.295 63.2-63.2zM347.333 296.167v-63.2H256v126.4h28.133c34.905 0 63.2-28.295 63.2-63.2z" opacity="1" data-original="#ff8c00"/><path fill="#dcd7da" d="m347.333 72.3-63.2 126.4H403.6c34.904 0 63.2-28.296 63.2-63.2V72.3zM347.333 232.967l-63.2 126.4H403.6c34.904 0 63.2-28.296 63.2-63.2v-63.2z" opacity="1" data-original="#dcd7da"/><g fill="#ff8c00"><path d="M512 183.7V87.3c0-8.284-6.716-15-15-15h-30.2l-63.2 126.4H497c8.284 0 15-6.715 15-15zM512 344.367v-96.4c0-8.284-6.716-15-15-15h-30.2l-63.2 126.4H497c8.284 0 15-6.715 15-15z" fill="#ff8c00" opacity="1" data-original="#ff8c00"/></g></g></svg>