<svg xmlns="http://www.w3.org/2000/svg" version="1.1" xmlns:xlink="http://www.w3.org/1999/xlink" x="0" y="0" viewBox="0 0 58 58" style="enable-background:new 0 0 512 512" xml:space="preserve" class=""><g><g fill="none" fill-rule="nonzero"><path fill="#2980ba" d="M0 52v4a2 2 0 0 0 2 2h54a2 2 0 0 0 2-2v-4z" opacity="1" data-original="#2980ba"/><path fill="#b0d3f0" d="M58 52a2.06 2.06 0 0 1-2.12 2H2.12a1.994 1.994 0 0 1-1.79-3.06l7.31-11.06A4.3 4.3 0 0 1 11.23 38H16l5 7h16l5-7h4.77a4.3 4.3 0 0 1 3.59 1.88C58.27 51.85 58 51.2 58 52z" opacity="1" data-original="#b0d3f0"/><path fill="#90bae1" d="M58 52a2.06 2.06 0 0 1-2.12 2H17.16a34.734 34.734 0 0 1 8.03-9H37l5-7h4.77a4.3 4.3 0 0 1 3.59 1.88C58.27 51.85 58 51.2 58 52z" opacity="1" data-original="#90bae1"/><path fill="#f9eab0" d="M37 46H21a1 1 0 0 1-.837-.453l-17-26a1 1 0 1 1 1.674-1.094L21.541 44h14.918l16.7-25.547a1 1 0 1 1 1.674 1.094l-17 26A1 1 0 0 1 37 46z" opacity="1" data-original="#f9eab0"/><path fill="#ff5364" d="M42 7.3v13.4a.5.5 0 0 1-.26.44L30 27.46l-.76.41a.51.51 0 0 1-.48 0l-.76-.41-11.74-6.32a.5.5 0 0 1-.26-.44V7.3a.5.5 0 0 1 .26-.44l.79-.43L28.76.13a.51.51 0 0 1 .48 0l11.71 6.3.79.43a.5.5 0 0 1 .26.44z" opacity="1" data-original="#ff5364" class=""/><g fill="#df4d60"><path d="M32.526 10.969 29 12.865l-3.526-1.9a1 1 0 1 0-.948 1.762L28 14.6V17a1 1 0 0 0 2 0v-2.4l3.474-1.867a1 1 0 1 0-.948-1.762zM20.88 9.62a.991.991 0 0 1-1.35.41L16 8.13V7.3a.5.5 0 0 1 .26-.44l.79-.43 3.42 1.84a1 1 0 0 1 .41 1.35zM42 7.3v.84l-3.53 1.89a1 1 0 0 1-.94-1.76l3.42-1.84.79.43a.5.5 0 0 1 .26.44zM30 23v4.46l-.76.41a.51.51 0 0 1-.48 0l-.76-.41V23a1 1 0 0 1 2 0z" fill="#df4d60" opacity="1" data-original="#df4d60"/></g><path fill="#3b97d3" d="M58 52a2.06 2.06 0 0 1-2.12 2H52l-1.89-4.31H50l-2.92-.49a2 2 0 0 1-1.57-1.34l-1.07-3.21a2 2 0 0 1 1-2.43l1.06-.53h.11L45 38h1.77a4.3 4.3 0 0 1 3.59 1.88C58.27 51.85 58 51.2 58 52zM14 38 7 54H2.12a1.994 1.994 0 0 1-1.79-3.06l7.31-11.06A4.3 4.3 0 0 1 11.23 38z" opacity="1" data-original="#3b97d3"/></g></g></svg>