<svg xmlns="http://www.w3.org/2000/svg" version="1.1" xmlns:xlink="http://www.w3.org/1999/xlink" x="0" y="0" viewBox="0 0 512 512" style="enable-background:new 0 0 512 512" xml:space="preserve"><g><linearGradient id="d" x1="116.527" x2="424.789" y1="218.467" y2="347.568" gradientUnits="userSpaceOnUse"><stop offset="0" stop-color="#62dbfb"/><stop offset=".191" stop-color="#57d5fa"/><stop offset=".523" stop-color="#3bc5f7"/><stop offset=".954" stop-color="#0dabf2"/><stop offset="1" stop-color="#08a9f1"/></linearGradient><linearGradient id="a"><stop offset="0" stop-color="#0593fc" stop-opacity="0"/><stop offset=".683" stop-color="#0389fc" stop-opacity=".683"/><stop offset="1" stop-color="#0182fc"/></linearGradient><linearGradient xlink:href="#a" id="e" x1="384.01" x2="442.622" y1="275.461" y2="275.461" gradientUnits="userSpaceOnUse"/><linearGradient xlink:href="#a" id="f" x1="324.792" x2="309.108" y1="423.185" y2="457.403" gradientUnits="userSpaceOnUse"/><linearGradient xlink:href="#a" id="g" x1="513.633" x2="497.95" y1="423.185" y2="457.403" gradientTransform="matrix(-1 0 0 1 700.84 0)" gradientUnits="userSpaceOnUse"/><linearGradient xlink:href="#a" id="h" x1="375.891" x2="231.535" y1="325.53" y2="198.282" gradientUnits="userSpaceOnUse"/><linearGradient id="i" x1="139.698" x2="396.702" y1="162.323" y2="269.957" gradientUnits="userSpaceOnUse"><stop offset="0" stop-color="#eaf9fa"/><stop offset="1" stop-color="#b3dafe"/></linearGradient><linearGradient id="b"><stop offset="0" stop-color="#7bacdf" stop-opacity="0"/><stop offset="1" stop-color="#7bacdf"/></linearGradient><linearGradient xlink:href="#b" id="j" x1="358.972" x2="406.12" y1="209.89" y2="209.89" gradientUnits="userSpaceOnUse"/><linearGradient xlink:href="#b" id="k" x1="311.336" x2="298.721" y1="348.337" y2="375.862" gradientUnits="userSpaceOnUse"/><linearGradient xlink:href="#b" id="l" x1="500.178" x2="487.562" y1="348.337" y2="375.862" gradientTransform="matrix(-1 0 0 1 700.84 0)" gradientUnits="userSpaceOnUse"/><linearGradient xlink:href="#b" id="m" x1="306.382" x2="281.966" y1="85.109" y2="96.336" gradientUnits="userSpaceOnUse"/><linearGradient xlink:href="#b" id="n" x1="317.73" x2="283.512" y1="241.332" y2="198.085" gradientUnits="userSpaceOnUse"/><linearGradient id="o" x1="208.003" x2="280.716" y1="136.677" y2="197.984" gradientUnits="userSpaceOnUse"><stop offset="0" stop-color="#fef0ae"/><stop offset="1" stop-color="#fbc56d"/></linearGradient><linearGradient id="c"><stop offset="0" stop-color="#dc8758" stop-opacity="0"/><stop offset=".215" stop-color="#dd8654" stop-opacity=".215"/><stop offset=".429" stop-color="#e28448" stop-opacity=".429"/><stop offset=".642" stop-color="#ea8034" stop-opacity=".642"/><stop offset=".854" stop-color="#f47b18" stop-opacity=".854"/><stop offset="1" stop-color="#fe7701"/></linearGradient><linearGradient xlink:href="#c" id="p" x1="155.018" x2="314.39" y1="69.339" y2="228.71" gradientUnits="userSpaceOnUse"/><linearGradient xlink:href="#c" id="q" x1="252.287" x2="222.821" y1="160.955" y2="119.609" gradientUnits="userSpaceOnUse"/><linearGradient xlink:href="#c" id="r" x1="239.734" x2="202.665" y1="174.96" y2="190.644" gradientUnits="userSpaceOnUse"/><linearGradient xlink:href="#c" id="s" x1="300.822" x2="358.564" y1="160.886" y2="184.41" gradientUnits="userSpaceOnUse"/><linearGradient xlink:href="#c" id="t" x1="280.188" x2="273.06" y1="227.412" y2="243.096" gradientUnits="userSpaceOnUse"/><linearGradient xlink:href="#c" id="u" x1="392.505" x2="385.376" y1="227.412" y2="243.096" gradientTransform="matrix(-1 0 0 1 624.317 0)" gradientUnits="userSpaceOnUse"/><path fill="url(#d)" d="m292.749 448.229 125.332 61.833c12.33 6.083 26.761-2.889 26.761-16.638V66.03c0-14.972-12.137-27.109-27.109-27.109H94.267c-14.972 0-27.109 12.137-27.109 27.109v427.394c0 13.749 14.431 22.721 26.761 16.638l125.331-61.833a83.057 83.057 0 0 1 73.499 0z" opacity="1" data-original="url(#d)"/><path fill="url(#e)" d="M417.733 38.921H256v400.735a83.022 83.022 0 0 1 36.749 8.572l125.332 61.833c12.33 6.083 26.761-2.889 26.761-16.638V66.03c0-14.972-12.137-27.109-27.109-27.109z" opacity="1" data-original="url(#e)"/><path fill="url(#f)" d="M444.84 237.01v256.41c0 13.75-14.43 22.72-26.76 16.64l-125.33-61.83a82.957 82.957 0 0 0-36.75-8.57V237.01z" opacity="1" data-original="url(#f)"/><path fill="url(#g)" d="M67.158 237.01v256.41c0 13.75 14.43 22.72 26.76 16.64l125.33-61.83a82.957 82.957 0 0 1 36.75-8.57V237.01z" opacity="1" data-original="url(#g)"/><path fill="url(#h)" d="M417.733 38.921h-64.646v132.711L108.905 415.814l58.161 58.161 52.185-25.746a83.061 83.061 0 0 1 73.498 0l125.332 61.833c12.33 6.083 26.761-2.889 26.761-16.638V66.03c0-14.972-12.137-27.109-27.109-27.109z" opacity="1" data-original="url(#h)"/><path fill="url(#i)" d="m285.561 368.482 100.818 49.739c9.918 4.893 21.527-2.324 21.527-13.384V21.807C407.906 9.763 398.143 0 386.099 0H125.901c-12.044 0-21.807 9.763-21.807 21.807v383.03c0 11.059 11.609 18.277 21.527 13.384l100.818-49.739a66.812 66.812 0 0 1 59.122 0z" opacity="1" data-original="url(#i)"/><path fill="url(#j)" d="M386.099 0H256v361.586a66.797 66.797 0 0 1 29.561 6.895l100.818 49.739c9.918 4.893 21.527-2.324 21.527-13.384V21.807C407.906 9.763 398.143 0 386.099 0z" opacity="1" data-original="url(#j)"/><path fill="url(#k)" d="M407.904 198.576v206.258c0 11.061-11.608 18.276-21.526 13.385l-100.817-49.737a66.732 66.732 0 0 0-29.562-6.894V198.576z" opacity="1" data-original="url(#k)"/><path fill="url(#l)" d="M104.094 198.576v206.258c0 11.061 11.608 18.276 21.526 13.385l100.817-49.737a66.732 66.732 0 0 1 29.562-6.894V198.576z" opacity="1" data-original="url(#l)"/><path fill="url(#m)" d="m263.22 49.349 76.182 76.183h-72.125z" opacity="1" data-original="url(#m)"/><path fill="url(#n)" d="M368.316 125.656 184.849 263.443l109.252 109.252 92.278 45.526c9.918 4.893 21.527-2.324 21.527-13.384V165.246z" opacity="1" data-original="url(#n)"/><path fill="url(#o)" d="m264.678 51.523 28.012 56.758a9.68 9.68 0 0 0 7.287 5.294l62.636 9.102c7.938 1.153 11.107 10.908 5.363 16.507l-45.324 44.18a9.676 9.676 0 0 0-2.783 8.566l10.7 62.383c1.356 7.906-6.942 13.935-14.042 10.202l-56.024-29.453a9.68 9.68 0 0 0-9.007 0l-56.024 29.453c-7.1 3.733-15.398-2.296-14.042-10.202l10.7-62.383a9.678 9.678 0 0 0-2.783-8.566l-45.324-44.18c-5.744-5.599-2.574-15.354 5.363-16.507l62.636-9.102a9.68 9.68 0 0 0 7.287-5.294l28.012-56.758c3.551-7.193 13.807-7.193 17.357 0z" opacity="1" data-original="url(#o)"/><path fill="url(#p)" d="M216.771 196.157a34.677 34.677 0 0 0-9.97-30.691L196 154.938c-5.03-4.903-2.254-13.444 4.697-14.454l14.921-2.168a34.664 34.664 0 0 0 26.111-18.974l6.672-13.518c3.108-6.298 12.09-6.298 15.198 0l6.673 13.522a34.668 34.668 0 0 0 26.109 18.97l14.921 2.168c6.951 1.01 9.726 9.552 4.697 14.454l-10.797 10.524a34.68 34.68 0 0 0-9.974 30.692l2.549 14.863c1.187 6.923-6.078 12.202-12.295 8.933l-13.346-7.016a34.793 34.793 0 0 0-16.137-3.983 34.8 34.8 0 0 0-16.138 3.983l-13.344 7.016c-6.217 3.268-13.483-2.011-12.295-8.933z" opacity="1" data-original="url(#p)"/><path fill="url(#q)" d="M216.771 196.157a34.677 34.677 0 0 0-9.97-30.691L196 154.938c-5.03-4.903-2.254-13.444 4.697-14.454l14.921-2.168a34.664 34.664 0 0 0 26.111-18.974l6.672-13.518c3.108-6.298 12.09-6.298 15.198 0l6.673 13.522a34.668 34.668 0 0 0 26.109 18.97l14.921 2.168c6.951 1.01 9.726 9.552 4.697 14.454l-10.797 10.524a34.68 34.68 0 0 0-9.974 30.692l2.549 14.863c1.187 6.923-6.078 12.202-12.295 8.933l-13.346-7.016a34.793 34.793 0 0 0-16.137-3.983 34.8 34.8 0 0 0-16.138 3.983l-13.344 7.016c-6.217 3.268-13.483-2.011-12.295-8.933z" opacity="1" data-original="url(#q)"/><path fill="url(#r)" d="M216.771 196.157a34.677 34.677 0 0 0-9.97-30.691L196 154.938c-5.03-4.903-2.254-13.444 4.697-14.454l14.921-2.168a34.664 34.664 0 0 0 26.111-18.974l6.672-13.518c3.108-6.298 12.09-6.298 15.198 0l6.673 13.522a34.668 34.668 0 0 0 26.109 18.97l14.921 2.168c6.951 1.01 9.726 9.552 4.697 14.454l-10.797 10.524a34.68 34.68 0 0 0-9.974 30.692l2.549 14.863c1.187 6.923-6.078 12.202-12.295 8.933l-13.346-7.016a34.793 34.793 0 0 0-16.137-3.983 34.8 34.8 0 0 0-16.138 3.983l-13.344 7.016c-6.217 3.268-13.483-2.011-12.295-8.933z" opacity="1" data-original="url(#r)"/><path fill="url(#s)" d="m260.503 235.062 56.024 29.453c7.1 3.733 15.398-2.296 14.042-10.202L319.87 191.93a9.676 9.676 0 0 1 2.783-8.566l45.324-44.18c5.744-5.599 2.574-15.354-5.363-16.507l-62.636-9.102a9.68 9.68 0 0 1-7.287-5.294l-28.012-56.758c-1.775-3.597-5.227-5.395-8.678-5.395V233.95a9.682 9.682 0 0 1 4.502 1.112z" opacity="1" data-original="url(#s)"/><path fill="url(#t)" d="M367.977 139.184c.125-.122.223-.256.34-.382H256v95.149c1.547 0 3.094.37 4.503 1.112l56.024 29.453c7.1 3.733 15.398-2.296 14.042-10.202l-10.699-62.383a9.676 9.676 0 0 1 2.783-8.566z" opacity="1" data-original="url(#t)"/><path fill="url(#u)" d="M144.023 139.184c-.125-.122-.223-.256-.34-.382H256v95.149c-1.547 0-3.094.37-4.503 1.112l-56.024 29.453c-7.1 3.733-15.398-2.296-14.042-10.202l10.699-62.383a9.676 9.676 0 0 0-2.783-8.566z" opacity="1" data-original="url(#u)"/></g></svg>