<svg xmlns="http://www.w3.org/2000/svg" version="1.1" xmlns:xlink="http://www.w3.org/1999/xlink" x="0" y="0" viewBox="0 0 512 512" style="enable-background:new 0 0 512 512" xml:space="preserve"><g><path fill="#ffc800" d="M256 512a79.473 79.473 0 0 1-32.772-7.086 79.473 79.473 0 0 1-33.488-1.637 79.498 79.498 0 0 1-29.82-15.326A79.455 79.455 0 0 1 128 477.703a79.497 79.497 0 0 1-24.837-22.521 79.43 79.43 0 0 1-28.183-18.164 79.479 79.479 0 0 1-18.161-28.179 79.487 79.487 0 0 1-22.522-24.838 79.384 79.384 0 0 1-10.247-31.922 79.418 79.418 0 0 1-15.329-29.822 79.495 79.495 0 0 1-1.638-33.486C2.436 278.528 0 267.31 0 256s2.436-22.528 7.083-32.771a79.494 79.494 0 0 1 1.638-33.486 79.389 79.389 0 0 1 15.329-29.822 79.39 79.39 0 0 1 10.247-31.922 79.499 79.499 0 0 1 22.522-24.838 79.488 79.488 0 0 1 18.166-28.183 79.4 79.4 0 0 1 28.179-18.16 79.507 79.507 0 0 1 24.834-22.521 79.46 79.46 0 0 1 31.923-10.249 79.47 79.47 0 0 1 29.817-15.325 79.426 79.426 0 0 1 33.491-1.638C233.47 2.438 244.689 0 256 0s22.529 2.438 32.771 7.086a79.44 79.44 0 0 1 33.488 1.637 79.484 79.484 0 0 1 29.82 15.326 79.46 79.46 0 0 1 31.92 10.248 79.497 79.497 0 0 1 24.837 22.521 79.434 79.434 0 0 1 28.184 18.164 79.506 79.506 0 0 1 18.161 28.179 79.487 79.487 0 0 1 22.522 24.838 79.393 79.393 0 0 1 10.246 31.922 79.39 79.39 0 0 1 15.329 29.822 79.495 79.495 0 0 1 1.638 33.486C509.564 233.473 512 244.691 512 256s-2.436 22.527-7.083 32.771a79.494 79.494 0 0 1-1.638 33.486 79.389 79.389 0 0 1-15.329 29.822 79.389 79.389 0 0 1-10.247 31.923 79.479 79.479 0 0 1-22.521 24.837 79.492 79.492 0 0 1-18.166 28.183 79.4 79.4 0 0 1-28.179 18.16 79.511 79.511 0 0 1-24.835 22.521 79.46 79.46 0 0 1-31.922 10.249 79.463 79.463 0 0 1-29.817 15.325 79.441 79.441 0 0 1-33.491 1.638A79.491 79.491 0 0 1 256 512z" opacity="1" data-original="#ffc800"/><path fill="#ffa400" d="M256 0a79.468 79.468 0 0 1 32.771 7.086 79.44 79.44 0 0 1 33.488 1.637 79.484 79.484 0 0 1 29.82 15.326 79.46 79.46 0 0 1 31.92 10.248 79.497 79.497 0 0 1 24.837 22.521 79.434 79.434 0 0 1 28.184 18.164 79.506 79.506 0 0 1 18.161 28.179 79.487 79.487 0 0 1 22.522 24.838 79.393 79.393 0 0 1 10.246 31.922 79.39 79.39 0 0 1 15.329 29.822 79.495 79.495 0 0 1 1.638 33.486C509.564 233.473 512 244.691 512 256s-2.436 22.527-7.083 32.771a79.494 79.494 0 0 1-1.638 33.486 79.389 79.389 0 0 1-15.329 29.822 79.389 79.389 0 0 1-10.247 31.923 79.479 79.479 0 0 1-22.521 24.837 79.492 79.492 0 0 1-18.166 28.183 79.4 79.4 0 0 1-28.179 18.16 79.511 79.511 0 0 1-24.835 22.521 79.46 79.46 0 0 1-31.922 10.249 79.463 79.463 0 0 1-29.817 15.325 79.441 79.441 0 0 1-33.491 1.638A79.491 79.491 0 0 1 256 512z" opacity="1" data-original="#ffa400"/><circle cx="256" cy="256" r="191.733" fill="#194e57" opacity="1" data-original="#194e57"/><path fill="#003540" d="M256 64.267c105.722 0 191.733 86.012 191.733 191.733S361.722 447.733 256 447.733z" opacity="1" data-original="#003540"/><path fill="#ffe66f" d="M336.333 351.333H175.667a15 15 0 0 1-14.552-11.362l-32.133-128.533a15 15 0 0 1 21.261-17.054l51.842 25.921 41.054-68.423a15 15 0 0 1 25.724 0l41.054 68.423 51.843-25.921a14.999 14.999 0 0 1 21.26 17.054l-32.134 128.533a15.002 15.002 0 0 1-14.553 11.362z" opacity="1" data-original="#ffe66f"/><path fill="#ffc800" d="M336.333 351.333a15 15 0 0 0 14.552-11.362l32.134-128.533a14.999 14.999 0 0 0-21.26-17.054l-51.843 25.921-41.054-68.423A15 15 0 0 0 256 144.6v206.733z" opacity="1" data-original="#ffc800"/></g></svg>