<svg xmlns="http://www.w3.org/2000/svg" version="1.1" xmlns:xlink="http://www.w3.org/1999/xlink" x="0" y="0" viewBox="0 0 512 512" style="enable-background:new 0 0 512 512" xml:space="preserve"><g><path fill="#997ab8" d="M477.03 115.521v145.485c0 4.143-3.36 7.505-7.5 7.505h-39.75c-4.14 0-7.5-3.362-7.5-7.505V115.521c0-4.143 3.36-7.505 7.5-7.505h39.75c4.14 0 7.5 3.362 7.5 7.505z" opacity="1" data-original="#997ab8"/><path fill="#6957a1" d="M477.03 115.521v145.485c0 4.143-3.36 7.505-7.5 7.505h-39.75c-4.14 0-7.5-3.362-7.5-7.505v-28.459h16.11c11.37 0 20.58-9.216 20.58-20.593V108.016h10.56c4.14 0 7.5 3.362 7.5 7.505z" opacity="1" data-original="#6957a1"/><path fill="#c8d9e2" d="M437.28 74.804v185.961a7.499 7.499 0 0 1-7.5 7.505H344.7c-4.15 0-7.5-3.362-7.5-7.505V89.824a7.502 7.502 0 0 1 6.19-7.385l85.09-15.03a7.502 7.502 0 0 1 8.8 7.395z" opacity="1" data-original="#c8d9e2"/><g fill="#e6f8fc"><path d="M407.296 133.374a7.499 7.499 0 0 1-7.5 7.505h-62.6v-15.01h62.6c4.14 0 7.5 3.363 7.5 7.505zM407.296 167.597a7.499 7.499 0 0 1-7.5 7.505h-62.6v-15.01h62.6c4.14 0 7.5 3.362 7.5 7.505zM407.296 201.819a7.499 7.499 0 0 1-7.5 7.505h-62.6v-15.01h62.6c4.14 0 7.5 3.362 7.5 7.505z" fill="#e6f8fc" opacity="1" data-original="#e6f8fc"/></g><path fill="#a1adb4" d="M437.28 232.547v28.218a7.499 7.499 0 0 1-7.5 7.505H344.7c-4.15 0-7.5-3.362-7.5-7.505v-28.218z" opacity="1" data-original="#a1adb4"/><path fill="#c8d9e2" d="M88.93 115.521v145.485c0 4.143-3.36 7.505-7.5 7.505H41.68c-4.14 0-7.5-3.362-7.5-7.505V115.521c0-4.143 3.36-7.505 7.5-7.505h39.75c4.14 0 7.5 3.362 7.5 7.505z" opacity="1" data-original="#c8d9e2"/><path fill="#a1adb4" d="M34.18 232.547h54.75v28.459c0 4.143-3.36 7.505-7.5 7.505H41.68c-4.14 0-7.5-3.362-7.5-7.505z" opacity="1" data-original="#a1adb4"/><path fill="#ccc1e2" d="M136.144 36.304c-4.143 0-7.5 3.36-7.5 7.505v26.285c0 4.145 3.357 7.505 7.5 7.505s7.5-3.36 7.5-7.505V43.809a7.503 7.503 0 0 0-7.5-7.505z" opacity="1" data-original="#ccc1e2"/><path fill="#997ab8" d="M178.02 70.091v190.915c0 4.143-3.36 7.505-7.5 7.505H81.43c-4.15 0-7.5-3.362-7.5-7.505V70.091a7.499 7.499 0 0 1 7.5-7.505h89.09c4.14 0 7.5 3.363 7.5 7.505z" opacity="1" data-original="#997ab8"/><path fill="#6957a1" d="M73.93 232.547h104.09v28.459c0 4.143-3.36 7.505-7.5 7.505H81.43c-4.15 0-7.5-3.362-7.5-7.505z" opacity="1" data-original="#6957a1"/><path fill="#ccc1e2" d="M321.32 36.304c-4.143 0-7.5 3.36-7.5 7.505v26.285c0 4.145 3.357 7.505 7.5 7.505s7.5-3.36 7.5-7.505V43.809a7.503 7.503 0 0 0-7.5-7.505z" opacity="1" data-original="#ccc1e2"/><path fill="#f7775b" d="M352.19 70.091v190.915c0 4.143-3.36 7.505-7.5 7.505H255.6c-4.14 0-7.5-3.362-7.5-7.505V70.091c0-4.143 3.36-7.505 7.5-7.505h89.09c4.14 0 7.5 3.363 7.5 7.505z" opacity="1" data-original="#f7775b"/><path fill="#f25853" d="M352.19 232.547v28.459c0 4.143-3.36 7.505-7.5 7.505H255.6c-4.14 0-7.5-3.362-7.5-7.505v-28.459z" opacity="1" data-original="#f25853"/><g fill="#ffe26f"><path d="M321.32 93.844c-4.143 0-7.5 3.36-7.5 7.505v12.6c0 4.145 3.357 7.505 7.5 7.505s7.5-3.36 7.5-7.505v-12.6a7.502 7.502 0 0 0-7.5-7.505zM291.32 93.844c-4.143 0-7.5 3.36-7.5 7.505v12.6c0 4.145 3.357 7.505 7.5 7.505s7.5-3.36 7.5-7.505v-12.6a7.502 7.502 0 0 0-7.5-7.505zM321.32 141.871c-4.143 0-7.5 3.36-7.5 7.505v12.6c0 4.145 3.357 7.505 7.5 7.505s7.5-3.36 7.5-7.505v-12.6a7.503 7.503 0 0 0-7.5-7.505zM291.32 141.871c-4.143 0-7.5 3.36-7.5 7.505v12.6c0 4.145 3.357 7.505 7.5 7.505s7.5-3.36 7.5-7.505v-12.6a7.503 7.503 0 0 0-7.5-7.505zM328.82 201.434v59.572c0 4.143-3.36 7.505-7.5 7.505s-7.5-3.362-7.5-7.505v-59.572c0-4.143 3.36-7.505 7.5-7.505s7.5 3.362 7.5 7.505zM298.82 201.434v59.572c0 4.143-3.36 7.505-7.5 7.505s-7.5-3.362-7.5-7.505v-59.572c0-4.143 3.36-7.505 7.5-7.505s7.5 3.362 7.5 7.505z" fill="#ffe26f" opacity="1" data-original="#ffe26f"/></g><path fill="#c8d9e2" d="M263.1 7.511v253.495a7.499 7.499 0 0 1-7.5 7.505h-85.08c-4.15 0-7.5-3.362-7.5-7.505V22.53a7.502 7.502 0 0 1 6.19-7.385L254.3.115a7.503 7.503 0 0 1 8.8 7.396z" opacity="1" data-original="#c8d9e2"/><path fill="#a1adb4" d="M163.02 232.547H263.1v28.459a7.499 7.499 0 0 1-7.5 7.505h-85.08c-4.15 0-7.5-3.362-7.5-7.505z" opacity="1" data-original="#a1adb4"/><g fill="#ffe26f"><path d="M136.144 93.844c-4.143 0-7.5 3.36-7.5 7.505v12.6c0 4.145 3.357 7.505 7.5 7.505s7.5-3.36 7.5-7.505v-12.6a7.503 7.503 0 0 0-7.5-7.505zM106.144 93.844c-4.143 0-7.5 3.36-7.5 7.505v12.6c0 4.145 3.357 7.505 7.5 7.505s7.5-3.36 7.5-7.505v-12.6a7.503 7.503 0 0 0-7.5-7.505zM136.144 141.871c-4.143 0-7.5 3.36-7.5 7.505v12.6c0 4.145 3.357 7.505 7.5 7.505s7.5-3.36 7.5-7.505v-12.6a7.503 7.503 0 0 0-7.5-7.505zM106.144 141.871c-4.143 0-7.5 3.36-7.5 7.505v12.6c0 4.145 3.357 7.505 7.5 7.505s7.5-3.36 7.5-7.505v-12.6a7.503 7.503 0 0 0-7.5-7.505zM143.64 201.434v59.572a7.499 7.499 0 0 1-7.5 7.505c-4.14 0-7.5-3.362-7.5-7.505v-59.572c0-4.143 3.36-7.505 7.5-7.505 4.15 0 7.5 3.362 7.5 7.505zM113.64 201.434v59.572a7.499 7.499 0 0 1-7.5 7.505c-4.14 0-7.5-3.362-7.5-7.505v-59.572c0-4.143 3.36-7.505 7.5-7.505 4.15 0 7.5 3.362 7.5 7.505z" fill="#ffe26f" opacity="1" data-original="#ffe26f"/></g><g fill="#e6f8fc"><path d="M233.12 202.971a7.499 7.499 0 0 1-7.5 7.505h-62.6v-15.01h62.6c4.14 0 7.5 3.362 7.5 7.505zM233.12 66.081a7.499 7.499 0 0 1-7.5 7.505h-62.6v-15.01h62.6c4.14 0 7.5 3.363 7.5 7.505zM233.12 100.304a7.499 7.499 0 0 1-7.5 7.505h-62.6v-15.01h62.6c4.14 0 7.5 3.362 7.5 7.505zM233.12 134.526a7.499 7.499 0 0 1-7.5 7.505h-62.6v-15.01h62.6c4.14 0 7.5 3.363 7.5 7.505zM233.12 168.749a7.499 7.499 0 0 1-7.5 7.505h-62.6v-15.01h62.6c4.14 0 7.5 3.362 7.5 7.505z" fill="#e6f8fc" opacity="1" data-original="#e6f8fc"/></g><g fill="#ffc54b"><path d="M98.64 232.547h15v28.459a7.499 7.499 0 0 1-7.5 7.505c-4.14 0-7.5-3.362-7.5-7.505zM128.64 232.547h15v28.459a7.499 7.499 0 0 1-7.5 7.505c-4.14 0-7.5-3.362-7.5-7.505zM283.82 232.547h15v28.459c0 4.143-3.36 7.505-7.5 7.505s-7.5-3.362-7.5-7.505zM328.82 232.547v28.459c0 4.143-3.36 7.505-7.5 7.505s-7.5-3.362-7.5-7.505v-28.459z" fill="#ffc54b" opacity="1" data-original="#ffc54b"/></g><path fill="#7ac2ed" d="M482.282 261.006c0 74.639-36.04 140.862-91.66 182.189l-79.73 27.698-15.55-6.524-242.37-101.626a225.056 225.056 0 0 1-20.22-60.069l15.35-41.667h434.18z" opacity="1" data-original="#7ac2ed"/><path fill="#68a6dc" d="M482.282 261.006c0 74.639-36.04 140.862-91.66 182.189l-79.73 27.698-15.55-6.524c86.82-26.777 149.93-107.71 149.93-203.363z" opacity="1" data-original="#68a6dc"/><path fill="#d1e16f" d="M85.762 261.006c-7.98 18.942-22.51 35.433-53.01 41.667a227.957 227.957 0 0 1-3.82-41.667z" opacity="1" data-original="#d1e16f"/><g fill="#d0edf5"><path d="M40.358 496.99H7.501c-4.143 0-7.501 3.36-7.501 7.505S3.359 512 7.501 512h32.857c4.143 0 7.501-3.36 7.501-7.505s-3.358-7.505-7.501-7.505zM143.377 496.99H75.514c-4.143 0-7.501 3.36-7.501 7.505S71.371 512 75.514 512h67.863c4.143 0 7.501-3.36 7.501-7.505s-3.358-7.505-7.501-7.505zM27.505 479.978h62.862c4.143 0 7.501-3.36 7.501-7.505s-3.359-7.505-7.501-7.505H27.505c-4.143 0-7.501 3.36-7.501 7.505s3.358 7.505 7.501 7.505zM414.954 496.99h-62.862c-4.143 0-7.501 3.36-7.501 7.505S347.95 512 352.092 512h62.862c4.143 0 7.501-3.36 7.501-7.505s-3.359-7.505-7.501-7.505zM504.403 464.967h-92.868c-4.143 0-7.501 3.36-7.501 7.505s3.359 7.505 7.501 7.505h92.868c4.143 0 7.501-3.36 7.501-7.505s-3.358-7.505-7.501-7.505z" fill="#d0edf5" opacity="1" data-original="#d0edf5"/></g><path fill="#d1e16f" d="M296.162 321.796c-7.14 16.341-58.72 12.608-71.33 0-9.76-9.766-14.28-43.058-8.19-60.79h41.43c22.65 16.371 44.62 45.84 38.09 60.79zM390.617 443.192c-37.707 28.019-84.426 44.601-135.015 44.601-55.17 0-105.73-19.714-145.027-52.496a227.643 227.643 0 0 1-57.601-72.55c89.307 0 34.106-60.072 75.514-60.072 55.33 0 48.189 89.872 78.415 105.483 29.856 15.431 52.16-16.892 94.608-16.892 32.246 0 32.596 28.119 54.59 42.98 7.891 5.324 18.573 8.946 34.516 8.946z" opacity="1" data-original="#d1e16f"/><path fill="#9ccc4b" d="M356.101 434.246c7.891 5.324 18.573 8.946 34.516 8.946-37.707 28.019-84.426 44.601-135.015 44.601-55.17 0-105.73-19.714-145.027-52.496 34.536 24.257 76.614 38.487 122.023 38.487 46.049 0 88.687-14.651 123.503-39.538z" opacity="1" data-original="#9ccc4b"/><path fill="#e6f8fc" d="M511.905 370.266c0 10.595-8.594 19.193-19.183 19.193H390.773c-14.443 0-26.148-11.719-26.148-26.169 0-14.442 11.706-26.162 26.148-26.162 6.017 0 11.56 2.035 15.98 5.454 3.334-18.619 19.604-32.756 39.169-32.756 8.907 0 17.142 2.93 23.778 7.879 9.718 7.259 16.018 18.864 16.018 31.937 0 .933-.031 1.866-.092 2.784a19.165 19.165 0 0 1 7.095-1.354c10.59.001 19.184 8.591 19.184 19.194z" opacity="1" data-original="#e6f8fc"/><path fill="#d0edf5" d="M511.905 370.266c0 10.595-8.594 19.193-19.183 19.193H390.773c-14.443 0-26.148-11.719-26.148-26.169 0 7.183 8.877 13.655 16.048 13.655h56.724c21.156-.207 38.236-17.434 38.236-38.646 0-7.573-2.171-14.634-5.933-20.593 9.718 7.259 16.018 18.864 16.018 31.937 0 .933-.031 1.866-.092 2.784a19.165 19.165 0 0 1 7.095-1.354c10.59 0 19.184 8.59 19.184 19.193z" opacity="1" data-original="#d0edf5"/><path fill="#3a4b56" d="M504.5 253.259H7.5c-4.142 0-7.5 3.36-7.5 7.505s3.358 7.505 7.5 7.505h497c4.142 0 7.5-3.36 7.5-7.505s-3.358-7.505-7.5-7.505z" opacity="1" data-original="#3a4b56"/></g></svg>