<svg xmlns="http://www.w3.org/2000/svg" version="1.1" xmlns:xlink="http://www.w3.org/1999/xlink" x="0" y="0" viewBox="0 0 53 53" style="enable-background:new 0 0 512 512" xml:space="preserve" class="hovered-paths"><g><path fill="#fc6559" d="M40.54 4.398v8.94c0 .43-.14.84-.4 1.17l-3.65 4.66-1.87 2.39c-.36.46-.91.72-1.49.72H19.86c-.58 0-1.13-.26-1.49-.72l-1.87-2.38-3.65-4.67c-.26-.33-.4-.74-.4-1.17v-8.94c0-1.05.84-1.9 1.89-1.9h24.31c1.05 0 1.89.85 1.89 1.9z" opacity="1" data-original="#fc6559" class=""/><path fill="#f05543" d="M40.54 4.398v8.94c0 .43-.14.84-.4 1.17l-3.65 4.66-1.87 2.39c-.36.46-.91.72-1.49.72h-1.75c.58 0 1.13-.26 1.49-.72l1.87-2.39 3.65-4.66c.26-.33.4-.74.4-1.17v-8.94c0-1.05-.84-1.9-1.89-1.9h1.75c1.05 0 1.89.85 1.89 1.9z" opacity="1" data-original="#f05543" class="hovered-path"/><path fill="#f05543" d="m36.49 19.168-1.87 2.39c-.36.46-.91.72-1.49.72H19.86c-.58 0-1.13-.26-1.49-.72l-1.87-2.38c2.86-1.93 6.3-3.06 10-3.06 3.69 0 7.13 1.12 9.99 3.05z" opacity="1" data-original="#f05543" class="hovered-path"/><path fill="#e4e3ff" d="M21.81 2.498h9.369v19.779H21.81z" opacity="1" data-original="#e4e3ff" class=""/><path fill="#e4e3ff" d="M21.81 2.498h9.37v19.78h-9.37z" opacity="1" data-original="#e4e3ff" class=""/><path fill="#d0d0f7" d="M31.18 16.738v5.54h-9.37v-5.54c1.49-.4 3.07-.62 4.69-.62 1.61 0 3.19.22 4.68.62z" opacity="1" data-original="#d0d0f7" class=""/><path fill="#f9b938" d="M42.936 34.066c0 9.07-7.367 16.436-16.436 16.436-9.085 0-16.436-7.367-16.436-16.436 0-9.085 7.351-16.452 16.436-16.452 9.07 0 16.436 7.367 16.436 16.452z" opacity="1" data-original="#f9b938" class=""/><path fill="#ecb021" d="M26.5 46.786c-7.014 0-12.721-5.707-12.721-12.722 0-7.02 5.707-12.733 12.721-12.733s12.722 5.712 12.722 12.733c0 7.015-5.707 12.722-12.722 12.722zm0-24.12c-6.278 0-11.386 5.113-11.386 11.398 0 6.279 5.108 11.387 11.386 11.387s11.387-5.108 11.387-11.387c0-6.285-5.108-11.398-11.387-11.398z" opacity="1" data-original="#ecb021" class=""/><path fill="#e4e3ff" d="M32.067 34.505a1.282 1.282 0 0 0-.374 1.137l.537 3.073c.178 1.073-.943 1.869-1.902 1.381L27.58 38.65a1.263 1.263 0 0 0-1.203-.017l-2.78 1.463c-.943.504-2.064-.308-1.886-1.381l.537-3.073a1.297 1.297 0 0 0-.374-1.137l-2.227-2.179c-.764-.748-.341-2.064.715-2.21l3.089-.456a1.33 1.33 0 0 0 .991-.715l1.366-2.78a1.302 1.302 0 0 1 2.34 0l1.366 2.78c.195.39.569.65.992.715l3.072.456c1.057.146 1.496 1.462.715 2.21z" opacity="1" data-original="#e4e3ff" class=""/><path fill="#d0d0f7" d="M32.076 34.507c-.31.292-.457.712-.384 1.132l.53 3.068c.183 1.078-.932 1.882-1.9 1.389l-.255-.128c.365-.256.603-.731.511-1.26l-.53-3.069c-.073-.42.055-.84.366-1.132l2.228-2.174c.786-.749.347-2.063-.712-2.21l-3.068-.456a1.343 1.343 0 0 1-1.005-.73l-1.351-2.777a1.301 1.301 0 0 0-.347-.42 1.298 1.298 0 0 1 1.99.42l1.37 2.776c.183.402.566.658.986.73l3.068.457c1.06.147 1.498 1.461.713 2.21z" opacity="1" data-original="#d0d0f7" class=""/><g opacity=".3"><path fill="#ffffff" d="m22.813 33.505-1.443-1.412a.456.456 0 1 1 .638-.653l1.443 1.412a.456.456 0 1 1-.638.653zM23.615 38.43a.455.455 0 0 1-.37-.528l.354-2.025c.043-.248.264-.428.528-.37.248.042.416.28.371.527l-.355 2.025a.456.456 0 0 1-.528.37z" opacity="1" data-original="#ffffff" class=""/></g><g opacity=".3"><path fill="#ffffff" d="M32.144 47.6a.7.7 0 0 1 .331-.933 14.062 14.062 0 0 0 5.237-4.315.7.7 0 1 1 1.125.834 15.46 15.46 0 0 1-5.76 4.745.699.699 0 0 1-.933-.331zM39.269 41.274a.7.7 0 0 1-.31-.94c.148-.297.287-.6.417-.909a.7.7 0 0 1 1.291.543c-.141.338-.295.671-.459.995a.699.699 0 0 1-.94.31z" opacity="1" data-original="#ffffff" class=""/></g><g opacity=".3"><path fill="#ffffff" d="M21.062 20.435a.7.7 0 0 1-.33.933 14.062 14.062 0 0 0-5.238 4.315.7.7 0 1 1-1.125-.834 15.46 15.46 0 0 1 5.76-4.745.699.699 0 0 1 .933.331zM13.937 26.761a.7.7 0 0 1 .31.94c-.148.297-.287.6-.417.909a.7.7 0 0 1-1.291-.543c.141-.338.295-.67.459-.995a.699.699 0 0 1 .94-.31z" opacity="1" data-original="#ffffff" class=""/></g><path fill="#fff" d="m17.326 16.58-2.467-3.157a.748.748 0 0 1-.16-.462V8.718a.75.75 0 0 1 1.5 0v3.984l2.308 2.954a.75.75 0 0 1-1.181.923z" opacity=".3"/></g></svg>