<svg xmlns="http://www.w3.org/2000/svg" version="1.1" xmlns:xlink="http://www.w3.org/1999/xlink" x="0" y="0" viewBox="0 0 512 512" style="enable-background:new 0 0 512 512" xml:space="preserve"><g><path fill="#d8d6c1" d="M507 50v412c0 24.9-26.9 45-60 45H65c-33.1 0-60-20.1-60-45V50c0 24.9 26.9 45 60 45h382c33.1 0 60-20.1 60-45z" opacity="1" data-original="#d8d6c1"/><path fill="#399349" d="M507 80v352c0 24.9-26.9 45-60 45H65c-33.1 0-60-20.1-60-45V80c0 24.9 26.9 45 60 45h382c33.1 0 60-20.1 60-45z" opacity="1" data-original="#399349"/><path fill="#47b85c" d="M65 125c-33.1 0-60-20.1-60-45v352c0 14.1 8.6 26.6 22.1 34.9.8-1.8 21.9-44.6 91.8-50.6 71.4-6.2 217.4 62.9 270.2 0s-23.3-186.5 15.4-291.2H65z" opacity="1" data-original="#47b85c"/><path fill="#ffc970" d="M333.5 125c-34.5 80 73.9 197 11 255.3S104.2 331.6 65 365V125z" opacity="1" data-original="#ffc970"/><path fill="#ffb234" d="M65 246.5c24.4 62.2 188.9 145.5 235.1 94.3s2-169.7-68.2-215.8H65z" opacity="1" data-original="#ffb234"/><path fill="#ef8039" d="M90.6 156.7c-17.4 18.9 4.7 67.8 38.4 99.3 37.5 35 106.8 71.5 136.7 40.6s-21.1-98.8-51-120.2-98.4-47.5-124.1-19.7z" opacity="1" data-original="#ef8039"/><path fill="#e36415" d="M128 174.8c14.4-17.7 47 3.2 68.4 22.4s38.4 44.9 21.4 58.8-48.7-9-65.8-26.1-37.9-38-24-55.1z" opacity="1" data-original="#e36415"/><path fill="#2b6e38" d="M466.8 419.8c-6.9 42.2-50.1 55.9-54.6 57.2H447c33.1 0 60-20.1 60-45v-12.1z" opacity="1" data-original="#2b6e38"/><path fill="#ebebdf" d="M5 462c0-24.9 26.9-45 60-45V5C31.9 5 5 25.1 5 50zM507 462c0-24.9-26.9-45-60-45V5c33.1 0 60 20.1 60 45z" opacity="1" data-original="#ebebdf"/></g></svg>