<svg xmlns="http://www.w3.org/2000/svg" version="1.1" xmlns:xlink="http://www.w3.org/1999/xlink" x="0" y="0" viewBox="0 0 512 512" style="enable-background:new 0 0 512 512" xml:space="preserve"><g><path fill="#c8effe" d="M338.19 127.773h-30.332c-4.143 0-7.5-3.357-7.5-7.5s3.357-7.5 7.5-7.5h30.332c4.143 0 7.5 3.357 7.5 7.5s-3.357 7.5-7.5 7.5zM399.961 211.908a7.499 7.499 0 0 1-7.5-7.5V180.35c0-4.143 3.357-7.5 7.5-7.5s7.5 3.357 7.5 7.5v24.058c0 4.143-3.357 7.5-7.5 7.5zM173.749 212.456a7.499 7.499 0 0 1-7.5-7.5V182.32c0-4.143 3.357-7.5 7.5-7.5s7.5 3.357 7.5 7.5v22.636c0 4.143-3.357 7.5-7.5 7.5zM220.362 173.015H185c-4.143 0-7.5-3.357-7.5-7.5s3.357-7.5 7.5-7.5h35.362c4.143 0 7.5 3.357 7.5 7.5s-3.358 7.5-7.5 7.5zM221.022 384.228H98.264c-4.143 0-7.5 3.357-7.5 7.5s3.357 7.5 7.5 7.5h122.758c4.143 0 7.5-3.357 7.5-7.5s-3.358-7.5-7.5-7.5zM83.264 384.61a7.499 7.499 0 0 1-7.5-7.5v-85.952c0-4.143 3.357-7.5 7.5-7.5s7.5 3.357 7.5 7.5v85.952a7.5 7.5 0 0 1-7.5 7.5z" opacity="1" data-original="#c8effe"/><path fill="#a2e62e" d="M272.468 218.258H256c-4.143 0-7.5-3.357-7.5-7.5s3.357-7.5 7.5-7.5h16.468c4.143 0 7.5 3.357 7.5 7.5s-3.357 7.5-7.5 7.5zM272.468 173.015H256c-4.143 0-7.5-3.357-7.5-7.5s3.357-7.5 7.5-7.5h16.468c4.143 0 7.5 3.357 7.5 7.5s-3.357 7.5-7.5 7.5zM272.468 127.773H256c-4.143 0-7.5-3.357-7.5-7.5s3.357-7.5 7.5-7.5h16.468c4.143 0 7.5 3.357 7.5 7.5s-3.357 7.5-7.5 7.5zM272.468 82.53H256c-4.143 0-7.5-3.357-7.5-7.5s3.357-7.5 7.5-7.5h16.468c4.143 0 7.5 3.357 7.5 7.5s-3.357 7.5-7.5 7.5zM272.468 308.742H256c-4.143 0-7.5-3.357-7.5-7.5s3.357-7.5 7.5-7.5h16.468c4.143 0 7.5 3.357 7.5 7.5s-3.357 7.5-7.5 7.5zM272.468 353.986H256c-4.143 0-7.5-3.357-7.5-7.5s3.357-7.5 7.5-7.5h16.468c4.143 0 7.5 3.357 7.5 7.5s-3.357 7.5-7.5 7.5zM272.468 399.228H256c-4.143 0-7.5-3.357-7.5-7.5s3.357-7.5 7.5-7.5h16.468c4.143 0 7.5 3.357 7.5 7.5s-3.357 7.5-7.5 7.5zM272.468 444.471H256c-4.143 0-7.5-3.357-7.5-7.5s3.357-7.5 7.5-7.5h16.468c4.143 0 7.5 3.357 7.5 7.5s-3.357 7.5-7.5 7.5z" opacity="1" data-original="#a2e62e"/><path fill="#fe0364" d="M218.991 263.5a7.499 7.499 0 0 1-7.5-7.5v-16.468c0-4.143 3.357-7.5 7.5-7.5s7.5 3.357 7.5 7.5V256c0 4.143-3.357 7.5-7.5 7.5zM173.749 263.5a7.499 7.499 0 0 1-7.5-7.5v-16.468c0-4.143 3.357-7.5 7.5-7.5s7.5 3.357 7.5 7.5V256c0 4.143-3.357 7.5-7.5 7.5zM128.506 263.5a7.499 7.499 0 0 1-7.5-7.5v-16.468c0-4.143 3.357-7.5 7.5-7.5s7.5 3.357 7.5 7.5V256c0 4.143-3.357 7.5-7.5 7.5zM83.264 263.5a7.499 7.499 0 0 1-7.5-7.5v-16.468c0-4.143 3.357-7.5 7.5-7.5s7.5 3.357 7.5 7.5V256a7.5 7.5 0 0 1-7.5 7.5zM309.477 263.5a7.499 7.499 0 0 1-7.5-7.5v-16.468c0-4.143 3.357-7.5 7.5-7.5s7.5 3.357 7.5 7.5V256a7.5 7.5 0 0 1-7.5 7.5zM354.719 263.5a7.499 7.499 0 0 1-7.5-7.5v-16.468c0-4.143 3.357-7.5 7.5-7.5s7.5 3.357 7.5 7.5V256c0 4.143-3.357 7.5-7.5 7.5zM399.962 263.5a7.499 7.499 0 0 1-7.5-7.5v-16.468c0-4.143 3.357-7.5 7.5-7.5s7.5 3.357 7.5 7.5V256c0 4.143-3.357 7.5-7.5 7.5zM445.204 263.5a7.499 7.499 0 0 1-7.5-7.5v-16.468c0-4.143 3.357-7.5 7.5-7.5s7.5 3.357 7.5 7.5V256c0 4.143-3.357 7.5-7.5 7.5z" opacity="1" data-original="#fe0364"/><path fill="#bbec6c" d="M467.34 120.27c0 12.51-3.41 24.22-9.35 34.25H438l-96.06.01c-5.94-10.04-9.35-21.75-9.35-34.26 0-33.82 24.91-61.81 57.38-66.63 3.26-.49 6.6-.74 9.99-.74 37.21 0 67.38 30.16 67.38 67.37z" opacity="1" data-original="#bbec6c"/><path fill="#a2e62e" d="M467.34 120.27c0 12.51-3.41 24.22-9.35 34.25H438c5.94-10.03 9.35-21.74 9.35-34.25 0-33.81-24.91-61.8-57.38-66.63 3.26-.49 6.6-.74 9.99-.74 37.21 0 67.38 30.16 67.38 67.37z" opacity="1" data-original="#a2e62e"/><circle cx="399.961" cy="110.684" r="23.886" fill="#fccd7f" opacity="1" data-original="#fccd7f"/><path fill="#f7bf63" d="M423.85 110.68c0 13.2-10.7 23.89-23.89 23.89-3.9 0-7.58-.93-10.83-2.6 7.74-3.95 13.04-12 13.04-21.29 0-9.28-5.3-17.33-13.04-21.28 3.25-1.67 6.93-2.6 10.83-2.6 13.19 0 23.89 10.69 23.89 23.88z" opacity="1" data-original="#f7bf63"/><path fill="#fccd7f" d="M457.99 154.52a67.56 67.56 0 0 1-21.06 22.08c-10.61 6.99-23.32 11.05-36.97 11.05-3.39 0-6.72-.25-9.97-.74-20.47-3.03-37.94-15.28-48.05-32.38 3.31-11.53 13.94-19.96 26.54-19.96h62.97c4.91 0 9.52 1.28 13.51 3.53 6.26 3.51 11 9.39 13.03 16.42z" opacity="1" data-original="#fccd7f"/><path fill="#f7bf63" d="M457.99 154.52a67.56 67.56 0 0 1-21.06 22.08c-10.61 6.99-23.32 11.05-36.97 11.05-3.39 0-6.72-.25-9.97-.74 17.8-2.66 33.32-12.28 43.71-26 1.93-2.54 2.47-5.91 1.29-8.87-4.04-10.23-14.02-17.47-25.69-17.47h22.15c4.91 0 9.52 1.28 13.51 3.53 6.26 3.51 11 9.39 13.03 16.42z" opacity="1" data-original="#f7bf63"/><circle cx="83.264" cy="391.728" r="22.118" fill="#4f66d0" opacity="1" data-original="#4f66d0"/><path fill="#314dc9" d="M105.38 391.73c0 12.21-9.9 22.12-22.12 22.12-4.02 0-7.8-1.08-11.05-2.97 6.61-3.82 11.05-10.97 11.05-19.15 0-8.19-4.44-15.33-11.05-19.15 3.25-1.9 7.03-2.97 11.05-2.97 12.22 0 22.12 9.9 22.12 22.12z" opacity="1" data-original="#314dc9"/><circle cx="173.749" cy="165.515" r="22.118" fill="#fd3581" opacity="1" data-original="#fd3581"/><path fill="#fe0364" d="M195.87 165.51c0 12.22-9.91 22.12-22.12 22.12-4.03 0-7.81-1.07-11.06-2.97 6.61-3.81 11.06-10.96 11.06-19.15 0-8.18-4.45-15.33-11.06-19.14 3.25-1.89 7.03-2.97 11.06-2.97 12.21 0 22.12 9.9 22.12 22.11z" opacity="1" data-original="#fe0364"/><path fill="#bbec6c" d="M256 512a7.499 7.499 0 0 1-7.5-7.5V7.5c0-4.143 3.357-7.5 7.5-7.5s7.5 3.357 7.5 7.5v497c0 4.143-3.357 7.5-7.5 7.5z" opacity="1" data-original="#bbec6c"/><path fill="#bbec6c" d="M270.204 29.204a7.481 7.481 0 0 1-5.304-2.196l-8.9-8.901-8.9 8.901a7.5 7.5 0 0 1-10.607-10.607l14.204-14.204a7.502 7.502 0 0 1 10.607 0l14.204 14.204a7.5 7.5 0 0 1-5.304 12.803zM256 512a7.481 7.481 0 0 1-5.304-2.196L236.492 495.6a7.5 7.5 0 0 1 10.607-10.607l8.9 8.901 8.9-8.901a7.5 7.5 0 0 1 10.607 10.607l-14.204 14.204A7.473 7.473 0 0 1 256 512z" opacity="1" data-original="#bbec6c"/><path fill="#fd3581" d="M504.5 263.5H7.5c-4.143 0-7.5-3.357-7.5-7.5s3.357-7.5 7.5-7.5h497c4.143 0 7.5 3.357 7.5 7.5s-3.357 7.5-7.5 7.5z" opacity="1" data-original="#fd3581"/><path fill="#fd3581" d="M490.296 277.704a7.5 7.5 0 0 1-5.304-12.803l8.901-8.9-8.901-8.9a7.5 7.5 0 0 1 10.607-10.607l14.204 14.204a7.5 7.5 0 0 1 0 10.607L495.6 275.508a7.481 7.481 0 0 1-5.304 2.196zM21.704 277.704a7.481 7.481 0 0 1-5.304-2.196L2.197 261.304a7.5 7.5 0 0 1 0-10.607l14.204-14.204A7.5 7.5 0 0 1 27.008 247.1l-8.901 8.9 8.901 8.9a7.5 7.5 0 0 1-5.304 12.804z" opacity="1" data-original="#fd3581"/><path fill="#a2e62e" d="M218.038 82.147a7.497 7.497 0 0 1-6.279-3.399L200.44 61.412a7.499 7.499 0 0 1 2.179-10.38 7.499 7.499 0 0 1 10.38 2.179l5.03 7.703 4.95-7.604a7.497 7.497 0 0 1 10.377-2.193 7.499 7.499 0 0 1 2.193 10.377l-11.226 17.245a7.5 7.5 0 0 1-6.28 3.408h-.005z" opacity="1" data-original="#a2e62e"/><path fill="#a2e62e" d="M217.993 100.248h-.019a7.5 7.5 0 0 1-7.481-7.519l.045-18.102a7.5 7.5 0 0 1 7.5-7.481h.019a7.5 7.5 0 0 1 7.481 7.519l-.045 18.102a7.5 7.5 0 0 1-7.5 7.481z" opacity="1" data-original="#a2e62e"/><path fill="#fe0364" d="M458.571 327.757a7.49 7.49 0 0 1-6.141-3.186l-24.929-35.437a7.5 7.5 0 0 1 1.818-10.449 7.498 7.498 0 0 1 10.449 1.818l24.929 35.437a7.5 7.5 0 0 1-1.818 10.449 7.453 7.453 0 0 1-4.308 1.368z" opacity="1" data-original="#fe0364"/><path fill="#fe0364" d="M431.838 327.757c-1.492 0-3-.444-4.312-1.37a7.499 7.499 0 0 1-1.812-10.45l24.965-35.437a7.497 7.497 0 0 1 10.45-1.812 7.499 7.499 0 0 1 1.812 10.45l-24.965 35.437a7.488 7.488 0 0 1-6.138 3.182z" opacity="1" data-original="#fe0364"/><path fill="#4f66d0" d="M217.991 333.021c-10.884 0-19.739-8.855-19.739-19.739V293.71c0-10.884 8.855-19.739 19.739-19.739s19.739 8.855 19.739 19.739v19.572c.001 10.883-8.855 19.739-19.739 19.739zm0-44.051a4.744 4.744 0 0 0-4.739 4.739v19.572c0 2.613 2.126 4.739 4.739 4.739s4.739-2.126 4.739-4.739v-19.572a4.743 4.743 0 0 0-4.739-4.739z" opacity="1" data-original="#4f66d0"/></g></svg>