<svg xmlns="http://www.w3.org/2000/svg" version="1.1" xmlns:xlink="http://www.w3.org/1999/xlink" x="0" y="0" viewBox="0 0 68 68" style="enable-background:new 0 0 512 512" xml:space="preserve" class=""><g><path fill="#e8edf2" d="M53.588 44.532 47.356 55.96H20.633l-6.22-11.428a5.275 5.275 0 0 1 .263-5.493l14.967-21.96c2.091-3.072 6.633-3.072 8.725 0l14.956 21.95a5.295 5.295 0 0 1 .264 5.503z" opacity="1" data-original="#e8edf2" class=""/><path fill="#c4d3e4" d="M53.324 39.028 38.368 17.08A5.237 5.237 0 0 0 34 14.775V55.96h13.356l6.232-11.428a5.295 5.295 0 0 0-.264-5.504z" opacity="1" data-original="#c4d3e4"/><path fill="#108be1" d="M55 60.31c0 1.51-.61 2.89-1.6 3.88-1 .99-2.36 1.6-3.88 1.6H18.48c-3.03 0-5.48-2.45-5.48-5.48 0-1.51.61-2.88 1.6-3.87 1-1 2.36-1.61 3.88-1.61l31.04.01c3.03 0 5.48 2.45 5.48 5.47z" opacity="1" data-original="#108be1"/><path fill="#0c6bc3" d="M13.001 60.335a5.475 5.475 0 0 0 5.479 5.455h31.04c1.52 0 2.88-.61 3.88-1.6a5.478 5.478 0 0 0 1.599-3.855H13z" opacity="1" data-original="#0c6bc3"/><path fill="#fabb53" d="M61.69 6.71a2 2 0 0 1-2 2H46.68c3.01 1.96 5.59 4.58 7.5 7.67a24.34 24.34 0 0 1 2.64 5.9 2 2 0 0 1-3.84 1.12c-.56-1.92-1.4-3.71-2.46-5.34-2.66-4.07-6.71-7.1-11.37-8.5-1.86-.55-3.82-.85-5.83-.85s-3.97.3-5.83.85c-4.66 1.4-8.71 4.43-11.37 8.5a20.12 20.12 0 0 0-2.46 5.34 2 2 0 0 1-3.84-1.12 24.34 24.34 0 0 1 2.64-5.9 24.63 24.63 0 0 1 7.5-7.67H6.94c-1.1 0-2-.9-2-2s.9-2 2-2h52.75a2 2 0 0 1 2 2z" opacity="1" data-original="#fabb53"/><path fill="#f99944" d="M16.12 18.06a20.12 20.12 0 0 0-2.46 5.34 2 2 0 0 1-3.84-1.12 24.34 24.34 0 0 1 2.64-5.9c1.4.16 2.68.76 3.66 1.68z" opacity="1" data-original="#f99944"/><circle cx="11.74" cy="22.84" r="4.5" fill="#e9293a" opacity="1" data-original="#e9293a"/><path fill="#d42032" d="M11.833 18.35v8.98a4.494 4.494 0 0 0 4.407-4.49 4.494 4.494 0 0 0-4.407-4.49z" opacity="1" data-original="#d42032" class=""/><path fill="#f99944" d="M55.46 24.76a1.995 1.995 0 0 1-2.48-1.36c-.56-1.92-1.4-3.71-2.46-5.34.98-.92 2.26-1.52 3.66-1.68a24.34 24.34 0 0 1 2.64 5.9 2 2 0 0 1-1.36 2.48z" opacity="1" data-original="#f99944"/><circle cx="54.9" cy="22.84" r="4.5" fill="#e9293a" opacity="1" data-original="#e9293a"/><path fill="#f99944" d="M61.69 6.71a2 2 0 0 1-2 2h-4.38v-4h4.38a2 2 0 0 1 2 2z" opacity="1" data-original="#f99944"/><path fill="#e9293a" d="M66.06 4.36v4.7c0 1.19-.96 2.15-2.14 2.15h-4.46c-1.18 0-2.15-.96-2.15-2.15v-4.7c0-1.19.97-2.15 2.15-2.15h4.46c1.18 0 2.14.96 2.14 2.15z" opacity="1" data-original="#e9293a"/><path fill="#d42032" d="M57.31 6.543V9.06c0 1.19.97 2.15 2.15 2.15h4.46c1.18 0 2.14-.96 2.14-2.15V6.543z" opacity="1" data-original="#d42032" class=""/><path fill="#f99944" d="M12.7 4.71v4H6.94c-1.1 0-2-.9-2-2s.9-2 2-2z" opacity="1" data-original="#f99944"/><path fill="#e9293a" d="M10.7 4.36v4.7c0 1.19-.97 2.15-2.15 2.15H4.09c-1.18 0-2.15-.96-2.15-2.15v-4.7c0-1.19.97-2.15 2.15-2.15h4.46c1.18 0 2.15.96 2.15 2.15z" opacity="1" data-original="#e9293a"/><path fill="#454545" d="M39.81 37.71c0 3.21-2.6 5.81-5.81 5.81a5.809 5.809 0 0 1-2.31-11.14V15.31c.73-.35 1.52-.53 2.31-.53.05 0 .09 0 .13.01.17-.01.35.01.52.03.18.02.36.05.53.09.39.09.77.23 1.13.4v17.07c2.06.89 3.5 2.94 3.5 5.33z" opacity="1" data-original="#454545"/><path fill="#f99944" d="M39.82 6.71c0 1.02-.24 1.99-.67 2.85-1.86-.55-3.82-.85-5.83-.85s-3.97.3-5.83.85c-.43-.86-.67-1.83-.67-2.85 0-.7.11-1.37.32-2H39.5c.21.63.32 1.3.32 2z" opacity="1" data-original="#f99944"/><circle cx="33.32" cy="6.71" r="4.5" fill="#e9293a" opacity="1" data-original="#e9293a"/><path fill="#d42032" d="M33.5 2.228v8.964c2.4-.097 4.32-2.058 4.32-4.482S35.9 2.325 33.5 2.228z" opacity="1" data-original="#d42032" class=""/><path fill="#2c2c2c" d="M39.81 37.71c0 3.21-2.6 5.81-5.81 5.81V14.78c.05 0 .09 0 .13.01.17-.01.35.01.52.03.18.02.36.05.53.09.39.08.77.21 1.13.4v17.07c2.06.89 3.5 2.94 3.5 5.33z" opacity="1" data-original="#2c2c2c"/><path fill="#d42032" d="M1.945 6.543V9.06c0 1.19.97 2.15 2.15 2.15h4.46c1.18 0 2.14-.96 2.14-2.15V6.543zM54.993 18.35v8.98a4.494 4.494 0 0 0 4.407-4.49 4.494 4.494 0 0 0-4.407-4.49z" opacity="1" data-original="#d42032" class=""/><path fill="#4db6ff" d="M47.29 57.25c0 .76-.61 1.38-1.37 1.38h-6.5c-.76 0-1.38-.62-1.38-1.38s.62-1.37 1.38-1.37h6.5c.76 0 1.37.61 1.37 1.37z" opacity="1" data-original="#4db6ff"/><path fill="#ffffff" d="M27.619 26.712a1.99 1.99 0 0 1 .496 2.77l-5.402 7.704a2.002 2.002 0 0 1-2.782.488 1.99 1.99 0 0 1-.477-2.774l5.402-7.703a1.977 1.977 0 0 1 2.763-.485z" opacity="1" data-original="#ffffff"/></g></svg>