<svg xmlns="http://www.w3.org/2000/svg" version="1.1" xmlns:xlink="http://www.w3.org/1999/xlink" x="0" y="0" viewBox="0 0 512 512" style="enable-background:new 0 0 512 512" xml:space="preserve" class=""><g><path fill="#ffd15b" d="M341.278 210.704c-9.624 0-18.242-4.976-23.054-13.311-4.812-8.334-4.812-18.286 0-26.62l48.743-84.426c-38.852-32.921-89.117-52.786-144.03-52.786C99.812 33.561 0 133.373 0 256.498s99.812 222.937 222.937 222.937 222.937-99.812 222.937-222.937c0-15.698-1.631-31.013-4.717-45.794z" opacity="1" data-original="#ffd15b" class=""/><path fill="#ffc344" d="M398.61 211.735a223.855 223.855 0 0 1 4.511 44.764c0 115.913-88.466 211.151-201.561 221.912 7.036.67 14.164 1.025 21.376 1.025 123.125 0 222.937-99.812 222.937-222.937 0-15.332-1.55-30.302-4.497-44.764zM350.55 112.722l15.618-27.051c-38.741-32.517-88.694-52.11-143.231-52.11-7.212 0-14.34.356-21.376 1.025 59.632 5.674 112.409 34.842 148.989 78.136z" opacity="1" data-original="#ffc344"/><path fill="#838383" d="M293.525 86.187c-21.742-9.023-45.582-14.009-70.588-14.009s-48.846 4.986-70.588 14.009c-4.538 1.884-6.431 7.288-3.974 11.543l54.208 93.892c6.43-2.022 13.266-3.115 20.354-3.115s13.925 1.094 20.354 3.115l54.208-93.892c2.457-4.256.565-9.66-3.974-11.543z" opacity="1" data-original="#838383"/><path fill="#5a5a5a" d="M293.525 86.187c-21.742-9.023-45.582-14.009-70.588-14.009s-48.846 4.986-70.588 14.009a8.239 8.239 0 0 0-1.965 1.167 184.831 184.831 0 0 1 40.272-4.424c25.006 0 48.846 4.986 70.588 14.009 4.539 1.884 6.431 7.288 3.974 11.543l-46.276 80.153a68.66 68.66 0 0 1 3.994-.129 67.765 67.765 0 0 1 20.354 3.115l54.208-93.892c2.458-4.255.566-9.659-3.973-11.542z" opacity="1" data-original="#5a5a5a" class=""/><path fill="#838383" d="M397.69 271.309H289.284c-3.073 13.771-10.323 25.981-20.361 35.216l54.209 93.893c2.46 4.261 8.094 5.317 11.995 2.32 37.907-29.123 64.169-72.647 70.596-122.394.62-4.801-3.192-9.035-8.033-9.035z" opacity="1" data-original="#838383"/><path fill="#5a5a5a" d="M397.69 271.309h-17.41c-6.555 46.417-30.396 87.266-64.807 115.843l7.659 13.266c2.46 4.261 8.094 5.317 11.995 2.32 37.907-29.123 64.169-72.647 70.596-122.394.62-4.801-3.192-9.035-8.033-9.035z" opacity="1" data-original="#5a5a5a" class=""/><path fill="#838383" d="M156.589 271.309H48.184c-4.841 0-8.653 4.233-8.033 9.035 6.427 49.747 32.689 93.271 70.596 122.394 3.901 2.997 9.535 1.941 11.995-2.32l54.209-93.893c-10.039-9.234-17.289-21.444-20.362-35.216z" opacity="1" data-original="#838383"/><path fill="#5a5a5a" d="m163.022 288.579-39.673 68.715c-2.46 4.261-8.094 5.317-11.995 2.32-28.955-22.246-51.103-52.899-62.819-88.305h-.351c-4.841 0-8.653 4.233-8.033 9.035 6.427 49.747 32.689 93.271 70.596 122.394 3.901 2.997 9.535 1.941 11.995-2.32l54.209-93.893a68.3 68.3 0 0 1-13.929-17.946z" opacity="1" data-original="#5a5a5a" class=""/><circle cx="222.937" cy="256.498" r="69.022" fill="#fff0ad" opacity="1" data-original="#fff0ad"/><path fill="#ffe177" d="M222.937 187.476c-5.482 0-10.807.658-15.919 1.866 30.442 7.19 53.103 34.518 53.103 67.156s-22.661 59.966-53.103 67.156a69.138 69.138 0 0 0 15.919 1.866c38.12 0 69.022-30.902 69.022-69.022s-30.902-69.022-69.022-69.022z" opacity="1" data-original="#ffe177"/><circle cx="222.937" cy="256.498" r="28.33" fill="#838383" opacity="1" data-original="#838383"/><path fill="#5a5a5a" d="M222.937 228.168c-3.715 0-7.26.722-10.511 2.023 10.44 4.175 17.819 14.376 17.819 26.307s-7.379 22.132-17.819 26.307a28.244 28.244 0 0 0 10.511 2.023c15.646 0 28.33-12.684 28.33-28.33s-12.684-28.33-28.33-28.33z" opacity="1" data-original="#5a5a5a" class=""/><path fill="#fe646f" d="m388.846 46.39-71.515 123.868c-10.643 18.434 2.661 41.476 23.946 41.476h143.031c21.286 0 34.589-23.042 23.946-41.476L436.739 46.39c-10.643-18.434-37.25-18.434-47.893 0z" opacity="1" data-original="#fe646f" class=""/><path fill="#fd4755" d="M508.254 170.258 436.739 46.39c-8.589-14.876-27.57-17.739-40.172-8.606 3.014 2.184 5.667 5.048 7.721 8.606l71.515 123.868c10.643 18.434-2.661 41.476-23.946 41.476h32.451c21.286.001 34.589-23.042 23.946-41.476z" opacity="1" data-original="#fd4755" class=""/><path fill="#ffffff" d="M412.793 141.378a7.5 7.5 0 0 1-7.5-7.5V84.357c0-4.142 3.357-7.5 7.5-7.5s7.5 3.358 7.5 7.5v49.521c0 4.143-3.357 7.5-7.5 7.5zM412.793 177.868a7.5 7.5 0 0 1-7.5-7.5v-5.213c0-4.142 3.357-7.5 7.5-7.5s7.5 3.358 7.5 7.5v5.213a7.5 7.5 0 0 1-7.5 7.5z" opacity="1" data-original="#ffffff"/></g></svg>