<svg xmlns="http://www.w3.org/2000/svg" version="1.1" xmlns:xlink="http://www.w3.org/1999/xlink" x="0" y="0" viewBox="0 0 512 512" style="enable-background:new 0 0 512 512" xml:space="preserve"><g><path fill="#ff641a" d="M512 346c0 5.099-2.701 9.899-6.899 12.599l-241 151c-2.701 1.5-5.4 2.401-8.101 2.401s-5.4-.901-8.101-2.401l-241-151C2.701 355.899 0 351.099 0 346c0-5.101 2.701-9.901 6.899-12.601l73.001-45h352.2l73.001 45c4.198 2.7 6.899 7.5 6.899 12.601z" opacity="1" data-original="#ff641a"/><path fill="#f03800" d="M512 346c0 5.099-2.701 9.899-6.899 12.599l-241 151c-2.701 1.5-5.4 2.401-8.101 2.401V288.399h176.1l73.001 45c4.198 2.7 6.899 7.5 6.899 12.601z" opacity="1" data-original="#f03800"/><path fill="#5ecef4" d="M512 256c0 5.099-2.701 9.899-6.899 12.599L481 282.999 465.099 262.9 451 301.9l-30 18.6-12.001-22.5L391 339.399l-30 18.6-12.9-21.899-17.1 40.8-30 18.6-17.701-18.9L271 414.399l-6.899 4.2c-2.701 1.5-5.4 2.401-8.101 2.401s-5.4-.901-8.101-2.401l-6.899-4.2-14.099-39-15.901 20.1-30-18.6L165.399 337 151 357.999l-30-18.6L107.8 301 91 320.499l-30-18.6L49.9 265 31 282.999l-24.101-14.4C2.701 265.899 0 261.099 0 256c0-5.101 2.701-9.901 6.899-12.601L31 228.999l15.601 20.099 14.399-39 18.9-11.7H91l13.2 30 16.8-30h30l18.9 30 11.1-30h30l15 30 15-30h30l14.099 30 15.901-30h30l15.901 30 14.099-30h30l15 30 15-30h11.1l18.9 11.7 13.5 38.701 16.5-19.801 24.101 14.399C509.299 246.099 512 250.899 512 256z" opacity="1" data-original="#5ecef4"/><g fill="#27b2eb"><path d="M512 256c0 5.099-2.701 9.899-6.899 12.599L481 282.999 465.099 262.9 451 301.9l-30 18.6-12.001-22.5L391 339.399l-30 18.6-12.9-21.899-17.1 40.8-30 18.6-17.701-18.9L271 414.399l-6.899 4.2c-2.701 1.5-5.4 2.401-8.101 2.401V198.399h15l14.099 30 15.901-30h30l15.901 30 14.099-30h30l15 30 15-30h11.1l18.9 11.7 13.5 38.701 16.5-19.801 24.101 14.399C509.299 246.099 512 250.899 512 256zM91 198.285v122.276l30 18.75V198.285zM31 228.939v54.122l30 18.75v-91.624zM151 198.285v159.776l30 18.75V198.285zM211 198.285v197.276l30 18.75V198.285z" fill="#27b2eb" opacity="1" data-original="#27b2eb"/></g><path fill="#0095ff" d="M271 198.285v216.026l30-18.75V198.285zM331 198.285v178.526l30-18.75V198.285zM391 198.285v141.026l30-18.75V198.285zM451 210.187v91.624l30-18.75v-54.122z" opacity="1" data-original="#0095ff"/><path fill="#ffda2d" d="m505.101 153.399-241-151C261.4.599 258.701 0 256 0s-5.4.599-8.101 2.399l-241 151C2.701 156.099 0 160.899 0 166c0 5.099 2.701 9.899 6.899 12.599l241 150c2.701 1.5 5.4 2.401 8.101 2.401s5.4-.901 8.101-2.401l241-150C509.3 175.898 512 171.099 512 166c0-5.101-2.701-9.901-6.899-12.601z" opacity="1" data-original="#ffda2d"/><path fill="#fdbf00" d="M512 166c0 5.099-2.701 9.899-6.899 12.599l-241 150c-2.701 1.5-5.4 2.401-8.101 2.401V0c2.701 0 5.4.599 8.101 2.399l241 151c4.198 2.7 6.899 7.5 6.899 12.601z" opacity="1" data-original="#fdbf00"/></g></svg>