<svg xmlns="http://www.w3.org/2000/svg" version="1.1" xmlns:xlink="http://www.w3.org/1999/xlink" x="0" y="0" viewBox="0 0 512 512" style="enable-background:new 0 0 512 512" xml:space="preserve"><g><path d="M82.709 182.953H15c-8.284 0-15-6.716-15-15v-45.411c0-8.284 6.716-15 15-15h67.709c8.284 0 15 6.716 15 15v45.411c0 8.284-6.716 15-15 15z" style="" fill="#c745a3" data-original="#c745a3"/><path d="M49.773 107.542H15c-8.284 0-15 6.716-15 15v45.411c0 8.284 6.716 15 15 15h34.773v-75.411z" style="" fill="#ff5ca5" data-original="#ff5ca5"/><path d="M82.709 293.706H15c-8.284 0-15-6.716-15-15v-45.411c0-8.284 6.716-15 15-15h67.709c8.284 0 15 6.716 15 15v45.411c0 8.284-6.716 15-15 15z" style="" fill="#ffae42" data-original="#ffae42"/><path d="M49.773 218.294H15c-8.284 0-15 6.716-15 15v45.411c0 8.284 6.716 15 15 15h34.773v-75.411z" style="" fill="#ffdf63" data-original="#ffdf63"/><path d="M82.709 404.458H15c-8.284 0-15-6.716-15-15v-45.411c0-8.284 6.716-15 15-15h67.709c8.284 0 15 6.716 15 15v45.411c0 8.284-6.716 15-15 15z" style="" fill="#c745a3" data-original="#c745a3"/><path d="M49.773 329.047H15c-8.284 0-15 6.716-15 15v45.411c0 8.284 6.716 15 15 15h34.773v-75.411z" style="" fill="#ff5ca5" data-original="#ff5ca5"/><path d="M497 182.953H156.797c-8.284 0-15-6.716-15-15v-45.411c0-8.284 6.716-15 15-15H497c8.284 0 15 6.716 15 15v45.411c0 8.284-6.716 15-15 15z" style="" fill="#ffae42" data-original="#ffae42"/><path d="M326.898 107.542H156.797c-8.284 0-15 6.716-15 15v45.411c0 8.284 6.716 15 15 15h170.102l-.001-75.411z" style="" fill="#ffdf63" data-original="#ffdf63"/><path d="M497 293.706H156.797c-8.284 0-15-6.716-15-15v-45.411c0-8.284 6.716-15 15-15H497c8.284 0 15 6.716 15 15v45.411c0 8.284-6.716 15-15 15z" style="" fill="#c745a3" data-original="#c745a3"/><path d="M326.898 218.294H156.797c-8.284 0-15 6.716-15 15v45.411c0 8.284 6.716 15 15 15h170.102l-.001-75.411z" style="" fill="#ff5ca5" data-original="#ff5ca5"/><path d="M497 404.458H156.797c-8.284 0-15-6.716-15-15v-45.411c0-8.284 6.716-15 15-15H497c8.284 0 15 6.716 15 15v45.411c0 8.285-6.716 15-15 15z" style="" fill="#ffae42" data-original="#ffae42"/><path d="M326.898 329.047H156.797c-8.284 0-15 6.716-15 15v45.411c0 8.284 6.716 15 15 15h170.102l-.001-75.411z" style="" fill="#ffdf63" data-original="#ffdf63"/></g></svg>