<?xml version="1.0" encoding="UTF-8"?>
<svg id="Layer_1" data-name="Layer 1" xmlns="http://www.w3.org/2000/svg" version="1.1" viewBox="0 0 512 512">
  <defs>
    <style>
      .cls-1 {
        fill: #28a745;
      }

      .cls-1, .cls-2, .cls-3, .cls-4, .cls-5, .cls-6, .cls-7, .cls-8, .cls-9, .cls-10 {
        stroke-width: 0px;
      }

      .cls-2 {
        fill: #5a7380;
      }

      .cls-3 {
        fill: #dc3545;
      }

      .cls-4 {
        fill: #475e66;
      }

      .cls-5 {
        fill: #1e5d2d;
      }

      .cls-6 {
        fill: #d1baff;
      }

      .cls-7 {
        fill: #99182c;
      }

      .cls-8 {
        fill: #a9f;
      }

      .cls-9 {
        fill: #d9e5ff;
      }

      .cls-10 {
        fill: #ecf2ff;
      }
    </style>
  </defs>
  <polygon class="cls-1" points="204.8 51.2 226 72.4 241 57.4 241 121 271 121 271 57.4 286 72.4 307.2 51.2 256 0 204.8 51.2"/>
  <polygon class="cls-3" points="271 454.6 271 391 241 391 241 454.6 226 439.6 204.8 460.8 256 512 307.2 460.8 286 439.6 271 454.6"/>
  <polygon class="cls-3" points="121 61 121 31 31 31 31 121 61 121 61 82.2 125.4 146.6 146.6 125.4 82.2 61 121 61"/>
  <path class="cls-1" d="M391,31v30h38.8l-64.4,64.4,21.2,21.2,64.4-64.4v38.8h30V31h-90Z"/>
  <path class="cls-1" d="M125.4,365.4l-64.4,64.4v-38.8h-30v90h90v-30h-38.8l64.4-64.4-21.2-21.2Z"/>
  <path class="cls-3" d="M451,429.8l-64.4-64.4-21.2,21.2,64.4,64.4h-38.8v30h90v-90h-30v38.8Z"/>
  <path class="cls-9" d="M473.6,256c-48.1-42.5-116.5-105-217.6-105v210c99.8,0,164-57.7,217.6-105h0Z"/>
  <g>
    <path class="cls-10" d="M256,361c-101,0-169.4-62.5-217.6-105,53.5-47.3,117.7-105,217.6-105s169.4,62.5,217.6,105c-53.5,47.3-117.7,105-217.6,105Z"/>
    <path class="cls-6" d="M256,361c-57.9,0-105-47.1-105-105s47.1-105,105-105,105,47.1,105,105-47.1,105-105,105Z"/>
    <path class="cls-8" d="M361,256c0-57.9-47.1-105-105-105v210c57.9,0,105-47.1,105-105Z"/>
    <path class="cls-2" d="M256,301c-24.8,0-45-20.2-45-45s20.2-45,45-45,45,20.2,45,45-20.2,45-45,45Z"/>
  </g>
  <path class="cls-4" d="M301,256c0-24.8-20.2-45-45-45v90c24.8,0,45-20.2,45-45Z"/>
  <polygon class="cls-7" points="271 454.6 271 391 256 391 256 512 307.2 460.8 286 439.6 271 454.6"/>
  <polygon class="cls-5" points="271 121 271 57.4 286 72.4 307.2 51.2 256 0 256 121 271 121"/>
</svg>