<svg xmlns="http://www.w3.org/2000/svg" version="1.1" xmlns:xlink="http://www.w3.org/1999/xlink" x="0" y="0" viewBox="0 0 58 58" style="enable-background:new 0 0 512 512" xml:space="preserve" class=""><g><g fill="none" fill-rule="nonzero"><path fill="#f0c419" d="M52.65 55.97 2.03 5.35A1.189 1.189 0 0 0 0 6.19v50.62A1.186 1.186 0 0 0 1.19 58h50.62a1.189 1.189 0 0 0 .84-2.03zM10 47.5V28.667a.5.5 0 0 1 .854-.353l18.832 18.832a.5.5 0 0 1-.353.854H10.5a.5.5 0 0 1-.5-.5z" opacity="1" data-original="#f0c419"/><g fill="#b19046"><path d="M9 55v3H7v-3a1 1 0 0 1 2 0zM15 55v3h-2v-3a1 1 0 0 1 2 0zM21 55v3h-2v-3a1 1 0 0 1 2 0zM27 55v3h-2v-3a1 1 0 0 1 2 0zM33 55v3h-2v-3a1 1 0 0 1 2 0zM39 55v3h-2v-3a1 1 0 0 1 2 0zM45 55v3h-2v-3a1 1 0 0 1 2 0zM4 20a1 1 0 0 1-1 1H0v-2h3a1 1 0 0 1 1 1zM4 14a1 1 0 0 1-1 1H0v-2h3a1 1 0 0 1 1 1zM4 26a1 1 0 0 1-1 1H0v-2h3a1 1 0 0 1 1 1zM4 32a1 1 0 0 1-1 1H0v-2h3a1 1 0 0 1 1 1zM4 38a1 1 0 0 1-1 1H0v-2h3a1 1 0 0 1 1 1zM4 44a1 1 0 0 1-1 1H0v-2h3a1 1 0 0 1 1 1zM4 50a1 1 0 0 1-1 1H0v-2h3a1 1 0 0 1 1 1z" fill="#b19046" opacity="1" data-original="#b19046"/></g><path fill="#f29c1f" d="M58 1.19v50.62a1.189 1.189 0 0 1-2.03.84L5.35 2.03A1.189 1.189 0 0 1 6.19 0h50.62A1.186 1.186 0 0 1 58 1.19z" opacity="1" data-original="#f29c1f" class=""/><path fill="#d25627" d="M58 1.19v.23L31.37 28.05l-1.42-1.42L56.58 0h.23A1.186 1.186 0 0 1 58 1.19zM58 11.58v2.84L37.87 34.55l-1.42-1.42zM58 24.58v2.84L44.37 41.05l-1.42-1.42zM58 37.58v2.84l-7.13 7.13-1.42-1.42zM46.42 0 24.87 21.55l-1.42-1.42L43.58 0zM33.41 0a.176.176 0 0 1-.04.05l-15 15-1.42-1.42L30.58 0zM20.42 0l-8.55 8.55-1.42-1.42L17.58 0z" opacity="1" data-original="#d25627"/></g></g></svg>