<svg xmlns="http://www.w3.org/2000/svg" version="1.1" xmlns:xlink="http://www.w3.org/1999/xlink" x="0" y="0" viewBox="0 0 512 512" style="enable-background:new 0 0 512 512" xml:space="preserve"><g><linearGradient id="a" x1="254.809" x2="254.809" y1="316.493" y2="170.893" gradientTransform="matrix(1.0039 0 0 -1.0039 .192 516.562)" gradientUnits="userSpaceOnUse"><stop offset="0" style="stop-color:#4D4D4D" stop-color="#4d4d4d"/><stop offset="1" style="stop-color:#333333" stop-color="#333333"/></linearGradient><path d="M442.815 299.521H69.185V150.6c0-10.136 8.216-18.352 18.352-18.352h336.925c10.136 0 18.352 8.216 18.352 18.352l.001 148.921z" style="fill:url(#a);" fill="currentColor"/><linearGradient id="b" x1="447.249" x2="331.039" y1="263.284" y2="379.484" gradientTransform="matrix(1.0039 0 0 -1.0039 .192 516.562)" gradientUnits="userSpaceOnUse"><stop offset="0" style="stop-color:#4D4D4D;stop-opacity:0" stop-color="#4d4d4d;stop-opacity:0"/><stop offset="1" style="stop-color:#000000" stop-color="#000000"/></linearGradient><path d="m442.815 153.569-21.322-21.321h-17.324v167.273h38.646z" style="fill:url(#b);" fill="currentColor"/><linearGradient id="c" x1="254.809" x2="254.809" y1="151.203" y2="998.053" gradientTransform="matrix(1.0039 0 0 -1.0039 .192 516.562)" gradientUnits="userSpaceOnUse"><stop offset="0" style="stop-color:#FFF2EB" stop-color="#fff2eb"/><stop offset="1" style="stop-color:#F1DACB" stop-color="#f1dacb"/></linearGradient><path d="M311.602 12.293H112.46c-12.039 0-21.799 9.76-21.799 21.799v372.041c0 12.039 9.76 21.799 21.799 21.799h287.08c12.039 0 21.799-9.76 21.799-21.799v-289.81a12.7 12.7 0 0 0-3.653-8.914l-85.037-86.306a29.544 29.544 0 0 0-21.047-8.81z" style="fill:url(#c);" fill="currentColor"/><linearGradient id="d" x1="443.476" x2="308.626" y1="338.411" y2="473.271" gradientTransform="matrix(1.0039 0 0 -1.0039 .192 516.562)" gradientUnits="userSpaceOnUse"><stop offset="0" style="stop-color:#FFF2EB;stop-opacity:0" stop-color="#fff2eb;stop-opacity:0"/><stop offset="1" style="stop-color:#D3B4A0" stop-color="#d3b4a0"/></linearGradient><path d="m333.759 22.228-.556-.564-.065-.066a31.24 31.24 0 0 0-21.501-9.296c-.192-.01-.39-.009-.584-.01h-.103c.358.001.708.012 1.056.046.343.024.688.073 1.019.122l.233.049c.664.122 1.314.295 1.941.516.331.11.663.246.982.393a12.691 12.691 0 0 1 3.953 2.702 12.963 12.963 0 0 1 2.333 3.18c.136.233.258.479.356.737.197.418.368.847.503 1.289.037.11.073.209.098.319.27.884.442 1.817.503 2.763.024.319.037.638.037.958v63.95c0 .418.012.822.037 1.228.025.393.049.786.098 1.179 0 .024 0 .061.012.086.037.38.086.761.16 1.129.049.356.122.7.197 1.044l.073.331c.073.295.148.589.233.871 0 .049.012.098.037.148.073.258.16.516.246.774.049.184.11.368.185.552.037.11.073.221.122.319.073.246.172.491.282.725.098.27.221.54.356.81.16.356.331.7.516 1.031.368.676.761 1.326 1.167 1.953.012.012.012.024.024.024a23.782 23.782 0 0 0 2.148 2.676c.258.27.528.552.798.81.282.27.565.528.847.774l.098.098 89.737 89.737V116.32a12.7 12.7 0 0 0-3.653-8.914l-83.925-85.178z" style="fill:url(#d);" fill="currentColor"/><linearGradient id="e" x1="347.099" x2="417.559" y1="436.243" y2="506.702" gradientTransform="matrix(1.0039 0 0 -1.0039 .192 516.562)" gradientUnits="userSpaceOnUse"><stop offset="0" style="stop-color:#FFF2EB" stop-color="#fff2eb"/><stop offset="1" style="stop-color:#F1DACB" stop-color="#f1dacb"/></linearGradient><path d="M420.224 111.117s-.645-1.824-3.179-4.36c-.942-.942-83.895-85.147-83.895-85.147a31.252 31.252 0 0 0-22.26-9.317c7.223 0 13.079 5.856 13.079 13.079v63.945c0 12.039 9.76 21.799 21.799 21.799l74.456.001z" style="fill:url(#e);" fill="currentColor"/><linearGradient id="f" x1="254.814" x2="254.814" y1="301.024" y2="238.853" gradientTransform="matrix(1.0039 0 0 -1.0039 .192 516.562)" gradientUnits="userSpaceOnUse"><stop offset="0" style="stop-color:#FFF2EB;stop-opacity:0" stop-color="#fff2eb;stop-opacity:0"/><stop offset="1" style="stop-color:#D3B4A0" stop-color="#d3b4a0"/></linearGradient><path d="M90.664 180.204h330.682V299.52H90.664z" style="fill:url(#f);" fill="currentColor"/><linearGradient id="g" x1="257.932" x2="453.812" y1="126.227" y2="-69.653" gradientTransform="matrix(1.0039 0 0 -1.0039 .192 516.562)" gradientUnits="userSpaceOnUse"><stop offset="0" style="stop-color:#E6E6E6" stop-color="#e6e6e6"/><stop offset="1" style="stop-color:#999999" stop-color="#999999"/></linearGradient><path d="M511.996 328.473v115.528c0 13.414-10.874 24.288-24.288 24.288H24.28c-13.407 0-24.276-10.868-24.276-24.276v-115.54a22.041 22.041 0 0 1 6.456-15.586l42.32-42.32a22.043 22.043 0 0 1 15.586-6.456h383.269a22.041 22.041 0 0 1 15.586 6.456l42.32 42.32a22.044 22.044 0 0 1 6.455 15.586z" style="fill:url(#g);" fill="currentColor"/><linearGradient id="h" x1="254.809" x2="254.809" y1="93.864" y2="48.214" gradientTransform="matrix(1.0039 0 0 -1.0039 .192 516.562)" gradientUnits="userSpaceOnUse"><stop offset="0" style="stop-color:#E6E6E6;stop-opacity:0" stop-color="#e6e6e6;stop-opacity:0"/><stop offset=".143" style="stop-color:#DCDCDC;stop-opacity:0.143" stop-color="#dcdcdc;stop-opacity:0.143"/><stop offset=".384" style="stop-color:#C2C2C2;stop-opacity:0.384" stop-color="#c2c2c2;stop-opacity:0.384"/><stop offset=".692" style="stop-color:#979797;stop-opacity:0.692" stop-color="#979797;stop-opacity:0.692"/><stop offset="1" style="stop-color:#666666" stop-color="#666666"/></linearGradient><path d="M0 419.508v24.495c0 13.412 10.872 24.285 24.285 24.285h463.43c13.411 0 24.285-10.872 24.285-24.285v-24.495H0z" style="fill:url(#h);" fill="currentColor"/><linearGradient id="i" x1="254.808" x2="254.808" y1="52.853" y2="8.873" gradientTransform="matrix(1.0039 0 0 -1.0039 .192 516.562)" gradientUnits="userSpaceOnUse"><stop offset="0" style="stop-color:#4D4D4D" stop-color="#4d4d4d"/><stop offset="1" style="stop-color:#333333" stop-color="#333333"/></linearGradient><path d="M450.107 499.709H61.893c-17.353 0-31.421-14.067-31.421-31.421h451.055c0 17.353-14.067 31.421-31.42 31.421z" style="fill:url(#i);" fill="currentColor"/><linearGradient id="j" x1="446.994" x2="-.591" y1="21.334" y2="49.483" gradientTransform="matrix(1.0039 0 0 -1.0039 .192 516.562)" gradientUnits="userSpaceOnUse"><stop offset="0" style="stop-color:#4D4D4D;stop-opacity:0" stop-color="#4d4d4d;stop-opacity:0"/><stop offset="1" style="stop-color:#000000" stop-color="#000000"/></linearGradient><path d="M481.527 468.288H30.473l31.421 31.421h388.215c17.351 0 31.418-14.068 31.418-31.421z" style="fill:url(#j);" fill="currentColor"/><linearGradient id="k" x1="254.809" x2="254.809" y1="15.274" y2="99.084" gradientTransform="matrix(1.0039 0 0 -1.0039 .192 516.562)" gradientUnits="userSpaceOnUse"><stop offset="0" style="stop-color:#4D4D4D" stop-color="#4d4d4d"/><stop offset="1" style="stop-color:#333333" stop-color="#333333"/></linearGradient><path d="M426.681 468.288H85.319v-24.216c0-10.136 8.216-18.352 18.352-18.352h304.657c10.136 0 18.352 8.216 18.352 18.352v24.216h.001z" style="fill:url(#k);" fill="currentColor"/><linearGradient id="l" x1="254.809" x2="254.809" y1="221.904" y2="157.404" gradientTransform="matrix(1.0039 0 0 -1.0039 .192 516.562)" gradientUnits="userSpaceOnUse"><stop offset="0" style="stop-color:#E6E6E6;stop-opacity:0" stop-color="#e6e6e6;stop-opacity:0"/><stop offset=".097" style="stop-color:#DDDDDD;stop-opacity:0.202" stop-color="#dddddd;stop-opacity:0.202"/><stop offset=".293" style="stop-color:#D0D0D0;stop-opacity:0.611" stop-color="#d0d0d0;stop-opacity:0.611"/><stop offset=".479" style="stop-color:#CCCCCC" stop-color="#cccccc"/><stop offset="1" style="stop-color:#E6E6E6;stop-opacity:0" stop-color="#e6e6e6;stop-opacity:0"/></linearGradient><path d="M6.46 312.887a22.043 22.043 0 0 0-6.456 15.586v40.63h511.992v-40.63a22.041 22.041 0 0 0-6.456-15.586l-32.195-32.195H38.655L6.46 312.887z" style="fill:url(#l);" fill="currentColor"/><linearGradient id="m" x1="40.999" x2="40.999" y1="176.774" y2="158.244" gradientTransform="matrix(1.0039 0 0 -1.0039 .192 516.562)" gradientUnits="userSpaceOnUse"><stop offset="0" style="stop-color:#FE7695" stop-color="#fe7695"/><stop offset="1" style="stop-color:#FE547B" stop-color="#fe547b"/></linearGradient><circle cx="41.352" cy="341.274" r="10.642" style="fill:url(#m);" fill="currentColor"/><linearGradient id="n" x1="40.999" x2="40.999" y1="147.413" y2="128.893" gradientTransform="matrix(1.0039 0 0 -1.0039 .192 516.562)" gradientUnits="userSpaceOnUse"><stop offset="0" style="stop-color:#FCC344" stop-color="#fcc344"/><stop offset="1" style="stop-color:#D48000" stop-color="#d48000"/></linearGradient><circle cx="41.352" cy="370.739" r="10.642" style="fill:url(#n);" fill="currentColor"/><linearGradient id="o" x1="40.999" x2="40.999" y1="118.064" y2="99.534" gradientTransform="matrix(1.0039 0 0 -1.0039 .192 516.562)" gradientUnits="userSpaceOnUse"><stop offset="0" style="stop-color:#B8DE6F" stop-color="#b8de6f"/><stop offset="1" style="stop-color:#8AA753" stop-color="#8aa753"/></linearGradient><circle cx="41.352" cy="400.214" r="10.642" style="fill:url(#o);" fill="currentColor"/></g></svg>