<svg xmlns="http://www.w3.org/2000/svg" version="1.1" xmlns:xlink="http://www.w3.org/1999/xlink" x="0" y="0" viewBox="0 0 267 267" style="enable-background:new 0 0 512 512" xml:space="preserve" fill-rule="evenodd" class=""><g><path fill="#e2e7f6" d="M65.103 200.325a2.083 2.083 0 0 0 2.006-2.644 68.728 68.728 0 0 1-2.526-18.514c0-37.944 30.806-68.75 68.75-68.75s68.75 30.806 68.75 68.75c0 6.412-.879 12.621-2.525 18.514a2.084 2.084 0 0 0 2.006 2.644h31.769a18.75 18.75 0 0 0 18.75-18.75V33.333a18.75 18.75 0 0 0-18.75-18.75h-200a18.752 18.752 0 0 0-18.75 18.75v148.242a18.75 18.75 0 0 0 18.75 18.75z" opacity="1" data-original="#e2e7f6"/><path fill="#d1d9f0" d="M105.395 116.339c-33.302 9.4-57.738 40.032-57.738 76.326 0 2.582.123 5.136.366 7.66h17.08a2.083 2.083 0 0 0 2.006-2.644 68.728 68.728 0 0 1-2.526-18.514c0-27.999 16.774-52.112 40.812-62.828z" opacity="1" data-original="#d1d9f0"/><circle cx="133.333" cy="179.167" r="72.917" fill="#d2996f" opacity="1" data-original="#d2996f"/><path fill="#2f3e4f" d="M75.424 97.917h115.819c4.599 0 8.333-3.734 8.333-8.334a8.337 8.337 0 0 0-8.333-8.333H75.424a8.337 8.337 0 0 0-8.333 8.333c0 4.6 3.734 8.334 8.333 8.334z" opacity="1" data-original="#2f3e4f"/><path fill="#f3aa71" d="M14.583 67.036h112.144a15.89 15.89 0 0 0 12.374-5.921l.913-1.133a11.721 11.721 0 0 1 9.129-4.369h102.94v-22.28a18.75 18.75 0 0 0-18.75-18.75h-200a18.752 18.752 0 0 0-18.75 18.75v33.703z" opacity="1" data-original="#f3aa71" class=""/><circle cx="43.833" cy="41.063" r="10.383" fill="#ff005d" opacity="1" data-original="#ff005d"/><circle cx="76.024" cy="41.063" r="10.383" fill="#0ecf75" opacity="1" data-original="#0ecf75"/><circle cx="108.214" cy="41.063" r="10.383" fill="#00a1ff" opacity="1" data-original="#00a1ff"/><path fill="#d9defb" d="M154.172 43.685h74.152c4.599 0 8.333-3.734 8.333-8.333s-3.734-8.333-8.333-8.333h-74.152c-4.599 0-8.333 3.734-8.333 8.333s3.734 8.333 8.333 8.333z" opacity="1" data-original="#d9defb"/><circle cx="130.358" cy="184.307" r="58.977" fill="#c4895e" opacity="1" data-original="#c4895e"/><circle cx="133.333" cy="179.167" r="57.094" fill="#d9defb" opacity="1" data-original="#d9defb"/><g fill="#2f3e4f"><path d="M124.697 150.5s-1.592 9.899-2.311 18.664c-.541 6.601-.502 12.442-.502 12.442a8.613 8.613 0 0 0 8.613 8.614s5.06-.211 10.802-.778c7.6-.751 16.202-2.035 16.202-2.035 3.201 0 5.8-2.599 5.8-5.801 0-3.201-2.599-5.8-5.8-5.8 0 0-8.602-1.284-16.202-2.035-.819-.081-1.623-.154-2.401-.221-.071-1.38-.165-2.863-.289-4.386-.719-8.765-2.311-18.664-2.311-18.664a5.803 5.803 0 0 0-5.801-5.801 5.803 5.803 0 0 0-5.8 5.801zM131.25 236.223a57.76 57.76 0 0 0 4.167 0v-11.548a2.084 2.084 0 0 0-4.167 0zM91.523 218.03a57.682 57.682 0 0 0 2.947 2.947l8.157-8.158a2.084 2.084 0 0 0-2.946-2.946zm80.674 2.947a57.662 57.662 0 0 0 2.946-2.947l-8.157-8.157a2.084 2.084 0 0 0-2.946 2.946zm18.192-43.894h-11.547c-1.15 0-2.084.934-2.084 2.084 0 1.149.934 2.083 2.084 2.083h11.547a55.542 55.542 0 0 0 0-4.167zm-114.112 0a57.816 57.816 0 0 0 0 4.167h11.548a2.084 2.084 0 0 0 0-4.167zm95.92-39.726-8.157 8.157a2.084 2.084 0 0 0 2.946 2.946l8.157-8.157a57.24 57.24 0 0 0-2.946-2.946zm-77.727 0a57.26 57.26 0 0 0-2.947 2.946l8.158 8.157a2.084 2.084 0 0 0 2.946-2.946zm36.78-15.246v11.547c0 1.15.934 2.084 2.083 2.084l.014-.001a2.084 2.084 0 0 0 2.07-2.083v-11.547a55.596 55.596 0 0 0-4.167 0z" fill="#2f3e4f" opacity="1" data-original="#2f3e4f"/></g></g></svg>