<svg xmlns="http://www.w3.org/2000/svg" version="1.1" xmlns:xlink="http://www.w3.org/1999/xlink" x="0" y="0" viewBox="0 0 64 64" style="enable-background:new 0 0 512 512" xml:space="preserve" class=""><g><g data-name="Color copy"><path fill="#34c8dc" d="M32 3 22 15h5v46h10V15h5z" opacity="1" data-original="#299cfc" class=""/><path fill="#17a2b8" d="M37 22.91V61H27V15h-5L32 3v14a5.99 5.99 0 0 0 5 5.91z" opacity="1" data-original="#0080ff" class=""/><path fill="#1789a3" d="M61 31 49 21v5H39a12 12 0 0 0-12 12v23h10V40a4 4 0 0 1 4-4h8v5z" opacity="1" data-original="#1ec0ff" class=""/><path fill="#34c8dc" d="M49 41v-5h-8a4 4 0 0 0-4 4v21H27V38a11.99 11.99 0 0 1 4.4-9.29A7.992 7.992 0 0 0 37 31h24z" opacity="1" data-original="#299cfc" class=""/><path fill="#adeef4" d="M18 37v-9h5L13 16 3 28h5v11a12 12 0 0 0 12 12h3a4 4 0 0 1 4 4v6h10v-8a12 12 0 0 0-12-12h-3a4 4 0 0 1-4-4z" opacity="1" data-original="#a3daff" class=""/><path fill="#1789a3" d="M37 56v5H27v-6a4 4 0 0 0-4-4h-3A12 12 0 0 1 8 39V28H3l10-12v22a8 8 0 0 0 8 8h6a5 5 0 0 1 5 5 4.985 4.985 0 0 0 5 5z" opacity="1" data-original="#1ec0ff" class=""/><path fill="#17a2b8" d="M55 61H6a1 1 0 0 1 0-2h49z" opacity="1" data-original="#f9d423" class=""/><path fill="#dc3545" d="M55 45a6 6 0 0 0-6 6c0 5 6 10 6 10s6-5 6-10a6 6 0 0 0-6-6zm0 8a2 2 0 1 1 2-2 2 2 0 0 1-2 2z" opacity="1" data-original="#ff6464" class=""/><path fill="#99182c" d="M52.87 53.32c-1.36-2.09-2.35-4.61-1.62-7A5.994 5.994 0 0 0 49 51c0 5 6 10 6 10a21.49 21.49 0 0 0 5.21-6.67 4.954 4.954 0 0 1-7.34-1.01z" opacity="1" data-original="#db3056" class=""/></g></g></svg>