<svg xmlns="http://www.w3.org/2000/svg" version="1.1" xmlns:xlink="http://www.w3.org/1999/xlink" x="0" y="0" viewBox="0 0 512 512" style="enable-background:new 0 0 512 512" xml:space="preserve" class=""><g><path fill="#fcdb2c" d="M349.723 140.582H271v-45.25c0-8.285-6.715-15-15-15s-15 6.715-15 15v45.25h-78.723c-30.422 0-55.168 20.242-55.168 45.125v30.125c0 8.285 6.715 15 15 15s15-6.715 15-15v-30.125c0-7.14 10.762-15.125 25.168-15.125H241v45.25c0 8.285 6.715 15 15 15s15-6.715 15-15v-45.25h78.723c14.406 0 25.168 7.984 25.168 15.125v30.125c0 8.285 6.714 15 15 15s15-6.715 15-15v-30.125c0-24.883-24.746-45.125-55.168-45.125zm0 0" opacity="1" data-original="#fcdb2c"/><path fill="#ff9f04" d="M349.723 140.582H271v-45.25c0-8.285-6.715-15-15-15v150.5c8.285 0 15-6.715 15-15v-45.25h78.723c14.406 0 25.168 7.984 25.168 15.125v30.125c0 8.285 6.714 15 15 15s15-6.715 15-15v-30.125c0-24.883-24.746-45.125-55.168-45.125zm0 0" opacity="1" data-original="#ff9f04"/><path fill="#fcdb2c" d="M148.89 341.414h-11.78v-45.25c0-8.281-6.715-15-15-15s-15 6.719-15 15v45.25H95.335c-30.422 0-55.168 20.242-55.168 45.125v30.125c0 8.285 6.715 15 15 15s15-6.715 15-15V386.54c0-7.14 10.762-15.125 25.168-15.125h53.555c14.402 0 25.164 7.984 25.164 15.125v30.125c0 8.285 6.715 15 15 15s15-6.715 15-15V386.54c0-24.883-24.746-45.125-55.164-45.125zm0 0" opacity="1" data-original="#fcdb2c"/><path fill="#ff9f04" d="M416.664 341.414h-11.773v-45.25c0-8.281-6.715-15-15-15s-15 6.719-15 15v45.25h-11.778c-30.418 0-55.164 20.242-55.164 45.125v30.125c0 8.285 6.715 15 15 15 8.281 0 15-6.715 15-15V386.54c0-7.14 10.762-15.125 25.164-15.125h53.555c14.402 0 25.168 7.984 25.168 15.125v30.125c0 8.285 6.715 15 15 15 8.281 0 15-6.715 15-15V386.54c0-24.883-24.75-45.125-55.172-45.125zm0 0" opacity="1" data-original="#ff9f04"/><path fill="#0066a3" d="M256 0c-30.418 0-55.164 24.746-55.164 55.164 0 30.422 24.746 55.168 55.164 55.168s55.164-24.746 55.164-55.168C311.164 24.746 286.418 0 256 0zm0 0" opacity="1" data-original="#0066a3"/><path fill="#27d9f7" d="M122.11 200.832c-30.419 0-55.169 24.746-55.169 55.164 0 30.422 24.75 55.168 55.168 55.168s55.168-24.746 55.168-55.168c0-30.418-24.75-55.164-55.168-55.164zM256 200.832c-30.418 0-55.164 24.746-55.164 55.164 0 30.422 24.746 55.168 55.164 55.168s55.164-24.746 55.164-55.168c0-30.418-24.746-55.164-55.164-55.164zm0 0" opacity="1" data-original="#27d9f7"/><path fill="#00abde" d="M389.89 200.832c-30.417 0-55.167 24.746-55.167 55.164 0 30.422 24.75 55.168 55.168 55.168s55.168-24.746 55.168-55.168c0-30.418-24.75-55.164-55.168-55.164zm0 0" opacity="1" data-original="#00abde"/><path fill="#d7e9fd" d="M55.168 401.664C24.746 401.664 0 426.414 0 456.832s24.746 55.164 55.168 55.164c30.418 0 55.168-24.746 55.168-55.164s-24.75-55.168-55.168-55.168zM189.055 401.664c-30.418 0-55.164 24.75-55.164 55.168s24.746 55.164 55.164 55.164c30.422 0 55.168-24.746 55.168-55.164s-24.746-55.168-55.168-55.168zm0 0" opacity="1" data-original="#d7e9fd"/><path fill="#b4dafe" d="M322.945 401.664c-30.422 0-55.168 24.75-55.168 55.168s24.746 55.164 55.168 55.164c30.418 0 55.164-24.746 55.164-55.164s-24.746-55.168-55.164-55.168zM456.836 401.664c-30.422 0-55.172 24.75-55.172 55.168s24.75 55.164 55.172 55.164c30.418 0 55.164-24.746 55.164-55.164s-24.746-55.168-55.164-55.168zm0 0" opacity="1" data-original="#b4dafe"/><path fill="#013f68" d="M311.164 55.164C311.164 24.746 286.418 0 256 0v110.332c30.418 0 55.164-24.746 55.164-55.168zm0 0" opacity="1" data-original="#013f68"/><path fill="#00abde" d="M256 200.832v110.332c30.418 0 55.164-24.746 55.164-55.168 0-30.418-24.746-55.164-55.164-55.164zm0 0" opacity="1" data-original="#00abde"/></g></svg>