<svg xmlns="http://www.w3.org/2000/svg" version="1.1" xmlns:xlink="http://www.w3.org/1999/xlink" x="0" y="0" viewBox="0 0 512 512" style="enable-background:new 0 0 512 512" xml:space="preserve" class=""><g><path d="m384.017 34.267 93.716 93.716C499.522 165.642 512 209.363 512 256l-34.267 128.018a257.255 257.255 0 0 1-93.716 93.716L152.982 256 256 0c46.637 0 90.358 12.478 128.017 34.267z" style="" fill="#ffb03b" data-original="#ffb03b" class=""/><path d="M384.017 34.267a257.255 257.255 0 0 1 93.716 93.716L256 256 384.017 34.267zM512 256c0 46.637-12.478 90.358-34.267 128.018L256 256h256zM384.017 477.733C346.358 499.522 302.637 512 256 512l-41.207-128L256 256l128.017 221.733z" style="" fill="#ff903d" data-original="#ff903d"/><path d="m127.982 34.267-93.716 93.716C12.478 165.642 0 209.363 0 256l34.267 128.018a257.255 257.255 0 0 0 93.716 93.716L233.2 408.075 256 256V0c-46.637 0-90.358 12.478-128.018 34.267z" style="" fill="#ffc46c" data-original="#ffc46c"/><path d="M127.982 34.267a257.255 257.255 0 0 0-93.716 93.716L256 256 127.982 34.267zM0 256c0 46.637 12.478 90.358 34.267 128.018L256 256H0zM127.982 477.733C165.642 499.522 209.363 512 256 512V256L127.982 477.733z" style="" fill="#ffb03b" data-original="#ffb03b" class=""/><path d="M256 41.207 183.887 256 256 470.793c118.626 0 214.793-96.166 214.793-214.793S374.626 41.207 256 41.207z" style="" fill="#ffc46c" data-original="#ffc46c"/><path d="M41.207 256c0 118.626 96.166 214.793 214.793 214.793V41.207C137.374 41.207 41.207 137.374 41.207 256z" style="" fill="#ffd89d" data-original="#ffd89d" class=""/><path d="M256 72.113v367.775c101.558 0 183.887-82.329 183.887-183.887S357.558 72.113 256 72.113z" style="" fill="#ffebce" data-original="#ffebce"/><path d="M408.982 256c0-101.558-68.493-183.887-152.982-183.887-101.558 0-183.887 82.329-183.887 183.887S154.442 439.887 256 439.887c84.489 0 152.982-82.329 152.982-183.887z" style="" fill="#ffffff" data-original="#ffffff" class=""/><path d="m388.691 208.65-91.687-13.324L256 112.243 225.095 256 256 321.524l82.008 43.114-15.662-91.318z" style="" fill="#ffb03b" data-original="#ffb03b" class=""/><path d="m214.996 195.326-91.687 13.324 66.345 64.67-15.662 91.318L256 321.524V112.243z" style="" fill="#ffc46c" data-original="#ffc46c"/><path d="m256 286.608-40.962 21.535 7.823-45.613-33.139-32.302 45.797-6.655L256 182.075l20.481 41.498 45.797 6.655-33.139 32.302 7.823 45.613z" style="" fill="#ffc46c" data-original="#ffc46c"/></g></svg>