<svg xmlns="http://www.w3.org/2000/svg" version="1.1" xmlns:xlink="http://www.w3.org/1999/xlink" x="0" y="0" viewBox="0 0 6.35 6.35" style="enable-background:new 0 0 512 512" xml:space="preserve"><g><path d="M17.461 536.046a.842.842 0 0 0-.496.16l-1.941 1.414a.51.51 0 0 0 0 .82l1.941 1.414a.845.845 0 0 0 .993 0l1.943-1.414a.51.51 0 0 0 0-.82l-1.943-1.413a.843.843 0 0 0-.497-.161z" style="color:#000000;fill-opacity:1;stroke-width:1.00001;stroke-linecap:round;stroke-linejoin:round;-inkscape-stroke:none;paint-order:stroke fill markers" transform="translate(-14.288 -534.194)" fill="#ffd780" data-original="#ffd780"/><path d="M17.462 536.046v3.969a.843.843 0 0 0 .496-.161l1.943-1.414a.51.51 0 0 0 0-.82l-1.943-1.413a.843.843 0 0 0-.495-.161z" style="font-variation-settings:'wght' 800;fill-opacity:1;stroke:none;stroke-width:0.529167;stroke-linecap:round;stroke-linejoin:round;stroke-dasharray:none;stroke-opacity:1;paint-order:stroke fill markers" transform="translate(-14.288 -534.194)" fill="#ffc240" data-original="#ffc240"/><path d="M17.461 534.723a.843.843 0 0 0-.496.16l-1.941 1.414a.51.51 0 0 0 0 .82l1.941 1.413a.845.845 0 0 0 .993 0l1.943-1.413a.51.51 0 0 0 0-.82l-1.943-1.413a.843.843 0 0 0-.497-.161z" style="color:#000000;fill-opacity:1;stroke-width:1.00001;stroke-linecap:round;stroke-linejoin:round;-inkscape-stroke:none;paint-order:stroke fill markers" transform="translate(-14.288 -534.194)" fill="#ff8080" data-original="#ff8080"/><path d="M17.462 534.723v3.968a.843.843 0 0 0 .496-.16l1.943-1.414a.51.51 0 0 0 0-.82l-1.943-1.413a.843.843 0 0 0-.496-.161z" style="font-variation-settings:'wght' 800;fill-opacity:1;stroke:none;stroke-width:0.529167;stroke-linecap:round;stroke-linejoin:round;stroke-dasharray:none;stroke-opacity:1;paint-order:stroke fill markers" transform="translate(-14.288 -534.194)" fill="#ff4040" data-original="#ff4040"/></g></svg>