<svg xmlns="http://www.w3.org/2000/svg" version="1.1" xmlns:xlink="http://www.w3.org/1999/xlink" x="0" y="0" viewBox="0 0 497 497.298" style="enable-background:new 0 0 512 512" xml:space="preserve"><g><path fill="#d4720a" d="M86.18 167.863 224.668 88.73v45.563h52.457V31.473H126.047v33.574h56.656L.148 167.863 356.86 377.695l-155.273 90.227 46.164 29.375 197.238-119.602zm0 0" opacity="1" data-original="#d4720a"/><path fill="#f03939" d="M396.727 201.438v33.574l48.261 29.375v-33.575zm0 0" opacity="1" data-original="#f03939"/><path fill="#9e1e23" d="M444.988 264.387v-33.574l50.36-29.375v33.574zM346.371 230.813v33.574l50.356-29.375v-33.575zm0 0" opacity="1" data-original="#9e1e23"/><path fill="#f03939" d="M296.012 201.438v33.574l50.36 29.375v-33.575zM296.012 144.781v33.574l50.36 27.278v-33.57" opacity="1" data-original="#f03939"/><path fill="#9e1e23" d="M444.988 174.16v33.57l50.36-29.375v-33.574zm0 0" opacity="1" data-original="#9e1e23"/><path fill="#ff5f4f" d="m495.348 144.781-50.36-27.277-48.261 27.277-50.356-27.277-50.36 27.277 50.36 27.281-50.36 29.375 50.36 29.375 50.356-29.375 48.261 29.375 50.36-29.375-50.36-27.277zm0 0" opacity="1" data-original="#ff5f4f"/><path fill="#d4720a" d="M224.668 111.21h52.457v23.083h-52.457zM126.047 41.965h56.656v23.082h-56.656zm0 0" opacity="1" data-original="#d4720a"/><path fill="#edac01" d="M.148 144.781v23.082L356.86 377.695v-23.082zm0 0" opacity="1" data-original="#edac01"/><path fill="#d4720a" d="M247.75 474.215v23.082l197.238-119.602v-23.082zm0 0" opacity="1" data-original="#d4720a"/><path fill="#edac01" d="M201.586 444.84v23.082l46.164 29.375v-23.082zm0 0" opacity="1" data-original="#edac01"/><path fill="#ffed31" d="m86.18 144.781 138.488-79.136v45.566h52.457V0H126.047v41.965H183.3L.148 144.78 356.86 354.613 201.586 444.84l46.164 29.375 197.238-119.602zm0 0" opacity="1" data-original="#ffed31"/><path fill="#3c7fc2" d="M171.797 342.7c-17.094-15.634-45.297-25.856-77.223-25.856-32.062 0-60.375 10.308-77.441 26.05l-16.985-.87v31.472c0 33.61 42.274 60.856 94.426 60.856 52.149 0 94.422-27.247 94.422-60.856v-31.473zm0 0" opacity="1" data-original="#3c7fc2"/><path fill="#8beaff" d="M188.996 337.824c0-33.605-42.273-60.851-94.422-60.851-52.148 0-94.426 27.246-94.426 60.851 0 33.61 42.278 60.856 94.426 60.856 52.149 0 94.422-27.246 94.422-60.856zm0 0" opacity="1" data-original="#8beaff"/><path fill="#3c7fc2" d="M147.031 333.629c0-16.8-23.488-30.426-52.457-30.426-28.972 0-52.46 13.625-52.46 30.426 0 16.805 23.488 30.426 52.46 30.426 28.969 0 52.457-13.621 52.457-30.426zm0 0" opacity="1" data-original="#3c7fc2"/></g></svg>