<svg xmlns="http://www.w3.org/2000/svg" version="1.1" xmlns:xlink="http://www.w3.org/1999/xlink" x="0" y="0" viewBox="0 0 511.999 511.999" style="enable-background:new 0 0 512 512" xml:space="preserve"><g><path d="m131.095 110.739-37.843 37.843 349.68 344.708 34.059-3.784 3.784-34.059z" style="" fill="#b7e4f8" data-original="#b7e4f8"/><path d="m131.095 110.739-24.945 13.9 370.841 364.867 3.784-34.059z" style="" fill="#93d6f4" data-original="#93d6f4"/><path d="M121.204 70.994 30.873 48.36l22.634 90.33 41.372 29.552 55.876-55.876z" style="" fill="#dc3910" data-original="#dc3910"/><path d="M121.204 70.994 30.873 48.36l22.634 90.33 41.372 29.552 55.876-55.876z" style="" fill="#dc3910" data-original="#dc3910"/><path d="M121.204 70.994 30.873 48.36l85.98 85.98 33.902-21.974z" style="" fill="#942308" data-original="#942308"/><path d="M44.05 114.606h136.229v30.104H44.05z" style="" transform="rotate(134.999 112.165 129.658)" fill="#ffc266" data-original="#ffc266"/><path d="M72.9 53.928c0-9.739-3.792-18.894-10.679-25.78-14.215-14.215-37.345-14.215-51.561 0-14.214 14.216-14.214 37.346 0 51.561 6.886 6.887 16.042 10.679 25.78 10.679 9.739 0 18.895-3.792 25.78-10.679 6.888-6.885 10.68-16.042 10.68-25.781z" style="" fill="#ffc266" data-original="#ffc266"/><path d="M62.221 79.709C69.108 72.824 72.9 63.667 72.9 53.928s-3.792-18.894-10.679-25.78c-14.215-14.215-37.345-14.215-51.561 0" style="" fill="#ffae33" data-original="#ffae33"/><path d="m380.905 110.739 37.842 37.843L69.067 493.29l-34.059-3.784-3.784-34.059z" style="" fill="#b7e4f8" data-original="#b7e4f8"/><path d="m380.905 110.739 24.945 13.9L35.008 489.506l-3.784-34.059z" style="" fill="#93d6f4" data-original="#93d6f4"/><path d="m390.796 70.994 90.33-22.634-22.634 90.33-41.372 29.552-55.875-55.876z" style="" fill="#dc3910" data-original="#dc3910"/><path d="m390.796 70.994 90.33-22.634-22.634 90.33-41.372 29.552-55.875-55.876z" style="" fill="#dc3910" data-original="#dc3910"/><path d="m390.796 70.994 90.33-22.634-85.979 85.98-33.902-21.974z" style="" fill="#942308" data-original="#942308"/><path d="M331.712 114.624h136.229v30.104H331.712z" style="" transform="rotate(45.001 399.83 129.671)" fill="#ffc266" data-original="#ffc266"/><path d="M439.098 53.928c0-9.739 3.792-18.894 10.679-25.78 14.215-14.215 37.345-14.215 51.561 0 14.215 14.216 14.215 37.346 0 51.561-6.886 6.887-16.042 10.679-25.78 10.679-9.739 0-18.895-3.792-25.78-10.679-6.887-6.885-10.68-16.042-10.68-25.781z" style="" fill="#ffc266" data-original="#ffc266"/><path d="M449.778 79.709c-6.887-6.886-10.679-16.042-10.679-25.781s3.792-18.894 10.679-25.78c14.215-14.215 37.345-14.215 51.561 0" style="" fill="#ffae33" data-original="#ffae33"/><path d="M384.531 184.409C382.181 182.76 326.16 144 256 144c-70.161 0-126.181 38.759-128.531 40.409l-5.911 4.149v7.223c0 45.842 6.572 89.021 19.534 128.34 10.428 31.631 24.987 60.836 43.274 86.802 31.427 44.626 63.039 64.307 64.37 65.123l7.265 4.455 7.265-4.455c1.33-.816 32.943-20.497 64.369-65.123 18.287-25.968 32.846-55.172 43.274-86.802 12.963-39.319 19.534-82.498 19.534-128.34v-7.223l-5.912-4.149z" style="" fill="#dc3910" data-original="#dc3910"/><path d="m256 480.503 7.265-4.455c1.33-.816 32.943-20.497 64.369-65.123 18.287-25.968 32.846-55.172 43.274-86.802 12.963-39.319 19.534-82.498 19.534-128.34v-7.223l-5.911-4.149c-2.35-1.65-58.371-40.409-128.531-40.409" style="" fill="#942308" data-original="#942308"/><path d="M395.233 173.765c-2.546-1.787-63.232-43.774-139.233-43.774-76.002 0-136.687 41.986-139.233 43.774l-6.404 4.495v7.824c0 49.658 7.12 96.434 21.161 139.026 11.296 34.264 27.068 65.901 46.878 94.03 34.043 48.342 68.289 69.661 69.73 70.545l7.869 4.827 7.87-4.827c1.441-.884 35.686-22.203 69.729-70.545 19.809-28.129 35.582-59.766 46.878-94.03 14.041-42.592 21.161-89.367 21.161-139.026v-7.824l-6.406-4.495zM352.23 314.637c-10.215 31.312-24.457 60.202-42.331 85.867-13.258 19.037-27.177 34.158-38.847 45.079v-69.927a258.79 258.79 0 0 0 4.546-6.617c25.515-38.575 41.426-84.308 47.293-135.926l1.331-11.708-11.047-4.102c-14.476-5.376-28.584-8.815-42.123-10.302v-46.265c46.534 3.897 85.509 24.631 100.411 33.573-.729 42.972-7.19 83.411-19.233 120.328zm-192.116 1.047c-12.264-37.201-18.841-77.998-19.578-121.375 14.902-8.943 53.877-29.675 100.412-33.573v46.251c-13.609 1.472-27.72 4.896-42.132 10.25l-11.042 4.102 1.329 11.704c5.861 51.648 21.776 97.403 47.301 135.994a254.169 254.169 0 0 0 4.545 6.617v69.953c-10.824-10.071-24.332-24.486-37.935-43.802-18.1-25.7-32.534-54.676-42.9-86.121zm60.483-73.984c12.356-3.617 24.222-5.446 35.403-5.446 11.1 0 22.964 1.847 35.395 5.504-5.711 38.104-17.586 72.304-35.395 101.936-17.819-29.647-29.697-63.863-35.403-101.994z" style="" fill="#ffc266" data-original="#ffc266"/><path d="M395.233 173.765c-2.546-1.787-63.232-43.774-139.233-43.774l-.219.002v106.266c.072 0 .146-.004.219-.004 11.1 0 22.964 1.847 35.395 5.504-5.711 38.104-17.586 72.304-35.395 101.936-.074-.124-.145-.252-.219-.375v151.059l.219.134 7.87-4.827c1.441-.884 35.686-22.203 69.729-70.545 19.809-28.129 35.582-59.766 46.878-94.03 14.041-42.592 21.161-89.367 21.161-139.026v-7.824l-6.405-4.496zM352.23 314.637c-10.215 31.312-24.457 60.202-42.331 85.867-13.258 19.037-27.177 34.158-38.847 45.079v-69.927a258.79 258.79 0 0 0 4.546-6.617c25.515-38.575 41.426-84.308 47.293-135.926l1.331-11.708-11.047-4.102c-14.476-5.376-28.584-8.815-42.123-10.302v-46.265c46.534 3.897 85.509 24.631 100.411 33.573-.729 42.972-7.19 83.411-19.233 120.328z" style="" fill="#ffae33" data-original="#ffae33"/><path d="M395.233 173.765c-2.546-1.787-63.232-43.774-139.233-43.774l-.219.002v106.266c.072 0 .146-.004.219-.004 11.1 0 22.964 1.847 35.395 5.504-5.711 38.104-17.586 72.304-35.395 101.936-.074-.124-.145-.252-.219-.375v151.059l.219.134 7.87-4.827c1.441-.884 35.686-22.203 69.729-70.545 19.809-28.129 35.582-59.766 46.878-94.03 14.041-42.592 21.161-89.367 21.161-139.026v-7.824l-6.405-4.496zM352.23 314.637c-10.215 31.312-24.457 60.202-42.331 85.867-13.258 19.037-27.177 34.158-38.847 45.079v-69.927a258.79 258.79 0 0 0 4.546-6.617c25.515-38.575 41.426-84.308 47.293-135.926l1.331-11.708-11.047-4.102c-14.476-5.376-28.584-8.815-42.123-10.302v-46.265c46.534 3.897 85.509 24.631 100.411 33.573-.729 42.972-7.19 83.411-19.233 120.328z" style="" fill="#ffae33" data-original="#ffae33"/></g></svg>