<svg xmlns="http://www.w3.org/2000/svg" version="1.1" xmlns:xlink="http://www.w3.org/1999/xlink" x="0" y="0" viewBox="0 0 510 510" style="enable-background:new 0 0 512 512" xml:space="preserve"><g><linearGradient id="f" x1="203.693" x2="346.186" y1="285.415" y2="484.905" gradientUnits="userSpaceOnUse"><stop offset="0" stop-color="#d9b1ee"/><stop offset=".123" stop-color="#dba3e3"/><stop offset=".351" stop-color="#e381c8"/><stop offset=".659" stop-color="#ef499b"/><stop offset="1" stop-color="#fe0364"/></linearGradient><linearGradient id="a"><stop offset="0" stop-color="#a82975" stop-opacity="0"/><stop offset="1" stop-color="#a82975"/></linearGradient><linearGradient xlink:href="#a" id="g" x1="313.251" x2="327.251" y1="408.443" y2="434.443" gradientUnits="userSpaceOnUse"/><linearGradient xlink:href="#a" id="h" x1="404.446" x2="418.446" y1="408.443" y2="434.443" gradientTransform="matrix(-1 0 0 1 601.195 0)" gradientUnits="userSpaceOnUse"/><linearGradient xlink:href="#a" id="i" x1="255" x2="255" y1="345.622" y2="293.613" gradientUnits="userSpaceOnUse"/><linearGradient id="j" x1="203.693" x2="346.186" y1="183.17" y2="382.66" gradientUnits="userSpaceOnUse"><stop offset="0" stop-color="#c9f6b0"/><stop offset="1" stop-color="#0bb494"/></linearGradient><linearGradient id="b"><stop offset="0" stop-color="#016a74" stop-opacity="0"/><stop offset="1" stop-color="#016a74"/></linearGradient><linearGradient xlink:href="#b" id="k" x1="313.251" x2="327.251" y1="306.198" y2="332.198" gradientUnits="userSpaceOnUse"/><linearGradient xlink:href="#b" id="l" x1="404.446" x2="418.446" y1="306.198" y2="332.198" gradientTransform="matrix(-1 0 0 1 601.195 0)" gradientUnits="userSpaceOnUse"/><linearGradient xlink:href="#b" id="m" x1="255" x2="255" y1="241.622" y2="194.612" gradientUnits="userSpaceOnUse"/><linearGradient xlink:href="#a" id="n" x1="246.569" x2="334.569" y1="323.367" y2="143.367" gradientUnits="userSpaceOnUse"/><linearGradient id="o" x1="203.693" x2="346.186" y1="80.926" y2="280.416" gradientUnits="userSpaceOnUse"><stop offset="0" stop-color="#fef48b"/><stop offset="1" stop-color="#ffbf51"/></linearGradient><linearGradient id="c"><stop offset="0" stop-color="#fe9738" stop-opacity="0"/><stop offset="1" stop-color="#fe9738"/></linearGradient><linearGradient xlink:href="#c" id="p" x1="313.251" x2="327.251" y1="203.954" y2="229.954" gradientUnits="userSpaceOnUse"/><linearGradient xlink:href="#c" id="q" x1="404.446" x2="418.446" y1="203.954" y2="229.954" gradientTransform="matrix(-1 0 0 1 601.195 0)" gradientUnits="userSpaceOnUse"/><linearGradient xlink:href="#b" id="r" x1="231.535" x2="305.535" y1="287.275" y2="24.275" gradientUnits="userSpaceOnUse"/><linearGradient id="d"><stop offset="0" stop-color="#a6e7f0"/><stop offset=".171" stop-color="#90e2ed"/><stop offset=".529" stop-color="#56d7e7"/><stop offset="1" stop-color="#02c7dd"/></linearGradient><linearGradient xlink:href="#d" id="s" x1="-112.779" x2="388.676" y1="149.971" y2="651.426" gradientUnits="userSpaceOnUse"/><linearGradient xlink:href="#d" id="t" x1="-150.279" x2="351.176" y1="187.471" y2="688.926" gradientUnits="userSpaceOnUse"/><linearGradient xlink:href="#d" id="u" x1="-.279" x2="501.176" y1="37.471" y2="538.926" gradientUnits="userSpaceOnUse"/><linearGradient xlink:href="#d" id="v" x1="-187.779" x2="313.676" y1="224.971" y2="726.426" gradientUnits="userSpaceOnUse"/><linearGradient xlink:href="#d" id="w" x1="-37.779" x2="463.676" y1="74.971" y2="576.426" gradientUnits="userSpaceOnUse"/><linearGradient xlink:href="#d" id="x" x1="-75.279" x2="426.176" y1="112.471" y2="613.926" gradientUnits="userSpaceOnUse"/><linearGradient xlink:href="#d" id="y" x1="37.471" x2="538.926" y1="-.279" y2="501.176" gradientUnits="userSpaceOnUse"/><linearGradient xlink:href="#d" id="z" x1="187.471" x2="688.926" y1="-150.279" y2="351.176" gradientUnits="userSpaceOnUse"/><linearGradient xlink:href="#d" id="A" x1="224.971" x2="726.426" y1="-187.779" y2="313.676" gradientUnits="userSpaceOnUse"/><linearGradient xlink:href="#d" id="B" x1="149.971" x2="651.426" y1="-112.779" y2="388.676" gradientUnits="userSpaceOnUse"/><linearGradient xlink:href="#d" id="C" x1="74.971" x2="576.426" y1="-37.779" y2="463.676" gradientUnits="userSpaceOnUse"/><linearGradient xlink:href="#d" id="D" x1="112.471" x2="613.926" y1="-75.279" y2="426.176" gradientUnits="userSpaceOnUse"/><linearGradient xlink:href="#d" id="E" x1="12.44" x2="42.394" y1="12.44" y2="42.394" gradientUnits="userSpaceOnUse"/><linearGradient id="e"><stop offset="0" stop-color="#0199b1" stop-opacity="0"/><stop offset="1" stop-color="#0199b1"/></linearGradient><linearGradient xlink:href="#e" id="F" x1="29.75" x2="29.75" y1="48.44" y2="58.982" gradientUnits="userSpaceOnUse"/><linearGradient xlink:href="#e" id="G" x1="-3633.162" x2="-3633.162" y1="-2092.972" y2="-2082.43" gradientTransform="rotate(-90 -731 -2872.412)" gradientUnits="userSpaceOnUse"/><linearGradient xlink:href="#d" id="H" x1="462.94" x2="492.894" y1="12.44" y2="42.394" gradientUnits="userSpaceOnUse"/><linearGradient xlink:href="#e" id="I" x1="480.25" x2="480.25" y1="48.44" y2="58.982" gradientUnits="userSpaceOnUse"/><linearGradient xlink:href="#e" id="J" x1="-3633.162" x2="-3633.162" y1="-1991.722" y2="-1981.18" gradientTransform="rotate(-90 -556.375 -3047.037)" gradientUnits="userSpaceOnUse"/><linearGradient xlink:href="#d" id="K" x1="12.44" x2="42.394" y1="462.94" y2="492.894" gradientUnits="userSpaceOnUse"/><linearGradient xlink:href="#e" id="L" x1="29.75" x2="29.75" y1="498.94" y2="509.482" gradientUnits="userSpaceOnUse"/><linearGradient xlink:href="#e" id="M" x1="-4083.661" x2="-4083.661" y1="-2092.972" y2="-2082.43" gradientTransform="rotate(-90 -731 -2872.412)" gradientUnits="userSpaceOnUse"/><linearGradient xlink:href="#d" id="N" x1="462.94" x2="492.894" y1="462.94" y2="492.894" gradientUnits="userSpaceOnUse"/><linearGradient xlink:href="#e" id="O" x1="480.25" x2="480.25" y1="498.94" y2="509.482" gradientUnits="userSpaceOnUse"/><linearGradient xlink:href="#e" id="P" x1="-4083.661" x2="-4083.661" y1="-1991.722" y2="-1981.18" gradientTransform="rotate(-90 -556.375 -3047.037)" gradientUnits="userSpaceOnUse"/><path fill="url(#f)" d="M227.766 256.609 72.198 338.66c-14.945 7.883-14.945 29.286 0 37.169l155.568 82.051a58.38 58.38 0 0 0 54.469 0l155.568-82.051c14.945-7.883 14.945-29.286 0-37.169l-155.568-82.051a58.38 58.38 0 0 0-54.469 0z" opacity="1" data-original="url(#f)"/><path fill="url(#g)" d="m437.802 338.66-67.581-35.644-218.038 115 75.582 39.864a58.38 58.38 0 0 0 54.469 0l155.568-82.051c14.945-7.883 14.945-29.286 0-37.169z" opacity="1" data-original="url(#g)"/><path fill="url(#h)" d="m72.198 338.66 67.581-35.644 218.038 115-75.582 39.864a58.38 58.38 0 0 1-54.469 0L72.198 375.829c-14.945-7.883-14.945-29.286 0-37.169z" opacity="1" data-original="url(#h)"/><path fill="url(#i)" d="M227.766 256.609 72.198 338.66c-14.945 7.883-14.945 29.286 0 37.169l155.568 82.051a58.38 58.38 0 0 0 54.469 0l155.568-82.051c14.945-7.883 14.945-29.286 0-37.169l-155.568-82.051a58.38 58.38 0 0 0-54.469 0z" opacity="1" data-original="url(#i)"/><path fill="url(#j)" d="M227.766 154.364 72.198 236.416c-14.945 7.883-14.945 29.286 0 37.169l155.568 82.051a58.38 58.38 0 0 0 54.469 0l155.568-82.051c14.945-7.883 14.945-29.286 0-37.169l-155.568-82.051a58.377 58.377 0 0 0-54.469-.001z" opacity="1" data-original="url(#j)"/><path fill="url(#k)" d="m437.802 236.416-67.581-35.644-218.038 115 75.582 39.864a58.38 58.38 0 0 0 54.469 0l155.568-82.051c14.945-7.883 14.945-29.287 0-37.169z" opacity="1" data-original="url(#k)"/><path fill="url(#l)" d="m72.198 236.416 67.581-35.644 218.038 115-75.582 39.864a58.38 58.38 0 0 1-54.469 0L72.198 273.584c-14.945-7.882-14.945-29.286 0-37.168z" opacity="1" data-original="url(#l)"/><path fill="url(#m)" d="M227.766 154.364 72.198 236.416c-14.945 7.883-14.945 29.286 0 37.169l155.568 82.051a58.38 58.38 0 0 0 54.469 0l155.568-82.051c14.945-7.883 14.945-29.286 0-37.169l-155.568-82.051a58.377 58.377 0 0 0-54.469-.001z" opacity="1" data-original="url(#m)"/><path fill="url(#n)" d="m227.766 256.609-93.876 49.513 93.876 49.513a58.38 58.38 0 0 0 54.469 0l93.877-49.513-93.877-49.513a58.374 58.374 0 0 0-54.469 0z" opacity="1" data-original="url(#n)"/><path fill="url(#o)" d="M227.766 52.12 72.198 134.171c-14.945 7.883-14.945 29.286 0 37.169l155.568 82.051a58.38 58.38 0 0 0 54.469 0l155.568-82.051c14.945-7.883 14.945-29.286 0-37.169L282.234 52.12a58.372 58.372 0 0 0-54.468 0z" opacity="1" data-original="url(#o)"/><path fill="url(#p)" d="m437.802 134.171-67.581-35.644-218.038 115 75.582 39.864a58.38 58.38 0 0 0 54.469 0l155.568-82.051c14.945-7.883 14.945-29.286 0-37.169z" opacity="1" data-original="url(#p)"/><path fill="url(#q)" d="m72.198 134.171 67.581-35.644 218.038 115-75.582 39.864a58.38 58.38 0 0 1-54.469 0L72.198 171.34c-14.945-7.883-14.945-29.286 0-37.169z" opacity="1" data-original="url(#q)"/><path fill="url(#r)" d="m227.766 154.364-93.876 49.513 93.876 49.513a58.38 58.38 0 0 0 54.469 0l93.877-49.513-93.877-49.513a58.38 58.38 0 0 0-54.469 0z" opacity="1" data-original="url(#r)"/><path fill="url(#s)" d="M29.75 270a7.5 7.5 0 0 0-7.5 7.5v30a7.5 7.5 0 0 0 15 0v-30a7.5 7.5 0 0 0-7.5-7.5z" opacity="1" data-original="url(#s)"/><path fill="url(#t)" d="M29.75 345a7.5 7.5 0 0 0-7.5 7.5v30a7.5 7.5 0 0 0 15 0v-30a7.5 7.5 0 0 0-7.5-7.5z" opacity="1" data-original="url(#t)"/><path fill="url(#u)" d="M29.75 45a7.5 7.5 0 0 0-7.5 7.5v30a7.5 7.5 0 0 0 15 0v-30a7.5 7.5 0 0 0-7.5-7.5z" opacity="1" data-original="url(#u)"/><path fill="url(#v)" d="M29.75 420a7.5 7.5 0 0 0-7.5 7.5v30a7.5 7.5 0 0 0 15 0v-30a7.5 7.5 0 0 0-7.5-7.5z" opacity="1" data-original="url(#v)"/><path fill="url(#w)" d="M29.75 120a7.5 7.5 0 0 0-7.5 7.5v30a7.5 7.5 0 0 0 15 0v-30a7.5 7.5 0 0 0-7.5-7.5z" opacity="1" data-original="url(#w)"/><path fill="url(#x)" d="M29.75 195a7.5 7.5 0 0 0-7.5 7.5v30a7.5 7.5 0 0 0 15 0v-30a7.5 7.5 0 0 0-7.5-7.5z" opacity="1" data-original="url(#x)"/><path fill="url(#y)" d="M480.25 420a7.5 7.5 0 0 0-7.5 7.5v30a7.5 7.5 0 0 0 15 0v-30a7.5 7.5 0 0 0-7.5-7.5z" opacity="1" data-original="url(#y)"/><path fill="url(#z)" d="M480.25 120a7.5 7.5 0 0 0-7.5 7.5v30a7.5 7.5 0 0 0 15 0v-30a7.5 7.5 0 0 0-7.5-7.5z" opacity="1" data-original="url(#z)"/><path fill="url(#A)" d="M480.25 45a7.5 7.5 0 0 0-7.5 7.5v30a7.5 7.5 0 0 0 15 0v-30a7.5 7.5 0 0 0-7.5-7.5z" opacity="1" data-original="url(#A)"/><path fill="url(#B)" d="M480.25 195a7.5 7.5 0 0 0-7.5 7.5v30a7.5 7.5 0 0 0 15 0v-30a7.5 7.5 0 0 0-7.5-7.5z" opacity="1" data-original="url(#B)"/><path fill="url(#C)" d="M480.25 345a7.5 7.5 0 0 0-7.5 7.5v30a7.5 7.5 0 0 0 15 0v-30a7.5 7.5 0 0 0-7.5-7.5z" opacity="1" data-original="url(#C)"/><path fill="url(#D)" d="M480.25 270a7.5 7.5 0 0 0-7.5 7.5v30a7.5 7.5 0 0 0 15 0v-30a7.5 7.5 0 0 0-7.5-7.5z" opacity="1" data-original="url(#D)"/><path fill="url(#v)" d="M82.5 472.75h-30a7.5 7.5 0 0 0 0 15h30a7.5 7.5 0 0 0 0-15z" opacity="1" data-original="url(#v)"/><path fill="url(#t)" d="M157.5 472.75h-30a7.5 7.5 0 0 0 0 15h30a7.5 7.5 0 0 0 0-15z" opacity="1" data-original="url(#t)"/><path fill="url(#w)" d="M382.5 472.75h-30a7.5 7.5 0 0 0 0 15h30a7.5 7.5 0 0 0 0-15z" opacity="1" data-original="url(#w)"/><path fill="url(#s)" d="M232.5 472.75h-30a7.5 7.5 0 0 0 0 15h30a7.5 7.5 0 0 0 0-15z" opacity="1" data-original="url(#s)"/><path fill="url(#u)" d="M457.5 472.75h-30a7.5 7.5 0 0 0 0 15h30a7.5 7.5 0 0 0 0-15z" opacity="1" data-original="url(#u)"/><path fill="url(#x)" d="M307.5 472.75h-30a7.5 7.5 0 0 0 0 15h30a7.5 7.5 0 0 0 0-15z" opacity="1" data-original="url(#x)"/><path fill="url(#y)" d="M82.5 22.25h-30a7.5 7.5 0 0 0 0 15h30a7.5 7.5 0 0 0 0-15z" opacity="1" data-original="url(#y)"/><path fill="url(#A)" d="M457.5 22.25h-30a7.5 7.5 0 0 0 0 15h30a7.5 7.5 0 0 0 0-15z" opacity="1" data-original="url(#A)"/><path fill="url(#z)" d="M382.5 22.25h-30a7.5 7.5 0 0 0 0 15h30a7.5 7.5 0 0 0 0-15z" opacity="1" data-original="url(#z)"/><path fill="url(#B)" d="M307.5 22.25h-30a7.5 7.5 0 0 0 0 15h30a7.5 7.5 0 0 0 0-15z" opacity="1" data-original="url(#B)"/><path fill="url(#C)" d="M157.5 22.25h-30a7.5 7.5 0 0 0 0 15h30a7.5 7.5 0 0 0 0-15z" opacity="1" data-original="url(#C)"/><path fill="url(#D)" d="M232.5 22.25h-30a7.5 7.5 0 0 0 0 15h30a7.5 7.5 0 0 0 0-15z" opacity="1" data-original="url(#D)"/><path fill="url(#E)" d="M52.353 59.5H7.147A7.147 7.147 0 0 1 0 52.353V7.147C0 3.2 3.2 0 7.147 0h45.205C56.3 0 59.5 3.2 59.5 7.147v45.205c0 3.948-3.2 7.148-7.147 7.148z" opacity="1" data-original="url(#E)"/><path fill="url(#F)" d="M0 29.75v22.603C0 56.3 3.2 59.5 7.147 59.5h45.205c3.947 0 7.147-3.2 7.147-7.147V29.75z" opacity="1" data-original="url(#F)"/><path fill="url(#G)" d="M29.75 59.5h22.603c3.947 0 7.147-3.2 7.147-7.147V7.147C59.5 3.2 56.3 0 52.353 0H29.75z" opacity="1" data-original="url(#G)"/><path fill="url(#H)" d="M502.853 59.5h-45.205a7.147 7.147 0 0 1-7.147-7.147V7.147A7.146 7.146 0 0 1 457.647 0h45.205C506.8 0 510 3.2 510 7.147v45.205c0 3.948-3.2 7.148-7.147 7.148z" opacity="1" data-original="url(#H)"/><path fill="url(#I)" d="M450.5 29.75v22.603c0 3.947 3.2 7.147 7.147 7.147h45.205c3.947 0 7.147-3.2 7.147-7.147V29.75z" opacity="1" data-original="url(#I)"/><path fill="url(#J)" d="M480.25 59.5h22.603c3.947 0 7.147-3.2 7.147-7.147V7.147C510 3.2 506.8 0 502.853 0H480.25z" opacity="1" data-original="url(#J)"/><path fill="url(#K)" d="M52.353 510H7.147A7.147 7.147 0 0 1 0 502.853v-45.205c0-3.947 3.2-7.147 7.147-7.147h45.205c3.947 0 7.147 3.2 7.147 7.147v45.205A7.146 7.146 0 0 1 52.353 510z" opacity="1" data-original="url(#K)"/><path fill="url(#L)" d="M0 480.25v22.603C0 506.8 3.2 510 7.147 510h45.205c3.947 0 7.147-3.2 7.147-7.147V480.25z" opacity="1" data-original="url(#L)"/><path fill="url(#M)" d="M29.75 510h22.603c3.947 0 7.147-3.2 7.147-7.147v-45.205c0-3.947-3.2-7.147-7.147-7.147H29.75z" opacity="1" data-original="url(#M)"/><path fill="url(#N)" d="M502.853 510h-45.205a7.147 7.147 0 0 1-7.147-7.147v-45.205c0-3.947 3.2-7.147 7.147-7.147h45.205c3.947 0 7.147 3.2 7.147 7.147v45.205c0 3.947-3.2 7.147-7.147 7.147z" opacity="1" data-original="url(#N)"/><path fill="url(#O)" d="M450.5 480.25v22.603c0 3.947 3.2 7.147 7.147 7.147h45.205c3.947 0 7.147-3.2 7.147-7.147V480.25z" opacity="1" data-original="url(#O)"/><path fill="url(#P)" d="M480.25 510h22.603c3.947 0 7.147-3.2 7.147-7.147v-45.205c0-3.947-3.2-7.147-7.147-7.147H480.25z" opacity="1" data-original="url(#P)"/></g></svg>