<svg xmlns="http://www.w3.org/2000/svg" version="1.1" xmlns:xlink="http://www.w3.org/1999/xlink" x="0" y="0" viewBox="0 0 24 24" style="enable-background:new 0 0 512 512" xml:space="preserve" class=""><g><circle cx="21" cy="18.5" r="1.5" fill="#17a2b8" opacity="1" data-original="#2196f3" class=""/><circle cx="3" cy="18.5" r="1.5" fill="#17a2b8" opacity="1" data-original="#2196f3" class=""/><path fill="#17a2b8" d="M5.25 24H.75a.75.75 0 0 1-.75-.75A2.252 2.252 0 0 1 2.25 21h1.5A2.252 2.252 0 0 1 6 23.25a.75.75 0 0 1-.75.75zM23.25 24h-4.5a.75.75 0 0 1-.75-.75A2.252 2.252 0 0 1 20.25 21h1.5A2.252 2.252 0 0 1 24 23.25a.75.75 0 0 1-.75.75z" opacity="1" data-original="#2196f3" class=""/><path fill="#dcdcdc" d="M20 10h-7V7.75a1 1 0 0 0-2 0V10H4c-1.103 0-2 .897-2 2v2a1 1 0 0 0 2 0v-2h7v2a1 1 0 0 0 2 0v-2h7v2a1 1 0 0 0 2 0v-2c0-1.103-.897-2-2-2z" opacity="1" data-original="#607d8b" class=""/><path fill="#17a2b8" d="M13.5 18.5a1.5 1.5 0 1 1-2.999.001A1.5 1.5 0 0 1 13.5 18.5z" opacity="1" data-original="#2196f3" class=""/><path fill="#ffb400" d="M15.467 8H8.533a.75.75 0 0 1-.737-.611l-.783-4.167a.75.75 0 0 1 1.042-.824l1.68.746L11.353.373c.27-.461 1.026-.461 1.296 0l1.618 2.771 1.68-.746a.751.751 0 0 1 1.042.824l-.783 4.166a.753.753 0 0 1-.739.612z" opacity="1" data-original="#ffc107" class=""/><path fill="#17a2b8" d="M14.25 24h-4.5a.75.75 0 0 1-.75-.75A2.252 2.252 0 0 1 11.25 21h1.5A2.252 2.252 0 0 1 15 23.25a.75.75 0 0 1-.75.75z" opacity="1" data-original="#2196f3" class=""/><path fill="#989898" d="M12 8h-1v2H4c-1.103 0-2 .897-2 2v2a1 1 0 0 0 2 0v-2h7v2a1 1 0 0 0 1 1z" opacity="1" data-original="#546d79" class=""/><path fill="#1789a3" d="M12 17a1.5 1.5 0 1 0 0 3z" opacity="1" data-original="#1d83d4" class=""/><path fill="#e28a00" d="M12 .026c-.257 0-.513.115-.648.346L9.734 3.144l-1.68-.746a.746.746 0 0 0-.305-.066.754.754 0 0 0-.737.89l.783 4.166A.751.751 0 0 0 8.533 8H12z" opacity="1" data-original="#dea806" class=""/><g fill="#1d83d4"><path d="M12 21h-.75A2.252 2.252 0 0 0 9 23.25c0 .414.336.75.75.75H12zM3 17a1.5 1.5 0 1 0 0 3zM3 21h-.75A2.252 2.252 0 0 0 0 23.25c0 .414.336.75.75.75H3zM21 17a1.5 1.5 0 1 0 0 3zM21 21h-.75A2.252 2.252 0 0 0 18 23.25c0 .414.336.75.75.75H21z" fill="#1789a3" opacity="1" data-original="#1d83d4" class=""/></g></g></svg>