<svg xmlns="http://www.w3.org/2000/svg" version="1.1" xmlns:xlink="http://www.w3.org/1999/xlink" x="0" y="0" viewBox="0 0 510 510" style="enable-background:new 0 0 512 512" xml:space="preserve" class=""><g><linearGradient id="a"><stop offset="0" stop-color="#bbec6c"/><stop offset="1" stop-color="#81b823"/></linearGradient><linearGradient xlink:href="#a" id="g" x1="342.604" x2="395.237" y1="82.367" y2="134.999" gradientUnits="userSpaceOnUse"/><linearGradient id="b"><stop offset="0" stop-color="#78a91f" stop-opacity="0"/><stop offset="1" stop-color="#78a91f"/></linearGradient><linearGradient xlink:href="#b" id="h" x1="383.282" x2="341.949" y1="112.238" y2="108.904" gradientUnits="userSpaceOnUse"/><linearGradient id="i" x1="364.433" x2="320.433" y1="135.663" y2="92.329" gradientUnits="userSpaceOnUse"><stop offset="0" stop-color="#433f43" stop-opacity="0"/><stop offset="1" stop-color="#1a1a1a"/></linearGradient><linearGradient xlink:href="#a" id="j" x1="292.25" x2="316.839" y1="48.982" y2="101.331" gradientUnits="userSpaceOnUse"/><linearGradient xlink:href="#b" id="k" x1="341.333" x2="354.07" y1="70.866" y2="70.866" gradientUnits="userSpaceOnUse"/><linearGradient id="l" x1="241" x2="276.355" y1="110.865" y2="110.865" gradientUnits="userSpaceOnUse"><stop offset="0" stop-color="#e6e6e6"/><stop offset="1" stop-color="#999"/></linearGradient><linearGradient id="m" x1="156.868" x2="251.529" y1="230.785" y2="454.186" gradientUnits="userSpaceOnUse"><stop offset="0" stop-color="#f9f5f3"/><stop offset="1" stop-color="#d8e8f0"/></linearGradient><linearGradient id="n" x1="175.605" x2="258.368" y1="275.004" y2="470.325" gradientUnits="userSpaceOnUse"><stop offset="0" stop-color="#b3dafe"/><stop offset="1" stop-color="#0182fc"/></linearGradient><linearGradient id="c"><stop offset="0" stop-color="#0182fc" stop-opacity="0"/><stop offset=".188" stop-color="#0181f8" stop-opacity=".188"/><stop offset=".351" stop-color="#017dee" stop-opacity=".351"/><stop offset=".505" stop-color="#0176dc" stop-opacity=".505"/><stop offset=".654" stop-color="#016dc3" stop-opacity=".654"/><stop offset=".799" stop-color="#0261a2" stop-opacity=".799"/><stop offset=".938" stop-color="#02537b" stop-opacity=".938"/><stop offset="1" stop-color="#024c67"/></linearGradient><linearGradient xlink:href="#c" id="o" x1="135.079" x2="279.079" y1="169.829" y2="547.829" gradientUnits="userSpaceOnUse"/><linearGradient xlink:href="#c" id="p" x1="328.934" x2="186.934" y1="306.027" y2="414.027" gradientUnits="userSpaceOnUse"/><linearGradient xlink:href="#c" id="q" x1="255" x2="255" y1="433.669" y2="505.696" gradientUnits="userSpaceOnUse"/><linearGradient id="d"><stop offset="0" stop-color="#fef0ae"/><stop offset="1" stop-color="#fbc56d"/></linearGradient><linearGradient xlink:href="#d" id="r" x1="101.816" x2="144.985" y1="125.644" y2="168.814" gradientUnits="userSpaceOnUse"/><linearGradient id="e"><stop offset="0" stop-color="#f6a96c" stop-opacity="0"/><stop offset=".996" stop-color="#f6a96c" stop-opacity=".996"/><stop offset="1" stop-color="#f6a96c"/></linearGradient><linearGradient xlink:href="#e" id="s" x1="151.622" x2="91.955" y1="137.415" y2="162.081" gradientUnits="userSpaceOnUse"/><linearGradient xlink:href="#e" id="t" x1="136.043" x2="103.376" y1="158.589" y2="144.589" gradientUnits="userSpaceOnUse"/><linearGradient xlink:href="#e" id="u" x1="-1714.763" x2="-1747.43" y1="158.589" y2="144.589" gradientTransform="matrix(-1 0 0 1 -1599.296 0)" gradientUnits="userSpaceOnUse"/><linearGradient xlink:href="#e" id="v" x1="116.193" x2="137.193" y1="160.227" y2="126.477" gradientUnits="userSpaceOnUse"/><linearGradient xlink:href="#e" id="w" x1="133.707" x2="131.957" y1="155.965" y2="122.965" gradientUnits="userSpaceOnUse"/><linearGradient id="f"><stop offset="0" stop-color="#dc8758" stop-opacity="0"/><stop offset=".996" stop-color="#dc8758" stop-opacity=".996"/><stop offset="1" stop-color="#dc8758"/></linearGradient><linearGradient xlink:href="#f" id="x" x1="125.755" x2="125.755" y1="164.077" y2="200.744" gradientUnits="userSpaceOnUse"/><linearGradient xlink:href="#d" id="y" x1="29.816" x2="72.985" y1="233.644" y2="276.814" gradientUnits="userSpaceOnUse"/><linearGradient xlink:href="#e" id="z" x1="79.622" x2="19.955" y1="245.415" y2="270.081" gradientUnits="userSpaceOnUse"/><linearGradient xlink:href="#e" id="A" x1="64.043" x2="31.376" y1="266.589" y2="252.589" gradientUnits="userSpaceOnUse"/><linearGradient xlink:href="#e" id="B" x1="-1642.763" x2="-1675.43" y1="266.589" y2="252.589" gradientTransform="matrix(-1 0 0 1 -1599.296 0)" gradientUnits="userSpaceOnUse"/><linearGradient xlink:href="#e" id="C" x1="44.193" x2="65.193" y1="268.227" y2="234.477" gradientUnits="userSpaceOnUse"/><linearGradient xlink:href="#e" id="D" x1="61.707" x2="59.957" y1="263.965" y2="230.965" gradientUnits="userSpaceOnUse"/><linearGradient xlink:href="#f" id="E" x1="53.755" x2="53.755" y1="272.077" y2="308.744" gradientUnits="userSpaceOnUse"/><linearGradient xlink:href="#d" id="F" x1="432.306" x2="475.475" y1="233.644" y2="276.814" gradientUnits="userSpaceOnUse"/><linearGradient xlink:href="#e" id="G" x1="482.112" x2="422.445" y1="245.415" y2="270.081" gradientUnits="userSpaceOnUse"/><linearGradient xlink:href="#e" id="H" x1="466.533" x2="433.866" y1="266.589" y2="252.589" gradientUnits="userSpaceOnUse"/><linearGradient xlink:href="#e" id="I" x1="-1312.273" x2="-1344.94" y1="266.589" y2="252.589" gradientTransform="matrix(-1 0 0 1 -866.316 0)" gradientUnits="userSpaceOnUse"/><linearGradient xlink:href="#e" id="J" x1="446.683" x2="467.683" y1="268.227" y2="234.477" gradientUnits="userSpaceOnUse"/><linearGradient xlink:href="#e" id="K" x1="464.196" x2="462.446" y1="263.965" y2="230.965" gradientUnits="userSpaceOnUse"/><linearGradient xlink:href="#f" id="L" x1="456.245" x2="456.245" y1="272.077" y2="308.744" gradientUnits="userSpaceOnUse"/><path fill="url(#g)" d="M339.896 70.239h68.729a7.585 7.585 0 0 1 7.585 7.585v72.535a7.585 7.585 0 0 1-7.585 7.585h-65.767c-7.953 0-14.401-6.447-14.401-14.401V58.8c0 6.318 5.121 11.439 11.439 11.439z" opacity="1" data-original="url(#g)"/><path fill="url(#h)" d="M396.699 70.239h-56.803c-6.318 0-11.439-5.121-11.439-11.439v84.744c0 7.953 6.447 14.401 14.401 14.401h53.841z" opacity="1" data-original="url(#h)"/><path fill="url(#i)" d="M342.433 90.986h-13.977v54.099c0-5.659 4.587-10.246 10.246-10.246h.336c7.953 0 14.401-6.447 14.401-14.401V79.981c0 6.078-4.927 11.005-11.006 11.005z" opacity="1" data-original="url(#i)"/><path fill="url(#j)" d="M342 109h-90.502V21.294h87.54c7.953 0 14.401 6.447 14.401 14.401v84.744c0-6.318-5.121-11.439-11.439-11.439z" opacity="1" data-original="url(#j)" class=""/><path fill="url(#k)" d="M342 109c6.318 0 11.439 5.121 11.439 11.439V35.694c0-7.953-6.447-14.401-14.401-14.401h-10.581V109z" opacity="1" data-original="url(#k)" class=""/><path fill="url(#l)" d="M233.5 21.5v178.73c0 11.874 9.626 21.5 21.5 21.5s21.5-9.626 21.5-21.5V21.5C276.5 9.626 266.874 0 255 0s-21.5 9.626-21.5 21.5z" opacity="1" data-original="url(#l)" class=""/><path fill="url(#m)" d="M490.497 417.254c-21.037-16.926-39.887-33.657-56.777-50.039-75.71-73.44-112.03-139.87-129.42-185.47-5.99-15.71-28.61-14.51-32.9 1.76-2.225 8.42-9.313 12.63-16.4 12.63s-14.175-4.21-16.4-12.63c-4.29-16.27-26.91-17.47-32.9-1.76-17.39 45.6-53.71 112.03-129.42 185.47-16.89 16.382-35.74 33.114-56.777 50.039C7.148 427.194 0 442.23 0 458.088V469c0 22.644 18.356 41 41 41h428c22.644 0 41-18.356 41-41v-10.912c0-15.858-7.148-30.894-19.503-40.834z" opacity="1" data-original="url(#m)"/><path fill="url(#n)" d="M510 458.085v10.91c0 22.65-18.36 41-41 41H41c-22.64 0-41-18.35-41-41v-10.91c0-15.85 7.15-30.89 19.5-40.83 21.04-16.93 39.89-33.66 56.78-50.04 42.46-41.19 72.53-80.17 93.82-114.51.95-.35 1.89-.76 2.8-1.22l66.48-33.32a34.905 34.905 0 0 1 31.24 0l66.48 33.32c.91.46 1.85.87 2.8 1.22 21.29 34.34 51.36 73.32 93.82 114.51 16.89 16.38 35.74 33.11 56.78 50.04 12.35 9.94 19.5 24.98 19.5 40.83z" opacity="1" data-original="url(#n)"/><path fill="url(#o)" d="M407.298 510v-16.397c0-49.342-13.279-72.44-38.411-114.902a760.451 760.451 0 0 1-7.147-12.338c-43.448-76.671-65.169-146.297-76.017-195.584-6.392.875-12.332 5.174-14.323 12.725-4.45 16.84-28.35 16.84-32.8 0-1.987-7.549-7.926-11.848-14.323-12.725-10.848 49.286-32.569 118.913-76.017 195.583a753.139 753.139 0 0 1-7.147 12.338c-25.132 42.462-38.411 65.56-38.411 114.902V510z" opacity="1" data-original="url(#o)"/><path fill="url(#p)" d="M284.584 369.899c-.635-4.364-1.254-8.708-1.856-13.031-8.504-61.014-13.802-117.8-17.104-164.36-6.094 4.82-15.152 4.82-21.247 0-3.302 46.56-8.6 103.346-17.104 164.36-.603 4.323-1.221 8.668-1.856 13.031-6.528 44.848-9.978 70.668-9.978 122.782V510h79.124v-17.319c-.001-52.114-3.451-77.934-9.979-122.782z" opacity="1" data-original="url(#p)"/><path fill="url(#q)" d="M76.28 367.215c-16.89 16.382-35.74 33.114-56.777 50.039C7.148 427.194 0 442.23 0 458.088V469c0 22.644 18.356 41 41 41h428c22.644 0 41-18.356 41-41v-10.912c0-15.857-7.148-30.894-19.503-40.834-21.037-16.926-39.887-33.657-56.777-50.039a714.263 714.263 0 0 1-23.851-24.252H100.131a714.263 714.263 0 0 1-23.851 24.252z" opacity="1" data-original="url(#q)"/><path fill="url(#r)" d="m172.88 122.516-22.538-5.446a8.658 8.658 0 0 1-5.137-3.564l-12.992-19.205a8.563 8.563 0 0 0-6.457-3.77 8.565 8.565 0 0 0-6.457 3.77l-12.992 19.205a8.66 8.66 0 0 1-5.137 3.564l-22.538 5.446c-6.114 1.477-8.661 8.774-4.796 13.736l14.25 18.291a8.657 8.657 0 0 1 1.802 5.987l-1.786 23.118c-.484 6.271 5.668 10.949 11.581 8.806l21.8-7.901a8.647 8.647 0 0 1 4.273-.407 8.65 8.65 0 0 1 4.273.407l21.8 7.901c5.913 2.143 12.066-2.535 11.581-8.806l-1.786-23.118a8.659 8.659 0 0 1 1.802-5.987l14.25-18.291c3.865-4.961 1.317-12.259-4.796-13.736z" opacity="1" data-original="url(#r)"/><path fill="url(#s)" d="m130.028 184.554 21.8 7.901c5.913 2.143 12.066-2.535 11.581-8.806l-1.786-23.118a8.659 8.659 0 0 1 1.802-5.987l14.25-18.291c3.865-4.961 1.317-12.259-4.796-13.736l-22.538-5.446a8.658 8.658 0 0 1-5.137-3.564l-12.992-19.205a8.563 8.563 0 0 0-6.457-3.77v93.616a8.637 8.637 0 0 1 4.273.406z" opacity="1" data-original="url(#s)" class=""/><path fill="url(#t)" d="m172.88 122.516-22.538-5.446a8.693 8.693 0 0 1-2.183-.856l-57.454 74.315c2.254 2.178 5.654 3.13 8.979 1.925l21.8-7.901a8.647 8.647 0 0 1 4.273-.407 8.65 8.65 0 0 1 4.273.407l21.8 7.901c5.913 2.143 12.066-2.535 11.581-8.806l-1.786-23.118a8.659 8.659 0 0 1 1.802-5.987l14.25-18.291c3.864-4.961 1.316-12.259-4.797-13.736z" opacity="1" data-original="url(#t)"/><path fill="url(#u)" d="m78.63 122.516 22.538-5.446a8.693 8.693 0 0 0 2.183-.856l57.454 74.315c-2.254 2.178-5.654 3.13-8.979 1.925l-21.8-7.901a8.647 8.647 0 0 0-4.273-.407 8.65 8.65 0 0 0-4.273.407l-21.8 7.901c-5.913 2.143-12.066-2.535-11.581-8.806l1.786-23.118a8.659 8.659 0 0 0-1.802-5.987l-14.25-18.291c-3.864-4.961-1.316-12.259 4.797-13.736z" opacity="1" data-original="url(#u)"/><path fill="url(#v)" d="M72.632 127.739c-1.072 2.703-.815 5.923 1.203 8.513l14.25 18.291a8.657 8.657 0 0 1 1.802 5.987l-1.786 23.118c-.484 6.271 5.668 10.949 11.581 8.806l21.8-7.901a8.647 8.647 0 0 1 4.273-.407 8.65 8.65 0 0 1 4.273.407l21.8 7.901c5.913 2.143 12.066-2.535 11.581-8.806l-1.786-23.118a8.637 8.637 0 0 1 .458-3.491z" opacity="1" data-original="url(#v)"/><path fill="url(#w)" d="M178.887 127.739c1.072 2.703.815 5.923-1.203 8.513l-14.25 18.291a8.657 8.657 0 0 0-1.802 5.987l1.786 23.118c.484 6.271-5.668 10.949-11.581 8.806l-21.8-7.901a8.647 8.647 0 0 0-4.273-.407 8.65 8.65 0 0 0-4.273.407l-21.8 7.901c-5.913 2.143-12.066-2.535-11.581-8.806l1.786-23.118a8.637 8.637 0 0 0-.458-3.491z" opacity="1" data-original="url(#w)"/><path fill="url(#x)" d="M170.521 145.436H80.989l7.095 9.107a8.657 8.657 0 0 1 1.802 5.987L88.1 183.648c-.484 6.271 5.668 10.949 11.581 8.806l21.8-7.901a8.647 8.647 0 0 1 4.273-.407 8.65 8.65 0 0 1 4.273.407l21.8 7.901c5.913 2.143 12.066-2.535 11.581-8.806l-1.786-23.118a8.659 8.659 0 0 1 1.802-5.987z" opacity="1" data-original="url(#x)"/><path fill="url(#y)" d="m100.88 230.516-22.538-5.446a8.658 8.658 0 0 1-5.137-3.564l-12.992-19.205a8.563 8.563 0 0 0-6.457-3.77 8.565 8.565 0 0 0-6.457 3.77l-12.992 19.205a8.66 8.66 0 0 1-5.137 3.564l-22.54 5.446c-6.114 1.477-8.661 8.774-4.796 13.736l14.25 18.291a8.657 8.657 0 0 1 1.802 5.987L16.1 291.648c-.484 6.271 5.668 10.949 11.581 8.806l21.8-7.901a8.647 8.647 0 0 1 4.273-.407 8.65 8.65 0 0 1 4.273.407l21.8 7.901c5.913 2.143 12.066-2.535 11.581-8.806l-1.786-23.118a8.659 8.659 0 0 1 1.802-5.987l14.25-18.291c3.867-4.961 1.319-12.259-4.794-13.736z" opacity="1" data-original="url(#y)"/><path fill="url(#z)" d="m58.028 292.554 21.8 7.901c5.913 2.143 12.066-2.535 11.581-8.806l-1.786-23.118a8.659 8.659 0 0 1 1.802-5.987l14.25-18.291c3.865-4.961 1.317-12.259-4.796-13.736l-22.538-5.446a8.658 8.658 0 0 1-5.137-3.564l-12.992-19.205a8.563 8.563 0 0 0-6.457-3.77v93.616a8.637 8.637 0 0 1 4.273.406z" opacity="1" data-original="url(#z)"/><path fill="url(#A)" d="m100.88 230.516-22.538-5.446a8.693 8.693 0 0 1-2.183-.856l-57.454 74.315c2.254 2.178 5.654 3.13 8.979 1.925l21.8-7.901a8.647 8.647 0 0 1 4.273-.407 8.65 8.65 0 0 1 4.273.407l21.8 7.901c5.913 2.143 12.066-2.535 11.581-8.806l-1.786-23.118a8.659 8.659 0 0 1 1.802-5.987l14.25-18.291c3.864-4.961 1.316-12.259-4.797-13.736z" opacity="1" data-original="url(#A)"/><path fill="url(#B)" d="m6.63 230.516 22.538-5.446a8.693 8.693 0 0 0 2.183-.856l57.454 74.315c-2.254 2.178-5.654 3.13-8.979 1.925l-21.8-7.901a8.647 8.647 0 0 0-4.273-.407 8.65 8.65 0 0 0-4.273.407l-21.8 7.901c-5.913 2.143-12.066-2.535-11.581-8.806l1.786-23.118a8.659 8.659 0 0 0-1.802-5.987l-14.25-18.291c-3.864-4.961-1.316-12.259 4.797-13.736z" opacity="1" data-original="url(#B)"/><path fill="url(#C)" d="M.632 235.739c-1.072 2.703-.815 5.923 1.203 8.513l14.25 18.291a8.657 8.657 0 0 1 1.802 5.987l-1.786 23.118c-.484 6.271 5.668 10.949 11.581 8.806l21.8-7.901a8.647 8.647 0 0 1 4.273-.407 8.65 8.65 0 0 1 4.273.407l21.8 7.901c5.913 2.143 12.066-2.535 11.581-8.806l-1.786-23.118a8.637 8.637 0 0 1 .458-3.491z" opacity="1" data-original="url(#C)"/><path fill="url(#D)" d="M106.887 235.739c1.072 2.703.815 5.923-1.203 8.513l-14.25 18.291a8.657 8.657 0 0 0-1.802 5.987l1.786 23.118c.484 6.271-5.668 10.949-11.581 8.806l-21.8-7.901a8.647 8.647 0 0 0-4.273-.407 8.65 8.65 0 0 0-4.273.407l-21.8 7.901c-5.913 2.143-12.066-2.535-11.581-8.806l1.786-23.118a8.637 8.637 0 0 0-.458-3.491z" opacity="1" data-original="url(#D)"/><path fill="url(#E)" d="M98.521 253.436H8.989l7.095 9.107a8.657 8.657 0 0 1 1.802 5.987L16.1 291.648c-.484 6.271 5.668 10.949 11.581 8.806l21.8-7.901a8.647 8.647 0 0 1 4.273-.407 8.65 8.65 0 0 1 4.273.407l21.8 7.901c5.913 2.143 12.066-2.535 11.581-8.806l-1.786-23.118a8.659 8.659 0 0 1 1.802-5.987z" opacity="1" data-original="url(#E)"/><path fill="url(#F)" d="m503.37 230.516-22.538-5.446a8.658 8.658 0 0 1-5.137-3.564l-12.992-19.205a8.563 8.563 0 0 0-6.457-3.77 8.565 8.565 0 0 0-6.457 3.77l-12.992 19.205a8.66 8.66 0 0 1-5.137 3.564l-22.538 5.446c-6.114 1.477-8.661 8.774-4.796 13.736l14.25 18.291a8.657 8.657 0 0 1 1.802 5.987l-1.786 23.118c-.484 6.271 5.668 10.949 11.581 8.806l21.799-7.901a8.647 8.647 0 0 1 4.273-.407 8.65 8.65 0 0 1 4.273.407l21.8 7.901c5.913 2.143 12.066-2.535 11.581-8.806l-1.786-23.118a8.659 8.659 0 0 1 1.802-5.987l14.25-18.291c3.866-4.961 1.318-12.259-4.795-13.736z" opacity="1" data-original="url(#F)"/><path fill="url(#G)" d="m460.518 292.554 21.8 7.901c5.913 2.143 12.066-2.535 11.581-8.806l-1.786-23.118a8.659 8.659 0 0 1 1.802-5.987l14.25-18.291c3.865-4.961 1.317-12.259-4.796-13.736l-22.538-5.446a8.658 8.658 0 0 1-5.137-3.564l-12.992-19.205a8.563 8.563 0 0 0-6.457-3.77v93.616a8.637 8.637 0 0 1 4.273.406z" opacity="1" data-original="url(#G)"/><path fill="url(#H)" d="m503.37 230.516-22.538-5.446a8.693 8.693 0 0 1-2.183-.856l-57.454 74.315c2.254 2.178 5.654 3.13 8.979 1.925l21.799-7.901a8.647 8.647 0 0 1 4.273-.407 8.65 8.65 0 0 1 4.273.407l21.8 7.901c5.913 2.143 12.066-2.535 11.581-8.806l-1.786-23.118a8.659 8.659 0 0 1 1.802-5.987l14.25-18.291c3.865-4.961 1.317-12.259-4.796-13.736z" opacity="1" data-original="url(#H)"/><path fill="url(#I)" d="m409.12 230.516 22.538-5.446a8.693 8.693 0 0 0 2.183-.856l57.454 74.315c-2.254 2.178-5.654 3.13-8.979 1.925l-21.8-7.901a8.647 8.647 0 0 0-4.273-.407 8.65 8.65 0 0 0-4.273.407l-21.799 7.901c-5.913 2.143-12.066-2.535-11.581-8.806l1.786-23.118a8.659 8.659 0 0 0-1.802-5.987l-14.25-18.291c-3.865-4.961-1.317-12.259 4.796-13.736z" opacity="1" data-original="url(#I)"/><path fill="url(#J)" d="M403.122 235.739c-1.072 2.703-.815 5.923 1.203 8.513l14.25 18.291a8.657 8.657 0 0 1 1.802 5.987l-1.786 23.118c-.484 6.271 5.668 10.949 11.581 8.806l21.799-7.901a8.647 8.647 0 0 1 4.273-.407 8.65 8.65 0 0 1 4.273.407l21.8 7.901c5.913 2.143 12.066-2.535 11.581-8.806l-1.786-23.118a8.637 8.637 0 0 1 .458-3.491z" opacity="1" data-original="url(#J)"/><path fill="url(#K)" d="M509.377 235.739c1.072 2.703.815 5.923-1.203 8.513l-14.25 18.291a8.657 8.657 0 0 0-1.802 5.987l1.786 23.118c.484 6.271-5.668 10.949-11.581 8.806l-21.799-7.901a8.647 8.647 0 0 0-4.273-.407 8.65 8.65 0 0 0-4.273.407l-21.799 7.901c-5.913 2.143-12.066-2.535-11.581-8.806l1.786-23.118a8.637 8.637 0 0 0-.458-3.491z" opacity="1" data-original="url(#K)"/><path fill="url(#L)" d="M501.011 253.436H411.48l7.095 9.107a8.657 8.657 0 0 1 1.802 5.987l-1.786 23.118c-.484 6.271 5.668 10.949 11.581 8.806l21.8-7.901a8.647 8.647 0 0 1 4.273-.407 8.65 8.65 0 0 1 4.273.407l21.8 7.901c5.913 2.143 12.066-2.535 11.581-8.806l-1.786-23.118a8.659 8.659 0 0 1 1.802-5.987z" opacity="1" data-original="url(#L)"/></g></svg>