<svg xmlns="http://www.w3.org/2000/svg" version="1.1" xmlns:xlink="http://www.w3.org/1999/xlink" x="0" y="0" viewBox="0 0 64 64" style="enable-background:new 0 0 512 512" xml:space="preserve"><g><g data-name="Layer 31"><path fill="#d08d78" d="m3 63 3.774-5.931A20.632 20.632 0 0 0 10 45.991a13.131 13.131 0 0 0-3.316-8.722A18.544 18.544 0 0 1 2 24.95 22.95 22.95 0 0 1 24.95 2a22.892 22.892 0 0 1 16.5 7L51 33l.675 1.351A3.069 3.069 0 0 1 52 35.726a3.075 3.075 0 0 1-.9 2.175L49 40l-1.492 10.446A4.14 4.14 0 0 1 43.41 54a4.171 4.171 0 0 1-.812-.08l-3.964-.793A6.486 6.486 0 0 0 37.353 53a6.531 6.531 0 0 0-6.4 5.249L30 63z" opacity="1" data-original="#d08d78"/><path fill="#f2b9a1" d="M47.508 50.446 49 40l2.1-2.1a3.074 3.074 0 0 0 .576-3.55L51 33 41.451 9a22.892 22.892 0 0 0-16.5-7 22.958 22.958 0 0 0-5.976.791A22.943 22.943 0 0 0 7 22.95a18.544 18.544 0 0 0 4.684 12.319A13.131 13.131 0 0 1 15 43.991a20.632 20.632 0 0 1-3.226 11.078A3.859 3.859 0 0 0 15.03 61H30.4l.55-2.751a6.529 6.529 0 0 1 7.684-5.122l3.964.793a4.142 4.142 0 0 0 4.91-3.474z" opacity="1" data-original="#f2b9a1"/><path fill="#b3dcfb" d="M26 17H3.416A22.9 22.9 0 0 0 2 24.95V25h24z" opacity="1" data-original="#b3dcfb"/><path fill="#e0ebfa" d="M7 22.95A18.4 18.4 0 0 0 7.127 25H26v-8H7.788A22.979 22.979 0 0 0 7 22.95z" opacity="1" data-original="#e0ebfa"/><path fill="#4c4c4c" d="m60 29-2 4H39.314a17.657 17.657 0 0 1-12.486-5.172A9.656 9.656 0 0 1 24 21a9.656 9.656 0 0 1 2.828-6.828A17.657 17.657 0 0 1 39.314 9H58l2 4z" opacity="1" data-original="#4c4c4c"/><path fill="#686868" d="M28.049 13.066a9.639 9.639 0 0 0 .779 12.762A17.657 17.657 0 0 0 41.314 31H59l1-2V13l-2-4H39.314a17.657 17.657 0 0 0-11.265 4.066z" opacity="1" data-original="#686868"/><path fill="#b3dcfb" d="M44 33a12 12 0 0 1-12-12A12 12 0 0 1 44 9h14l2 4v16l-2 4z" opacity="1" data-original="#b3dcfb"/><path fill="#e0ebfa" d="M36.581 11.581A11.988 11.988 0 0 0 46 31h13l1-2V13l-2-4H44a11.93 11.93 0 0 0-7.419 2.581z" opacity="1" data-original="#e0ebfa"/><path fill="#43b6e5" d="M62 27a2 2 0 0 1-2 2H44a8 8 0 0 1-8-8 8 8 0 0 1 8-8h16a2 2 0 0 1 2 2z" opacity="1" data-original="#43b6e5"/><path fill="#8adef9" d="M60 13H44a7.96 7.96 0 0 0-4.565 1.435A7.995 7.995 0 0 0 46 27h16V15a2 2 0 0 0-2-2z" opacity="1" data-original="#8adef9"/></g></g></svg>