<svg xmlns="http://www.w3.org/2000/svg" version="1.1" xmlns:xlink="http://www.w3.org/1999/xlink" x="0" y="0" viewBox="0 0 682.667 682.667" style="enable-background:new 0 0 512 512" xml:space="preserve"><g><defs><clipPath id="a" clipPathUnits="userSpaceOnUse"><path d="M0 512h512V0H0Z" fill="#000000" opacity="1" data-original="#000000"/></clipPath></defs><g clip-path="url(#a)" transform="matrix(1.33333 0 0 -1.33333 0 682.667)"><path d="M0 0c-135.31 0-245-109.69-245-245 0-49.574 14.738-95.699 40.052-134.262l309.846 29.364 100.051 239.16C161.171-44.049 85.735 0 0 0" style="fill-opacity:1;fill-rule:nonzero;stroke:none" transform="translate(256 501)" fill="#00adf4" data-original="#00adf4"/><path d="M0 0c-1.246 0-2.459-.141-3.628-.399a26.307 26.307 0 0 1 2.01 10.111c0 14.585-11.824 26.409-26.409 26.409-2.388 0-4.699-.322-6.898-.916-2.205 18.908-18.274 33.583-37.774 33.583s-35.571-14.675-37.776-33.583a26.402 26.402 0 0 1-6.896.916c-14.586 0-26.409-11.824-26.409-26.409 0-3.583.717-6.996 2.009-10.111a16.806 16.806 0 0 1-3.628.399c-9.222 0-16.698-7.476-16.698-16.697 0-9.223 7.476-16.699 16.698-16.699H0c9.222 0 16.698 7.476 16.698 16.699C16.698-7.476 9.222 0 0 0" style="fill-opacity:1;fill-rule:nonzero;stroke:none" transform="translate(367.728 390.657)" fill="#e6f8fc" data-original="#e6f8fc"/><path d="M0 0c0 .517.021 1.028.053 1.538L0 1.537c-21.007 0-38.036 17.029-38.036 38.036 0 1.506.091 2.991.261 4.452-2.2.594-4.51.916-6.897.916-14.586 0-26.409-11.824-26.409-26.409 0-3.583.717-6.996 2.009-10.111a16.743 16.743 0 0 1-3.628.399c-9.222 0-16.697-7.475-16.697-16.697 0-9.223 7.475-16.698 16.697-16.698h97.274C11.002-24.575 0-13.572 0 0" style="fill-opacity:1;fill-rule:nonzero;stroke:none" transform="translate(295.03 381.837)" fill="#b8e9fa" data-original="#b8e9fa"/><path d="M0 0c-18.91 2.026-25.406 26.271-10.043 37.481a10.868 10.868 0 0 1-10.806 18.716c-17.389-7.7-35.138 10.049-27.438 27.439a10.866 10.866 0 0 1-4.503 13.811 10.866 10.866 0 0 1-14.213-3.006c-11.21-15.363-35.455-8.867-37.481 10.043a10.868 10.868 0 0 1-21.612 0c-2.026-18.91-26.271-25.406-37.481-10.043a10.866 10.866 0 0 1-14.213 3.006 10.866 10.866 0 0 1-4.503-13.811c7.7-17.39-10.049-35.139-27.438-27.439a10.868 10.868 0 0 1-10.806-18.716C-205.174 26.271-211.67 2.026-230.58 0a10.868 10.868 0 0 1 0-21.611c18.91-2.027 25.406-26.272 10.043-37.482a10.868 10.868 0 0 1 10.806-18.716c17.389 7.701 35.138-10.048 27.438-27.438a10.867 10.867 0 0 1 18.716-10.806c11.21 15.364 35.455 8.867 37.481-10.043a10.868 10.868 0 0 1 21.612 0c2.026 18.91 26.271 25.407 37.481 10.043a10.868 10.868 0 0 1 18.716 10.806c-7.7 17.39 10.049 35.139 27.438 27.438a10.868 10.868 0 0 1 10.806 18.716C-25.406-47.883-18.91-23.638 0-21.611A10.867 10.867 0 0 1 0 0" style="fill-opacity:1;fill-rule:nonzero;stroke:none" transform="translate(240.29 397.806)" fill="#fff442" data-original="#fff442"/><path d="M0 0c0-47.069-38.158-85.228-85.228-85.228-47.069 0-85.227 38.159-85.227 85.228 0 47.069 38.158 85.228 85.227 85.228C-38.158 85.228 0 47.069 0 0" style="fill-opacity:1;fill-rule:nonzero;stroke:none" transform="translate(210.227 387)" fill="#ffe400" data-original="#ffe400"/><path d="M0 0c8.906-8.905 8.906-23.344 0-32.249-8.905-8.905-23.344-8.905-32.249 0-8.905 8.905-8.905 23.344 0 32.249C-23.344 8.906-8.905 8.906 0 0" style="fill-opacity:1;fill-rule:nonzero;stroke:none" transform="translate(174.216 436.216)" fill="#fff442" data-original="#fff442"/><path d="M0 0c0 40.222 27.864 73.931 65.341 82.889a85.463 85.463 0 0 1-19.887 2.339C-1.615 85.228-39.773 47.069-39.773 0c0-47.069 38.158-85.228 85.227-85.228 6.848 0 13.506.814 19.887 2.339C27.864-73.931 0-40.222 0 0" style="fill-opacity:1;fill-rule:nonzero;stroke:none" transform="translate(79.546 387)" fill="#fdca00" data-original="#fdca00"/><path d="M0 0a29.413 29.413 0 0 1-17.282-5.586c-.228 17.531-11.687 32.345-27.515 37.584a63.707 63.707 0 0 1 8.598 32.033c0 35.364-28.668 64.031-64.031 64.031-33.196 0-60.489-25.261-63.71-57.608a65.872 65.872 0 0 1-15.799 1.924c-36.309 0-65.743-29.435-65.743-65.744 0-3.192.239-6.327.678-9.398A29.412 29.412 0 0 1-257.281 0c-16.323 0-29.555-13.232-29.555-29.555s13.232-29.554 29.555-29.554H0c16.322 0 29.555 13.231 29.555 29.554S16.322 0 0 0" style="fill-opacity:1;fill-rule:nonzero;stroke:none" transform="translate(338.173 249.258)" fill="#e6f8fc" data-original="#e6f8fc"/><path d="M0 0c0 5.407.887 10.605 2.501 15.471-22.452 9.95-38.122 32.416-38.122 58.554 0 2.168.11 4.31.321 6.423a65.86 65.86 0 0 1-15.799 1.924c-36.308 0-65.743-29.434-65.743-65.744 0-3.191.239-6.327.679-9.398a29.416 29.416 0 0 1-12.478 2.764c-16.323 0-29.554-13.232-29.554-29.555s13.231-29.554 29.554-29.554H49.115C21.989-49.115 0-27.126 0 0" style="fill-opacity:1;fill-rule:nonzero;stroke:none" transform="translate(209.532 239.264)" fill="#b8e9fa" data-original="#b8e9fa"/><path d="M0 0c-62.836-62.112-112.15-92.051-157.976-113.689l-30.973-54.04-140.725-32.384c-24.473-17.408-50.873-39.397-80.223-68.41 43.777-66.69 119.212-110.739 204.948-110.739 135.309 0 245 109.691 245 245C40.051-84.688 25.312-38.563 0 0" style="fill-opacity:1;fill-rule:nonzero;stroke:none" transform="translate(460.95 390.262)" fill="#41416b" data-original="#41416b"/><path d="M0 0c16.322 0 29.555 13.231 29.555 29.555 0 16.322-13.233 29.554-29.555 29.554a29.413 29.413 0 0 1-17.282-5.586c-.178 13.735-7.251 25.8-17.917 32.901C-91.497 59.841-142.531 45.78-206.897 0Z" style="fill-opacity:1;fill-rule:nonzero;stroke:none" transform="translate(338.173 190.148)" fill="#7070ab" data-original="#7070ab"/><path d="M0 0c-25.937 0-47.163 20.108-48.976 45.584C-73.593 33.992-99.206 20.033-127.372 0Z" style="fill-opacity:1;fill-rule:nonzero;stroke:none" transform="translate(258.647 190.148)" fill="#616196" data-original="#616196"/><path d="M0 0c0-66.274-53.726-120-120-120S-240-66.274-240 0s53.726 120 120 120S0 66.274 0 0" style="fill-opacity:1;fill-rule:nonzero;stroke:none" transform="translate(512 120)" fill="#fff9e1" data-original="#fff9e1"/><path d="M0 0c0 56.656 39.267 104.135 92.068 116.725A120.365 120.365 0 0 1 64.136 120c-66.275 0-120-53.726-120-120s53.725-120 120-120c9.618 0 18.968 1.139 27.932 3.275C39.267-104.135 0-56.656 0 0" style="fill-opacity:1;fill-rule:nonzero;stroke:none" transform="translate(327.864 120)" fill="#fff2b9" data-original="#fff2b9"/><path d="M0 0c0-13.255-10.745-24-24-24S-48-13.255-48 0s10.745 24 24 24S0 13.255 0 0" style="fill-opacity:1;fill-rule:nonzero;stroke:none" transform="translate(490.517 108)" fill="#fff2b9" data-original="#fff2b9"/><path d="M0 0c-6.617 0-12 5.383-12 12s5.383 12 12 12c6.616 0 12-5.383 12-12S6.616 0 0 0" style="fill-opacity:1;fill-rule:nonzero;stroke:none" transform="translate(466.517 96)" fill="#fee886" data-original="#fee886"/><path d="M0 0c0-11.046-8.954-20-20-20s-20 8.954-20 20 8.954 20 20 20S0 11.046 0 0" style="fill-opacity:1;fill-rule:nonzero;stroke:none" transform="translate(357.223 167.427)" fill="#fff2b9" data-original="#fff2b9"/><path d="M0 0c-4.411 0-8 3.589-8 8s3.589 8 8 8c4.412 0 8-3.589 8-8S4.412 0 0 0" style="fill-opacity:1;fill-rule:nonzero;stroke:none" transform="translate(337.223 159.427)" fill="#fee886" data-original="#fee886"/><path d="M0 0c0-11.046-8.954-20-20-20s-20 8.954-20 20c0 11.045 8.954 20 20 20S0 11.045 0 0" style="fill-opacity:1;fill-rule:nonzero;stroke:none" transform="translate(460.052 190.148)" fill="#fff2b9" data-original="#fff2b9"/><path d="M0 0c-4.411 0-8 3.588-8 8 0 4.411 3.589 8 8 8s8-3.589 8-8c0-4.412-3.589-8-8-8" style="fill-opacity:1;fill-rule:nonzero;stroke:none" transform="translate(440.052 182.148)" fill="#fee886" data-original="#fee886"/><path d="M0 0c0-6.285-5.095-11.38-11.379-11.38S-22.758-6.285-22.758 0c0 6.284 5.095 11.379 11.379 11.379S0 6.284 0 0" style="fill-opacity:1;fill-rule:nonzero;stroke:none" transform="translate(414.758 126.652)" fill="#fff2b9" data-original="#fff2b9"/><path d="M0 0c0-6.284-5.095-11.379-11.379-11.379S-22.758-6.284-22.758 0c0 6.285 5.095 11.379 11.379 11.379S0 6.285 0 0" style="fill-opacity:1;fill-rule:nonzero;stroke:none" transform="translate(315.392 130.842)" fill="#fff9e1" data-original="#fff9e1"/><path d="M0 0c-1.246 0-2.459-.141-3.627-.4A26.329 26.329 0 0 1-1.618 9.711c0 14.585-11.824 26.409-26.409 26.409-2.388 0-4.699-.322-6.898-.916-2.205 18.908-18.274 33.584-37.774 33.584s-35.571-14.676-37.776-33.584a26.402 26.402 0 0 1-6.896.916c-14.586 0-26.409-11.824-26.409-26.409 0-3.582.717-6.996 2.009-10.111-1.168.259-2.381.4-3.627.4-9.223 0-16.699-7.477-16.699-16.698 0-9.222 7.476-16.698 16.699-16.698H0c9.222 0 16.698 7.476 16.698 16.698C16.698-7.477 9.222 0 0 0" style="fill-opacity:1;fill-rule:nonzero;stroke:none" transform="translate(308.674 97.577)" fill="#7070ab" data-original="#7070ab"/><path d="M0 0c0 .518.021 1.029.053 1.538L0 1.537c-21.007 0-38.036 17.029-38.036 38.036 0 1.507.091 2.992.261 4.453v-.001c-2.2.594-4.51.916-6.897.916-14.586 0-26.409-11.824-26.409-26.409 0-3.582.717-6.996 2.009-10.111-1.168.26-2.381.4-3.627.4-9.223 0-16.698-7.476-16.698-16.698 0-9.222 7.475-16.698 16.698-16.698h97.273C11.002-24.575 0-13.572 0 0" style="fill-opacity:1;fill-rule:nonzero;stroke:none" transform="translate(235.975 88.756)" fill="#616196" data-original="#616196"/><path d="M0 0c0-8.284-6.715-15-15-15-8.284 0-15 6.716-15 15 0 8.284 6.716 15 15 15C-6.715 15 0 8.284 0 0" style="fill-opacity:1;fill-rule:nonzero;stroke:none" transform="translate(150.4 147.427)" fill="#8080c1" data-original="#8080c1"/><path d="M0 0c0-5.523-4.477-10-10-10-5.522 0-10 4.477-10 10 0 5.522 4.478 10 10 10C-4.477 10 0 5.522 0 0" style="fill-opacity:1;fill-rule:nonzero;stroke:none" transform="translate(424.758 306.617)" fill="#8080c1" data-original="#8080c1"/><path d="M0 0c0-5.522-4.478-10-10-10-5.523 0-10 4.478-10 10 0 5.523 4.477 10 10 10C-4.478 10 0 5.523 0 0" style="fill-opacity:1;fill-rule:nonzero;stroke:none" transform="translate(259.502 30.398)" fill="#8080c1" data-original="#8080c1"/><path d="M0 0v-30" style="stroke-width:15;stroke-linecap:round;stroke-linejoin:round;stroke-miterlimit:10;stroke-dasharray:none;stroke-opacity:1" transform="translate(457.517 283.734)" fill="none" stroke="#8080c1" stroke-width="15" stroke-linecap="round" stroke-linejoin="round" stroke-miterlimit="10" stroke-dasharray="none" stroke-opacity="" data-original="#8080c1"/><path d="M0 0h-30" style="stroke-width:15;stroke-linecap:round;stroke-linejoin:round;stroke-miterlimit:10;stroke-dasharray:none;stroke-opacity:1" transform="translate(472.517 268.734)" fill="none" stroke="#8080c1" stroke-width="15" stroke-linecap="round" stroke-linejoin="round" stroke-miterlimit="10" stroke-dasharray="none" stroke-opacity="" data-original="#8080c1"/></g></g></svg>