<svg xmlns="http://www.w3.org/2000/svg" version="1.1" xmlns:xlink="http://www.w3.org/1999/xlink" x="0" y="0" viewBox="0 0 510 510" style="enable-background:new 0 0 512 512" xml:space="preserve" class=""><g><linearGradient id="a"><stop offset="0" stop-color="#f7e07d"/><stop offset="1" stop-color="#e69642"/></linearGradient><linearGradient xlink:href="#a" id="d" x1="350.468" x2="403.285" y1="13.535" y2="33.341" gradientUnits="userSpaceOnUse"/><linearGradient xlink:href="#a" id="e" x1="199.592" x2="252.409" y1="381.268" y2="401.074" gradientUnits="userSpaceOnUse"/><linearGradient xlink:href="#a" id="f" x1="445.526" x2="524.188" y1="267.825" y2="297.324" gradientUnits="userSpaceOnUse"/><linearGradient xlink:href="#a" id="g" x1="77.794" x2="156.456" y1="116.949" y2="146.448" gradientUnits="userSpaceOnUse"/><linearGradient xlink:href="#a" id="h" x1="448.757" x2="520.187" y1="117.12" y2="143.906" gradientUnits="userSpaceOnUse"/><linearGradient xlink:href="#a" id="i" x1="82.046" x2="153.476" y1="270.461" y2="297.247" gradientUnits="userSpaceOnUse"/><linearGradient xlink:href="#a" id="j" x1="342.668" x2="412.945" y1="377.37" y2="403.724" gradientUnits="userSpaceOnUse"/><linearGradient xlink:href="#a" id="k" x1="189.328" x2="259.604" y1="10.659" y2="37.012" gradientUnits="userSpaceOnUse"/><linearGradient xlink:href="#a" id="l" x1="213.108" x2="353.957" y1="118.402" y2="259.251" gradientUnits="userSpaceOnUse"/><linearGradient id="m" x1="318.159" x2="267.996" y1="165.275" y2="299.753" gradientUnits="userSpaceOnUse"><stop offset="0" stop-color="#d52c1c" stop-opacity="0"/><stop offset=".281" stop-color="#cc2c20" stop-opacity=".281"/><stop offset=".73" stop-color="#b52b2a" stop-opacity=".73"/><stop offset="1" stop-color="#a42b31"/></linearGradient><linearGradient id="n" x1="71.522" x2="324.578" y1="244.775" y2="497.831" gradientUnits="userSpaceOnUse"><stop offset="0" stop-color="#eef4ff"/><stop offset="1" stop-color="#cfe7fd"/></linearGradient><linearGradient id="b"><stop offset="0" stop-color="#8aaadc" stop-opacity="0"/><stop offset="1" stop-color="#8aaadc"/></linearGradient><linearGradient xlink:href="#b" id="o" x1="317.333" x2="414.687" y1="307.696" y2="307.696" gradientUnits="userSpaceOnUse"/><linearGradient xlink:href="#b" id="p" x1="218.416" x2="311.75" y1="268.902" y2="176.502" gradientUnits="userSpaceOnUse"/><linearGradient xlink:href="#b" id="q" x1="238" x2="238" y1="446.03" y2="525.696" gradientUnits="userSpaceOnUse"/><linearGradient xlink:href="#b" id="r" x1="298.321" x2="160.821" y1="470.583" y2="361.083" gradientUnits="userSpaceOnUse"/><linearGradient xlink:href="#b" id="s" x1="152.142" x2="98.142" y1="373.649" y2="331.149" gradientUnits="userSpaceOnUse"/><linearGradient id="c"><stop offset="0" stop-color="#76ccf8"/><stop offset=".833" stop-color="#518ef8"/><stop offset="1" stop-color="#4981f8"/></linearGradient><linearGradient xlink:href="#c" id="t" x1="74.86" x2="256.852" y1="286.592" y2="468.584" gradientUnits="userSpaceOnUse"/><linearGradient xlink:href="#c" id="u" x1="87.851" x2="269.843" y1="273.601" y2="455.593" gradientUnits="userSpaceOnUse"/><path fill="url(#d)" d="M368.531 46.351c8.239 3.38 17.658-.558 21.039-8.797l6.279-15.304c3.38-8.239-.558-17.658-8.797-21.038s-17.658.558-21.039 8.797l-6.279 15.304c-3.381 8.238.558 17.658 8.797 21.038z" opacity="1" data-original="url(#d)"/><path fill="url(#e)" d="M236.175 368.944c-8.239-3.38-17.658.558-21.038 8.796l-6.279 15.304c-3.38 8.239.559 17.658 8.797 21.039 8.239 3.38 17.658-.559 21.038-8.797l6.279-15.304c3.381-8.239-.558-17.658-8.797-21.038z" opacity="1" data-original="url(#e)"/><path fill="url(#f)" d="m499.992 271.307-15.304-6.279c-8.239-3.38-17.658.558-21.039 8.797-3.38 8.239.558 17.658 8.797 21.039l15.304 6.279c8.239 3.38 17.658-.558 21.038-8.797 3.381-8.24-.557-17.659-8.796-21.039z" opacity="1" data-original="url(#f)"/><path fill="url(#g)" d="m104.714 143.988 15.304 6.279c8.239 3.38 17.658-.559 21.038-8.797 3.38-8.239-.558-17.658-8.797-21.039l-15.304-6.279c-8.239-3.38-17.658.558-21.038 8.797h-.001c-3.379 8.239.559 17.658 8.798 21.039z" opacity="1" data-original="url(#g)"/><path fill="url(#h)" d="M463.202 140.388c3.436 8.216 12.881 12.091 21.097 8.656l15.261-6.382c8.216-3.435 12.091-12.881 8.656-21.097-3.436-8.216-12.881-12.091-21.097-8.656l-15.262 6.382c-8.216 3.436-12.091 12.881-8.655 21.097z" opacity="1" data-original="url(#h)"/><path fill="url(#i)" d="m120.408 266.25-15.261 6.382c-8.216 3.436-12.091 12.881-8.656 21.097 3.435 8.216 12.881 12.091 21.097 8.656l15.262-6.381c8.216-3.435 12.091-12.881 8.656-21.097-3.437-8.217-12.883-12.092-21.098-8.657z" opacity="1" data-original="url(#i)"/><path fill="url(#j)" d="M390.709 377.151c-3.435-8.216-12.881-12.091-21.097-8.656-8.216 3.435-12.092 12.881-8.656 21.097l6.382 15.262c3.435 8.215 12.881 12.091 21.096 8.656 8.217-3.436 12.092-12.881 8.656-21.097z" opacity="1" data-original="url(#j)"/><path fill="url(#k)" d="M235.094 46.799c8.216-3.436 12.092-12.881 8.656-21.097l-6.382-15.261c-3.435-8.216-12.881-12.092-21.097-8.656-8.216 3.435-12.091 12.881-8.656 21.097l6.382 15.262c3.435 8.215 12.881 12.09 21.097 8.655z" opacity="1" data-original="url(#k)"/><circle cx="302.353" cy="207.647" r="163.492" fill="url(#l)" opacity="1" data-original="url(#l)"/><circle cx="302.353" cy="207.647" r="163.492" fill="url(#m)" opacity="1" data-original="url(#m)" class=""/><path fill="url(#n)" d="M389.438 329.354a64.84 64.84 0 0 0 3.262-20.321c0-35.857-29.068-64.924-64.924-64.924a64.629 64.629 0 0 0-29.11 6.895c-19.674-43.504-63.454-73.775-114.305-73.775-69.249 0-125.386 56.137-125.386 125.386a125.61 125.61 0 0 0 3.849 30.933C26.387 345.197 0 379.332 0 419.634 0 469.542 40.458 510 90.366 510h295.269S476 469.542 476 419.634c0-48.633-38.419-88.286-86.562-90.28z" opacity="1" data-original="url(#n)"/><path fill="url(#o)" d="M392.7 309.035a64.757 64.757 0 0 1-3.248 20.319 86.186 86.186 0 0 0-3.817-.084c-32.116 0-60.321 16.763-76.337 42.009-26.852-7.952-46.443-32.807-46.443-62.244 0-35.859 29.064-64.923 64.923-64.923s64.922 29.065 64.922 64.923z" opacity="1" data-original="url(#o)" class=""/><path fill="url(#p)" d="M293.58 364.233c-21.513 38.071-62.365 63.765-109.219 63.765-69.244 0-125.384-56.131-125.384-125.384 0-69.244 56.14-125.384 125.384-125.384 50.848 0 94.631 30.268 114.305 73.761-21.243 10.668-35.812 32.657-35.812 58.044.001 23.306 12.283 43.745 30.726 55.198z" opacity="1" data-original="url(#p)" class=""/><path fill="url(#q)" d="M0 419.634C0 469.542 40.458 510 90.366 510h295.269S476 469.542 476 419.634a90.3 90.3 0 0 0-4.342-27.738H4.354A90.246 90.246 0 0 0 0 419.634z" opacity="1" data-original="url(#q)"/><path fill="url(#r)" d="M422.945 501.961 251.354 330.37c-9.618-11.308-26.067-17.413-45.484-17.413-28.488 0-52.192 13.918-52.192 51.322v57.629c0 18.813 6 31.68 15.585 39.828L217.527 510h168.107c13.305 0 25.937-2.876 37.311-8.039z" opacity="1" data-original="url(#r)"/><path fill="url(#s)" d="M137.677 313.953c-3.267-5.078-9.34-7.127-16.444-7.127-10.776 0-19.018 4.564-19.018 17.116v18.003c0 6.958 2.539 11.453 6.63 14.085L262.815 510h70.908z" opacity="1" data-original="url(#s)"/><path fill="url(#t)" d="M120.233 305.826c-10.776 0-19.018 4.564-19.018 17.116v18.003c0 12.553 8.241 17.117 19.018 17.117 10.649 0 19.019-4.564 19.019-17.117v-18.003c-.001-12.551-8.37-17.116-19.019-17.116zm6.339 35.119c0 4.185-2.408 6.086-6.339 6.086s-6.212-1.901-6.212-6.086v-18.003c0-4.185 2.281-6.086 6.212-6.086s6.339 1.901 6.339 6.086z" opacity="1" data-original="url(#t)"/><path fill="url(#u)" d="M242.275 410.688c-8.699 0-16.094 2.174-16.746 10.221-.652 8.48-1.739 21.746-19.137 21.746-12.613 0-19.789-6.959-19.789-21.746V363.28c0-14.788 7.176-21.747 19.572-21.747 18.484 0 19.137 13.918 19.354 19.572.436 7.829 7.829 10.221 16.963 10.221 11.525 0 16.963-3.044 16.963-16.093 0-27.618-23.486-43.275-54.585-43.275-28.488 0-52.192 13.918-52.192 51.322v57.629c0 37.404 23.704 51.322 52.192 51.322 31.099 0 54.585-16.527 54.585-45.451 0-13.049-5.438-16.092-17.18-16.092z" opacity="1" data-original="url(#u)"/></g></svg>